<svg xmlns="http://www.w3.org/2000/svg" viewBox="0 0 750 500"><g id="freepik--background-complete--inject-21"><rect x="504.17" y="162.22" width="194.15" height="155.22" transform="translate(-37.55 135.18) rotate(-12.44)" style="fill:#fafafa"></rect><path d="M679.31,143.13s-.31.09-.91.23l-2.65.61-10.29,2.33L626.67,155,489.83,185.45l.39-.6c10,45.11,21.4,96.82,33.49,151.54v0l-.67-.43,189.61-41.74-.36.56c-10-45.66-18.24-83.51-24-110l-6.66-30.75L679.88,146c-.39-1.84-.57-2.82-.57-2.82s.24.9.65,2.7,1,4.52,1.82,8c1.59,7.08,3.92,17.41,6.88,30.59C694.57,211,703,248.86,713.21,294.6l.11.45-.46.11L523.29,337.08l-.55.12-.12-.55h0c-12.05-54.73-23.44-106.45-33.38-151.57l-.11-.49.5-.11,137.26-30L665.62,146l10.21-2.19,2.61-.55C679,143.17,679.31,143.13,679.31,143.13Z" style="fill:#e0e0e0"></path><rect x="510.86" y="172.02" width="180.51" height="135.67" transform="translate(-37.56 135.16) rotate(-12.44)" style="fill:#ebebeb"></rect><polygon points="527.6 325.55 570.99 229.61 620.5 272.72 640.29 239.47 703.87 286.65 527.6 325.55" style="fill:#e0e0e0"></polygon><path d="M623.09,207.53a14.21,14.21,0,1,1-16.94-10.81A14.22,14.22,0,0,1,623.09,207.53Z" style="fill:#e0e0e0"></path><rect x="297.16" y="300.22" width="194.15" height="155.22" transform="translate(-72.15 93.82) rotate(-12.44)" style="fill:#fafafa"></rect><path d="M472.3,281.13s-.31.09-.91.23l-2.65.61-10.29,2.33L419.66,293,282.82,323.45l.39-.6c10,45.11,21.4,96.82,33.49,151.54v0L316,474l189.61-41.74-.36.56c-10-45.66-18.24-83.51-24-110l-6.66-30.75L472.87,284c-.39-1.84-.57-2.82-.57-2.82s.24.9.65,2.7,1,4.52,1.82,8c1.59,7.08,3.92,17.41,6.88,30.59C487.56,349,496,386.86,506.2,432.6l.11.45-.46.11L316.28,475.08l-.55.12-.12-.55h0c-12.05-54.73-23.44-106.45-33.38-151.57l-.11-.49.49-.11,137.27-30L458.61,284l10.21-2.19,2.61-.55C472,281.17,472.3,281.13,472.3,281.13Z" style="fill:#e0e0e0"></path><rect x="303.85" y="310.02" width="180.51" height="135.67" transform="translate(-72.16 93.79) rotate(-12.44)" style="fill:#ebebeb"></rect><polygon points="320.59 463.55 363.98 367.61 413.49 410.72 433.28 377.47 496.86 424.65 320.59 463.55" style="fill:#e0e0e0"></polygon><path d="M416.08,345.53a14.21,14.21,0,1,1-16.94-10.81A14.22,14.22,0,0,1,416.08,345.53Z" style="fill:#e0e0e0"></path><rect x="98.04" y="56.43" width="111.1" height="138.97" transform="translate(-26.44 209.8) rotate(-64.33)" style="fill:#fafafa"></rect><path d="M240.28,106l-.62-.27-1.77-.83-6.82-3.23L205.39,89.38l-90.52-43.3.48-.17L67.27,146.05h0l-.19-.54,125.22,60.26-.44.16c14.55-30.12,26.62-55.09,35.06-72.55,4.23-8.73,7.56-15.57,9.83-20.26,1.14-2.32,2-4.11,2.61-5.34s.93-1.84.93-1.84-.27.61-.83,1.81l-2.51,5.31c-2.24,4.69-5.49,11.54-9.65,20.27-8.38,17.54-20.37,42.63-34.84,72.89l-.14.3-.31-.14L66.72,146.25l-.36-.18.17-.36h0L114.7,45.59l.16-.32.32.16,90.57,43.73,25.53,12.37,6.72,3.28,1.72.85Z" style="fill:#e0e0e0"></path><rect x="104.95" y="61.28" width="97.11" height="129.2" transform="translate(-26.45 209.7) rotate(-64.33)" style="fill:#ebebeb"></rect><polygon points="74.25 141.66 141.07 106.8 149.9 152.95 175.74 142.97 190.7 197.63 74.25 141.66" style="fill:#e0e0e0"></polygon><path d="M180.16,117.39a10.18,10.18,0,1,1-4.76-13.58A10.17,10.17,0,0,1,180.16,117.39Z" style="fill:#e0e0e0"></path></g><g id="freepik--Photos--inject-21"><polygon points="478.96 54.97 529.12 159.11 390.5 222.9 340.34 118.76 478.96 54.97" style="fill:#ebebeb"></polygon><path d="M479,55s-.22.12-.66.33l-1.93.92-7.52,3.5L440.52,72.87l-100,46.23.2-.51L390.89,222.7h0l-.59-.19L529,158.8l-.18.46c-15-31.39-27.49-57.41-36.21-75.6L482.5,62.51l-2.64-5.59c-.6-1.27-.9-2-.9-2s.33.61.94,1.85l2.69,5.49c2.36,4.86,5.82,12,10.22,21L529.46,159l.15.31-.34.15L390.68,223.28l-.41.18-.18-.38h0c-18.1-37.6-35.2-73.14-50.11-104.14l-.17-.34.36-.17,100.42-46,28.34-12.94,7.48-3.39,1.91-.86Z" style="fill:#263238"></path><polygon points="392.12 214.14 521 154.84 477.16 63.81 348.27 123.12 392.12 214.14" style="fill:#455a64"></polygon><g style="opacity:0.30000000000000004"><polygon points="392.12 214.14 409.88 136.85 454.82 159.42 464.62 131.79 521 154.84 392.12 214.14"></polygon></g><g style="opacity:0.30000000000000004"><path d="M446.27,111.64a10.65,10.65,0,0,1-5.56,14.2c-5.6,2.58-12.2.4-14.74-4.86s-.05-11.63,5.55-14.21S443.73,106.37,446.27,111.64Z"></path></g><polygon points="706.08 349.43 675.34 425.59 575.53 383.24 606.27 307.08 706.08 349.43" style="fill:#ebebeb"></polygon><path d="M706.08,349.43l-.49-.19-1.41-.58-5.43-2.27-20.46-8.6-72.12-30.46.36-.14-30.71,76.16h0l-.18-.4,99.79,42.4-.33.13c9.3-22.91,17-41.9,22.42-55.18,2.71-6.64,4.83-11.85,6.29-15.41l1.67-4.06c.38-.92.6-1.41.6-1.41s-.17.47-.53,1.38-.9,2.28-1.59,4c-1.43,3.57-3.5,8.77-6.15,15.41l-22.23,55.43-.1.23-.24-.1-99.82-42.31-.29-.12.11-.28h0L606,307l.1-.24.26.11,72.19,30.77,20.34,8.71,5.36,2.31,1.37.6Z" style="fill:#263238"></path><polygon points="580.9 379.9 673.7 419.28 700.57 352.71 607.77 313.34 580.9 379.9" style="fill:#455a64"></polygon><g style="opacity:0.30000000000000004"><polygon points="580.9 379.9 630.02 352.28 639.64 386.69 658.85 378.63 673.7 419.28 580.9 379.9"></polygon></g><g style="opacity:0.30000000000000004"><path d="M660.66,359.35a7.57,7.57,0,0,1-10.12,3.87,7.91,7.91,0,0,1-4.49-10.07,7.57,7.57,0,0,1,10.12-3.88A7.9,7.9,0,0,1,660.66,359.35Z"></path></g><rect x="46.86" y="212.11" width="194.15" height="155.22" transform="translate(-97.32 74.2) rotate(-21.81)" style="fill:#fafafa"></rect><path d="M205.24,181.6l-.86.38-2.52,1-9.77,4-36.86,14.89L25.17,254.18l.28-.65L83.15,397.6v0l-.73-.31,180.29-72-.26.6L220.87,221.27c-5-12.6-8.9-22.48-11.57-29.25q-2-5.06-3-7.73c-.68-1.75-1-2.69-1-2.69s.38.85,1.08,2.56l3.1,7.6c2.72,6.73,6.69,16.55,11.76,29.07,10.15,25.2,24.65,61.24,42.15,104.71l.18.43-.44.17L82.85,398.35l-.52.21-.21-.52v0C61.31,346,41.66,296.8,24.51,253.9l-.18-.46.46-.19,130.56-52,36.85-14.6,9.72-3.83,2.49-1C205,181.69,205.24,181.6,205.24,181.6Z" style="fill:#263238"></path><rect x="53.57" y="221.92" width="180.51" height="135.67" transform="translate(-97.34 74.16) rotate(-21.81)" style="fill:#ebebeb"></rect><polygon points="85.22 386.27 112.43 284.55 168.29 319.03 182.41 283 252.82 319.22 85.22 386.27" style="fill:#e0e0e0"></polygon><path d="M139.8,310.67l-4,42.83c-13.26-1.84-12.46-17.39-12.46-17.39s5.79-42,6.12-46.55,2.39-6.05,2.39-6.05Z" style="fill:#2CB252"></path><path d="M129.85,290.16c-1.32-6,6.51-11.91,6.51-11.91l24.35-16.74,11.84.27,15,46.31,12.47,25-43.3,17.83C156.55,351,130.32,292.28,129.85,290.16Z" style="fill:#2CB252"></path><path d="M202.94,337.87c-.12-.28-3.85-6.49-3.85-6.49s-14.64,8-23.93,11.87a140.18,140.18,0,0,1-19.89,6.17l2.88,7Z" style="fill:#263238"></path><path d="M128.64,230l.61-.36c6.85-3.48,13.63.39,16.92,7.34l14.54,24.53-11.48,21.36-4.59-11h0L141.9,267s-6.94,2.73-10.74-3.59c-1.83-3.05-5.09-9.64-8-15.64A13.73,13.73,0,0,1,128.64,230Z" style="fill:#ffbe9d"></path><path d="M141.89,267a17.09,17.09,0,0,0,6.92-7.2s.72,5.73-6,8.86Z" style="fill:#eb996e"></path><path d="M127.61,252.24a1,1,0,0,0,1.41.4,1,1,0,0,0,.46-1.37,1.05,1.05,0,0,0-1.41-.4A1,1,0,0,0,127.61,252.24Z" style="fill:#263238"></path><path d="M126.08,249.85c.18.05.57-.86,1.55-1.43s2-.5,2-.68-.22-.23-.66-.28a2.92,2.92,0,0,0-1.7.4,2.73,2.73,0,0,0-1.15,1.29C126,249.55,126,249.83,126.08,249.85Z" style="fill:#263238"></path><path d="M136.67,247.38a1,1,0,0,0,1.41.4,1,1,0,0,0,.46-1.36,1,1,0,0,0-1.41-.41A1,1,0,0,0,136.67,247.38Z" style="fill:#263238"></path><path d="M135.34,244.08c.17.08.66-.79,1.7-1.25s2-.28,2.07-.45-.19-.26-.63-.35a2.91,2.91,0,0,0-1.73.21,2.77,2.77,0,0,0-1.28,1.15C135.26,243.78,135.25,244.05,135.34,244.08Z" style="fill:#263238"></path><path d="M136.78,254a7.3,7.3,0,0,0-1.76.64c-.26.12-.53.21-.67.06a1.47,1.47,0,0,1-.27-.83c-.11-.75-.24-1.52-.37-2.34a38.18,38.18,0,0,0-1.24-5.94,37.44,37.44,0,0,0,.76,6c.14.81.28,1.59.41,2.33a1.7,1.7,0,0,0,.44,1.05.73.73,0,0,0,.63.13,2.56,2.56,0,0,0,.46-.19A7.43,7.43,0,0,0,136.78,254Z" style="fill:#263238"></path><path d="M133.48,240.52c.25.21,1.15-.48,2.38-1s2.34-.77,2.35-1.09c0-.16-.3-.31-.83-.35a4.48,4.48,0,0,0-3.61,1.6C133.45,240.09,133.36,240.42,133.48,240.52Z" style="fill:#263238"></path><path d="M124.75,247c.3.13.84-.5,1.64-1S128,245.27,128,245c0-.15-.24-.31-.66-.35a2.65,2.65,0,0,0-1.56.42,2.75,2.75,0,0,0-1.06,1.22C124.57,246.64,124.61,246.92,124.75,247Z" style="fill:#263238"></path><path d="M148.4,242c.08-.11,3.62-3.84,6,.59s-2.68,5.67-2.62,5.8S148.66,242.48,148.4,242Z" style="fill:#ffbe9d"></path><path d="M152.25,246s.1,0,.27,0a.88.88,0,0,0,.58-.3,2.16,2.16,0,0,0,0-2.19,2.86,2.86,0,0,0-.81-1,1,1,0,0,0-.9-.28.44.44,0,0,0-.34.46c0,.16.08.23.06.25s-.13,0-.2-.22a.57.57,0,0,1,0-.38.67.67,0,0,1,.36-.34,1.22,1.22,0,0,1,1.18.25,2.88,2.88,0,0,1,.94,1.09,2.28,2.28,0,0,1-.09,2.52,1,1,0,0,1-.77.27C152.31,246.07,152.24,246,152.25,246Z" style="fill:#eb996e"></path><path d="M118.14,240.8a2.56,2.56,0,0,1,.64-2.75,2.29,2.29,0,0,1,1.75-4.12,2.35,2.35,0,0,1,1.71-3.43,2,2,0,0,1,2.66-2.82,3.43,3.43,0,0,1,4.39-3.06,4.38,4.38,0,0,1,5.77-.66,4.16,4.16,0,0,1,4.6.63,3,3,0,0,1,4.35,3,2.25,2.25,0,0,1,2.19,2.83,2.21,2.21,0,0,1,2,3.48c.68-.29,1.43.41,1.6,1.13a20.87,20.87,0,0,1,.09,2.24c.08.61.33,1.18.45,1.79a4,4,0,0,1-.86,3.25l.19.06c.44.49-.11,1.33-.76,1.42a3.3,3.3,0,0,1-1.86-.59,7.38,7.38,0,0,1-1.91-1.19,1.73,1.73,0,0,1-.4-2.06,2.64,2.64,0,0,1-2.43-1A7.61,7.61,0,0,1,141,236.5c-.47-1.27-.94-2.54-1.4-3.81a5.06,5.06,0,0,1-5.2-.27,2.87,2.87,0,0,1-4.13,1.22,3.75,3.75,0,0,1-2.77,4.31c.7.8-.43,2.58-1.17,3.34a3.77,3.77,0,0,1-2.23.78s-1,1.79-2,1.94-2.73-.25-2.69-1.43A4.66,4.66,0,0,1,118.14,240.8Z" style="fill:#263238"></path><path d="M146.41,230.25a1.78,1.78,0,0,1-.1.81,1,1,0,0,1-.64.55,1,1,0,0,1-1-.29l-.2-.23-.1.3a1.31,1.31,0,0,1-2.44.12l-.12-.27-.17.24a1.35,1.35,0,0,1-.89.5,1.32,1.32,0,0,1-.81-.15c-.42-.24-.55-.54-.59-.51s0,.35.48.69a1.51,1.51,0,0,0,1,.26,1.57,1.57,0,0,0,1.13-.58l-.3,0a1.65,1.65,0,0,0,3.1-.16l-.3.07a1.32,1.32,0,0,0,1.33.34,1.17,1.17,0,0,0,.75-.76C146.7,230.55,146.43,230.22,146.41,230.25Z" style="fill:#455a64"></path><path d="M149.51,234s-.09.22-.36.46a1.21,1.21,0,0,1-1.37.17l-.17-.1-.05.2a1.34,1.34,0,0,1-.92,1,1.32,1.32,0,0,1-1.41-.54l-.18-.28-.15.3a1.37,1.37,0,0,1-.15.21.94.94,0,0,1-1.05.22,1,1,0,0,1-.54-.85v-.36l-.28.23a1.66,1.66,0,0,1-1.14.34,1.62,1.62,0,0,1-.88-.38,3.3,3.3,0,0,1-.54-.7s0,.39.4.85a1.77,1.77,0,0,0,1,.51,1.92,1.92,0,0,0,1.4-.36l-.28-.14a1.3,1.3,0,0,0,.72,1.19,1.28,1.28,0,0,0,1.49-.29,1.17,1.17,0,0,0,.21-.3l-.33,0a1.61,1.61,0,0,0,2.94-.57l-.22.1a1.32,1.32,0,0,0,1,.09,1.37,1.37,0,0,0,.63-.4C149.54,234.29,149.53,234,149.51,234Z" style="fill:#455a64"></path><path d="M122.73,230a2.06,2.06,0,0,1,.33-.57,1,1,0,0,1,.66-.34,1.1,1.1,0,0,1,.89.32l.21.22v-.3a1.84,1.84,0,0,1,.9-1.54,1.77,1.77,0,0,1,2.07.26l.25.23,0-.34a2.24,2.24,0,0,1,1.09-1.6,2.14,2.14,0,0,1,2,0,2,2,0,0,1,.69.54l.13.16.15-.14a2.14,2.14,0,0,1,2.64-.24,2.18,2.18,0,0,1,.88,2.21l-.06.27.26-.09a2.36,2.36,0,0,1,1.8.07,2.27,2.27,0,0,1,1,.94,3.6,3.6,0,0,1,.39,1.18.67.67,0,0,0,0-.33,2.44,2.44,0,0,0-1.35-2,2.61,2.61,0,0,0-2-.13l.2.18a2.44,2.44,0,0,0-4.09-2.31h.28a2.56,2.56,0,0,0-.81-.64,2.47,2.47,0,0,0-2.4.06,2.53,2.53,0,0,0-1.24,1.88l.29-.11a2,2,0,0,0-3.45,1.54l.2-.08a1.26,1.26,0,0,0-1.09-.34,1.17,1.17,0,0,0-.73.43,1.15,1.15,0,0,0-.22.48C122.72,230,122.72,230,122.73,230Z" style="fill:#455a64"></path><path d="M140.05,253c-.16.08.46,1.14,0,2.43s-1.67,1.82-1.59,2,.37.06.86-.21a3.13,3.13,0,0,0,1.36-1.59,2.68,2.68,0,0,0-.06-2C140.39,253.16,140.12,253,140.05,253Z" style="fill:#263238"></path><path d="M164.79,346.88c.05,0-.56-1.12-1.21-2.51s-1.13-2.55-1.18-2.53a2.94,2.94,0,0,0,.23.79,19.69,19.69,0,0,0,.77,1.82c.33.7.67,1.32.93,1.75A3.74,3.74,0,0,0,164.79,346.88Z" style="fill:#455a64"></path><path d="M159.81,349.12a19.44,19.44,0,0,1-1.3-2.3,19.13,19.13,0,0,1-.79-2.51,2.21,2.21,0,0,0,.06.78,8.25,8.25,0,0,0,1.5,3.45A2.6,2.6,0,0,0,159.81,349.12Z" style="fill:#455a64"></path><path d="M92.47,293.88c-1.37-1.55-1.73-3.72-2.35-5.7A43.36,43.36,0,0,0,86.19,280a34,34,0,0,1-3.67-8.27,12.21,12.21,0,0,1,.83-8.82c1.48-2.63,4.56-4.48,7.53-3.95l2.51,7.43A143.42,143.42,0,0,1,108,295.81a42.06,42.06,0,0,1-8.59,4.93,2,2,0,0,1-1.94.12c-.67-.48-.54-1.49-.69-2.3A4.65,4.65,0,0,0,95,296,19.91,19.91,0,0,1,92.47,293.88Z" style="fill:#263238"></path><path d="M87.85,262.82a8.22,8.22,0,0,1,2.07-3.44,2.8,2.8,0,0,1,1.39-.86,1.22,1.22,0,0,1,1.38.66L92,264.7a2.2,2.2,0,0,1-2.1,1.24,2.27,2.27,0,0,1-1.83-.67A2.63,2.63,0,0,1,87.85,262.82Z" style="fill:#2CB252"></path><path d="M124.2,293.09Z" style="fill:#ffbe9d"></path><path d="M115.24,263.17a12.75,12.75,0,0,0-16.87-4.28,12.39,12.39,0,0,0-4.66,17.23l15.14,23.46a2.52,2.52,0,0,0,1.24,1,11.44,11.44,0,0,0,8.59-.55,11.91,11.91,0,0,0,5-5.58,2.39,2.39,0,0,0-.23-2.35l-3.6-5.1a0,0,0,0,1,0-.06,9.08,9.08,0,0,0,1.38-1.07c1.09-1.31,3.53-5.1,1-10.91A127.33,127.33,0,0,0,115.24,263.17Z" style="fill:#ffbe9d"></path><path d="M113.24,275.94a7.48,7.48,0,0,1,1.35-1.23c.22-.17.42-.36.35-.54s-.31-.4-.6-.59l-1.83-1.33A36.54,36.54,0,0,1,108,268.6a37.11,37.11,0,0,1,4.84,3.27l1.81,1.36a1.57,1.57,0,0,1,.71.84.72.72,0,0,1-.17.59,2.33,2.33,0,0,1-.37.31A7.63,7.63,0,0,1,113.24,275.94Z" style="fill:#263238"></path><path d="M116,268.09a1,1,0,0,1-.29,1.38,1,1,0,0,1-1.38-.2,1,1,0,0,1,.29-1.38A1,1,0,0,1,116,268.09Z" style="fill:#263238"></path><path d="M114.79,266.16c0,.2-1.05.11-1.94.77s-1.12,1.67-1.32,1.61-.16-.33-.07-.79a2.43,2.43,0,0,1,.93-1.44,2.46,2.46,0,0,1,1.67-.46C114.53,265.9,114.8,266.06,114.79,266.16Z" style="fill:#263238"></path><path d="M107.11,273.72a1,1,0,0,1-.29,1.38,1,1,0,0,1-1.38-.2,1,1,0,0,1,.29-1.38A1,1,0,0,1,107.11,273.72Z" style="fill:#263238"></path><path d="M106.05,272.12c0,.21-1.12,0-2.16.58s-1.48,1.58-1.68,1.5-.11-.36.07-.81a2.79,2.79,0,0,1,1.24-1.37,2.7,2.7,0,0,1,1.82-.28C105.82,271.83,106.08,272,106.05,272.12Z" style="fill:#263238"></path><path d="M119.84,286.93s-3.41,2.56-9.61,2.76c0,0,4.4,3.76,10.77-1.13Z" style="fill:#eb996e"></path><path d="M114.26,278.39a2,2,0,0,0-1.9.34,1.79,1.79,0,0,0-.7,1.22,1.12,1.12,0,0,0,.62,1.14,1.35,1.35,0,0,0,1.41-.47,4.09,4.09,0,0,0,.75-1.45,1.12,1.12,0,0,0,.09-.44.34.34,0,0,0-.22-.34" style="fill:#eb996e"></path><path d="M110.9,278.3c.15-.1.78.89,2.1,1s2.32-.63,2.42-.49-.12.34-.56.64a3,3,0,0,1-2,.47,2.57,2.57,0,0,1-1.69-.91C110.87,278.66,110.83,278.34,110.9,278.3Z" style="fill:#263238"></path><path d="M104.35,268.66c.07.3-.93.79-1.93,1.62s-1.69,1.7-2,1.57c-.13-.06-.13-.39.07-.86a4.12,4.12,0,0,1,1.2-1.55,4.23,4.23,0,0,1,1.77-.88C104,268.45,104.31,268.52,104.35,268.66Z" style="fill:#263238"></path><path d="M112.84,263.27c0,.31-.84.45-1.64.88s-1.4,1-1.68.82c-.13-.08-.14-.35,0-.72a2.73,2.73,0,0,1,2.68-1.36C112.64,263,112.86,263.12,112.84,263.27Z" style="fill:#263238"></path><path d="M98.33,257.19a3.73,3.73,0,0,0-3.24.38c-4.37,2.29-7,7.89-6.81,12.82s3.74,10,8,12.42L98,282c2.94-2.44,1.83-14.8,2.67-22.7C100.74,258.3,99.24,257.58,98.33,257.19Z" style="fill:#263238"></path><path d="M107.76,254.24c-3-.66-7.37-1-9.83,2.82.2,1.33,2.12,1.83,3.5,1.93,2,.16,3.63.08,5,.24,2.78.34,6.68,1.39,8.91,4.09.14.17.3.1.45-.06s-.11-1.75-1-3.48A9.17,9.17,0,0,0,107.76,254.24Z" style="fill:#263238"></path><path d="M97.63,279.47c-.13,0-4.82,1.25-2.24,5.24s6,.59,6,.47S97.63,279.47,97.63,279.47Z" style="fill:#ffbe9d"></path><path d="M99.18,284.45s0,.09-.12.22a.87.87,0,0,1-.52.35,2,2,0,0,1-1.79-1,2.87,2.87,0,0,1-.45-1.12,1,1,0,0,1,.18-.87.43.43,0,0,1,.54-.08c.12.08.15.18.17.17s0-.12-.09-.27a.57.57,0,0,0-.32-.15.66.66,0,0,0-.45.15,1.15,1.15,0,0,0-.33,1.09,2.85,2.85,0,0,0,.48,1.27,2.16,2.16,0,0,0,2.12,1.07.9.9,0,0,0,.57-.52C99.23,284.55,99.2,284.45,99.18,284.45Z" style="fill:#eb996e"></path><path d="M109.11,254.46a5.8,5.8,0,0,1-1,.94,19.06,19.06,0,0,1-5.91,3.18,5,5,0,0,1-1.35.34,9,9,0,0,1,1.28-.53,27.33,27.33,0,0,0,3-1.4,30.26,30.26,0,0,0,2.83-1.75A8.13,8.13,0,0,1,109.11,254.46Z" style="fill:#455a64"></path><path d="M112.38,256.32a2.65,2.65,0,0,1-.7.79,8.21,8.21,0,0,1-2.18,1.37,7.93,7.93,0,0,1-2.49.6A3,3,0,0,1,106,259a15.18,15.18,0,0,0,3.44-.82A14.6,14.6,0,0,0,112.38,256.32Z" style="fill:#455a64"></path><path d="M88.73,272.06c0-.05.91-.49,2.24-1.48a21.22,21.22,0,0,0,2.19-1.91,25.21,25.21,0,0,0,4.19-5.73,25.42,25.42,0,0,0,1.23-2.64c.61-1.55.85-2.55.91-2.54a3.33,3.33,0,0,1-.14.72c0,.23-.12.5-.22.82s-.2.68-.36,1.07a22,22,0,0,1-1.18,2.69,26.35,26.35,0,0,1-1.89,3.07,24.26,24.26,0,0,1-2.35,2.73,17.91,17.91,0,0,1-2.26,1.88,8.91,8.91,0,0,1-1,.62,5.85,5.85,0,0,1-.75.41A3.15,3.15,0,0,1,88.73,272.06Z" style="fill:#455a64"></path><path d="M100.19,259.3a4.28,4.28,0,0,1,.07.76,8.47,8.47,0,0,1,0,.89c0,.35,0,.75,0,1.19a18.61,18.61,0,0,1-.46,3A19.21,19.21,0,0,1,96.68,272a17.36,17.36,0,0,1-2,2.35,10.22,10.22,0,0,1-.87.81,5.67,5.67,0,0,1-.69.56,4.5,4.5,0,0,1-.62.44c0-.05.83-.69,2-1.95a20.44,20.44,0,0,0,1.92-2.36,21.63,21.63,0,0,0,1.84-3.25,21.24,21.24,0,0,0,1.73-6.52C100.19,260.39,100.13,259.3,100.19,259.3Z" style="fill:#455a64"></path><path d="M95.09,257.57a1.81,1.81,0,0,1,.82-.49,4.08,4.08,0,0,1,2.3-.12,3.43,3.43,0,0,1,.64.21,3.91,3.91,0,0,1,.52.34,6.41,6.41,0,0,1,.8.67,1.45,1.45,0,0,1,.49.82s-.21-.31-.64-.67a7.59,7.59,0,0,0-.8-.59,2.59,2.59,0,0,0-.49-.3,4.53,4.53,0,0,0-.59-.2,4.72,4.72,0,0,0-2.17,0C95.43,257.43,95.12,257.61,95.09,257.57Z" style="fill:#455a64"></path><path d="M98.31,277a13.31,13.31,0,0,0,2-2.05,12.13,12.13,0,0,0,2.33-6.49,18.82,18.82,0,0,0-1-6.91c-.28-.86-.53-1.55-.71-2a4.38,4.38,0,0,1-.26-.74,4.27,4.27,0,0,1,.36.7c.22.46.5,1.13.81,2a17.94,17.94,0,0,1,1.09,7,11.86,11.86,0,0,1-2.46,6.59A8.77,8.77,0,0,1,99,276.57a4.76,4.76,0,0,1-.48.33Q98.31,277,98.31,277Z" style="fill:#263238"></path><path d="M120.75,268.22a.84.84,0,0,1-.51.25,1,1,0,0,1-.64-.18,1.07,1.07,0,0,1-.44-.73,3.18,3.18,0,0,1,0-1.1,6.45,6.45,0,0,0,.19-1.31,1.86,1.86,0,0,0-.14-.73,1.82,1.82,0,0,0-.48-.62,3.64,3.64,0,0,0-1.46-.61,5.3,5.3,0,0,1-1.44-.48,2.31,2.31,0,0,1-.88-1c-.38-.82-.48-1.66-.8-2.31a2.6,2.6,0,0,0-1.06-1.26,1.16,1.16,0,0,0-.43-.15h-.16a3.3,3.3,0,0,1,.54.23,2.56,2.56,0,0,1,1,1.26c.29.62.37,1.46.75,2.32a2.62,2.62,0,0,0,1,1.14,5.2,5.2,0,0,0,1.5.5,3.52,3.52,0,0,1,1.37.57,1.47,1.47,0,0,1,.56,1.18,7.35,7.35,0,0,1-.16,1.27,3.09,3.09,0,0,0,0,1.17,1.17,1.17,0,0,0,.53.8,1.11,1.11,0,0,0,.71.17.68.68,0,0,0,.41-.2A.46.46,0,0,0,120.75,268.22Z" style="fill:#263238"></path><path d="M94.51,281.73s-.05-.07-.17-.18-.3-.27-.52-.49A21.3,21.3,0,0,1,92,279.12a18.48,18.48,0,0,1-2.13-3.25,15.5,15.5,0,0,1-1.49-4.49,12.73,12.73,0,0,1-.12-2.45,13.34,13.34,0,0,1,.36-2.26,16.18,16.18,0,0,1,1.41-3.61,22.25,22.25,0,0,1,1.38-2.24c.17-.26.32-.45.41-.59S92,260,92,260l-.17.19c-.1.13-.26.31-.44.56A18.05,18.05,0,0,0,89.94,263a15.28,15.28,0,0,0-1.48,3.63,12.7,12.7,0,0,0-.37,2.3,11.71,11.71,0,0,0,.12,2.49A15.14,15.14,0,0,0,89.73,276a17.38,17.38,0,0,0,2.19,3.26,18.1,18.1,0,0,0,1.84,1.9c.23.21.42.36.55.46Z" style="fill:#455a64"></path><path d="M105.63,292.51a1.12,1.12,0,0,0,0-.2,3.29,3.29,0,0,0,0-.59,4.6,4.6,0,0,0-.6-2.05,4.93,4.93,0,0,0-.93-1.17,9.24,9.24,0,0,0-1.42-.95,1.81,1.81,0,0,1-1-1.36c0-.62.3-1.24.32-2a1.14,1.14,0,0,0-.49-1,4.52,4.52,0,0,0-.94-.38,1.74,1.74,0,0,1-1-1.32,4.6,4.6,0,0,1,0-1.65,8.62,8.62,0,0,0,.08-1.49,2.23,2.23,0,0,0-1-1.84,1.27,1.27,0,0,0-.57-.16.8.8,0,0,0-.2,0,1.63,1.63,0,0,1,.73.22,2.11,2.11,0,0,1,.9,1.77,8.53,8.53,0,0,1-.1,1.46,4.93,4.93,0,0,0,0,1.71,2.31,2.31,0,0,0,.38.87,1.76,1.76,0,0,0,.79.61,4.47,4.47,0,0,1,.89.36.91.91,0,0,1,.4.78c0,.65-.35,1.29-.31,2a1.47,1.47,0,0,0,.38.93,3.15,3.15,0,0,0,.74.59,9.42,9.42,0,0,1,1.4.92,4.63,4.63,0,0,1,.91,1.11,4.57,4.57,0,0,1,.65,2C105.64,292.23,105.6,292.51,105.63,292.51Z" style="fill:#263238"></path><path d="M91.94,299c0,.06.16.14.47.08a1.62,1.62,0,0,0,1-.87,2.3,2.3,0,0,0,.26-1,2.16,2.16,0,0,0,0-.61,2.94,2.94,0,0,0-.2-.59,5.05,5.05,0,0,0-1.81-2,8.3,8.3,0,0,1-2-1.62,4.35,4.35,0,0,1-.6-2.55,28.9,28.9,0,0,0,0-3.71,15.3,15.3,0,0,0-1-4c-1-2.59-2.36-4.76-3.3-6.78a17.16,17.16,0,0,1-1.64-5.52,9.48,9.48,0,0,1,.36-3.8c.15-.43.27-.78.37-1s.11-.4,0-.44-.2,0-.41.19a4,4,0,0,0-.78.9A8.08,8.08,0,0,0,81.52,270a16.19,16.19,0,0,0,1.34,6.28c.91,2.2,2.19,4.4,3.11,6.76a14.65,14.65,0,0,1,1,3.47c.17,1.1.07,2.27.13,3.51a8.84,8.84,0,0,0,.29,1.88,4.89,4.89,0,0,0,.9,1.74,5.55,5.55,0,0,0,1.35,1.11c.44.28.85.48,1.22.69a4.39,4.39,0,0,1,1.56,1.24,2.11,2.11,0,0,1,.18.33,1.38,1.38,0,0,1,.08.93C92.47,298.67,91.91,298.83,91.94,299Z" style="fill:#263238"></path><path d="M123.31,336.11c-1.79-1.54-7.3-8.51-9.27-10.87a53,53,0,0,1-7.77-13c-.57-1.31-.82-4.09-1.14-6.43,0-.32-.08-.64-.1-1l1.34-9.06-.23-.39,15.34-3.48a5.38,5.38,0,0,1,3,.47L143,306.14s10,16.26,18.78,30.56c6.91,11.2,7.52,15.67,7.16,15.14l-37,15.18,3.3-15.35-3.8-8.34S128.61,340.67,123.31,336.11Z" style="fill:#455a64"></path><path d="M118,293.65a7.29,7.29,0,0,1,6-1.52c4.39.57,21.84,14.16,21.84,14.16s8.47-2.81,8.6-2.5,3.84,6,4.75,7.9,4.35,7.91,2.57,11.78-5.11,6.75-9.61,3.95c-5.76-3.57-23.79-11.19-30.58-16.74C115,305.3,115.05,296.68,118,293.65Z" style="fill:#455a64"></path><path d="M140.31,284a14,14,0,0,1-3-2.27c-.41-.56,0-1.45.64-1.25s5.46,2.68,5.46,2.68,3.93,5.81,4.61,7.27,1.5,3.6,2.09,4.66,4.68,9.28,4.68,9.28l-8.9,1.91-3.15-7.65a4,4,0,0,1-2.06-.27c-1-.45-3.45-.83-4.22-1.82s-2.11-3.35-2.11-3.35l.75-1.69A10.8,10.8,0,0,1,133.7,289c0-.45,1.43-1.37,1.43-1.37s-.6-1.37.16-1.89a3.12,3.12,0,0,1,2.13-.18s0-2.4.94-2.21A12.28,12.28,0,0,1,140.31,284Z" style="fill:#ffbe9d"></path><path d="M143.34,285a13.2,13.2,0,0,0-1.56-.57,11.23,11.23,0,0,0-1.58-.54,5.44,5.44,0,0,0,1.51.73A5.08,5.08,0,0,0,143.34,285Z" style="fill:#eb996e"></path><path d="M137.59,295.35s-.58-.86-1.26-1.92-1.18-2-1.23-1.94a8.91,8.91,0,0,0,1.06,2.05A9,9,0,0,0,137.59,295.35Z" style="fill:#eb996e"></path><path d="M145.59,306.08s0,0,.08.1a2.32,2.32,0,0,0,.27.26,7.71,7.71,0,0,0,1.13.76c1,.59,2.47,1.21,4,2a12.74,12.74,0,0,1,2.08,1.31,11.42,11.42,0,0,1,1.5,1.32,11.87,11.87,0,0,1,1.11,1.48.45.45,0,0,0-.05-.12,2.34,2.34,0,0,0-.16-.34,6.21,6.21,0,0,0-.8-1.11,10.76,10.76,0,0,0-1.49-1.38,12.21,12.21,0,0,0-2.1-1.34c-1.58-.77-3-1.37-4.06-1.92a9.61,9.61,0,0,1-1.15-.7A3.53,3.53,0,0,0,145.59,306.08Z" style="fill:#263238"></path><path d="M139,283.55l-5.22-2.11a1.57,1.57,0,0,0,.21,1.64,18.59,18.59,0,0,0,3.46,2.42Z" style="fill:#ffbe9d"></path><path d="M137.42,285.6,131,283.42a.79.79,0,0,0-.08.89c.25.54,4.24,3.36,4.24,3.36Z" style="fill:#ffbe9d"></path><path d="M135,287.87,129.6,285s-.43.61.53,1.77a53.17,53.17,0,0,0,5.28,4.38Z" style="fill:#ffbe9d"></path><path d="M137.23,286.82s.11-.09.28-.22a1.43,1.43,0,0,1,.76-.27,1.33,1.33,0,0,1,.77.21c.19.11.28.22.3.2s0-.15-.21-.31a1.26,1.26,0,0,0-1.71.07C137.25,286.67,137.21,286.81,137.23,286.82Z" style="fill:#eb996e"></path><path d="M137.23,285.46c0,.05.2.18.49.3s.54.16.56.11-.2-.18-.49-.3S137.25,285.41,137.23,285.46Z" style="fill:#eb996e"></path><path d="M134.43,289.52a3.56,3.56,0,0,1,.91-.72,1.8,1.8,0,0,1,.77-.18c.2,0,.29.11.31.09s0-.18-.29-.23a1.43,1.43,0,0,0-.87.14,1.65,1.65,0,0,0-.68.56C134.45,289.37,134.41,289.51,134.43,289.52Z" style="fill:#eb996e"></path><path d="M124.67,312.87l.08.06.26.17,1,.61c.87.52,2.13,1.28,3.7,2.19,3.15,1.83,7.5,4.33,12.41,6.93,2.46,1.29,4.82,2.49,7,3.45,1.1.48,2.18.87,3.19,1.22a19,19,0,0,0,2.88.79,5.88,5.88,0,0,0,1.3.12,3.09,3.09,0,0,0,1.13-.3,6.48,6.48,0,0,0,1.52-1.08c.38-.34.66-.62.85-.81l.22-.21.07-.07-.09.06-.23.2-.87.77a6.72,6.72,0,0,1-1.51,1,3,3,0,0,1-1.1.27,6.4,6.4,0,0,1-1.27-.12,20.84,20.84,0,0,1-2.85-.81c-1-.36-2.08-.75-3.17-1.23-2.2-1-4.55-2.17-7-3.47-4.9-2.59-9.27-5.07-12.43-6.87l-3.73-2.14c-.44-.24-.78-.44-1-.58l-.27-.15Z" style="fill:#263238"></path><path d="M153.56,330.15a4.11,4.11,0,0,1-2.14.5c-.91-.15-5.68-1.5-6.49-1.27s-6.52,2-6.52,2l-4,2.52a2,2,0,0,0,2.69,1.34,12.21,12.21,0,0,0,3.69-1.78s2-.4,2.19.13.13,1.1-.61,1.77-2.06,2-2.06,2-8.93,3.3-9.08,3.73.07,1.84,1.08,1.85,8.52-3,8.92-2.55,1.13.92.27,1.43-8.89,3.66-9.45,4.48-.84,3,1.28,2.19S143,344,143,344s1.83.68.79,1.27-8.52,4.69-8.6,5.41.5,2.24,2,1.45,7.36-4.79,7.94-4.92.86,0,.61.44-1.44,3.1-2.87,3.9a9.33,9.33,0,0,0-2.33,1.86s-.09,1.59,1.13,1.19a24.68,24.68,0,0,0,3.49-1.75s3.74-4.26,4.26-4.69,6.15-3.06,7.45-5.47,2.87-4.81,2.87-4.81Z" style="fill:#ffbe9d"></path><path d="M135.47,339a1.45,1.45,0,0,0,.12-1.84c-.67-1.12-1.24-.88-1.24-.88l-1.2,1.21a28.62,28.62,0,0,0-3.07,1.44c-.37.31-.84,4-.82,4.15s-1.1.29-1.1.29a10.09,10.09,0,0,0,0,4.14c.51,1.65.92,3.21,2.74,4a10,10,0,0,0,3.62.81s2,1.27,2.84,1.23,4,2.46,4.64,2.13.62-1,.45-1.14-2.93-2-2.93-2,6-1.29,6.4-1.72.7-1.59.09-2-.94,0-1.51,0-4,1.25-4,1.25l-1.64-2s5.81-1.93,6.14-2.61a1.49,1.49,0,0,0-.4-1.89,1.88,1.88,0,0,0-2.07.17c-.63.43-6.15,3.14-6.15,3.14l-.14-2.48s5.83-2.33,6-3.12a1.36,1.36,0,0,0-.63-1.57,2.05,2.05,0,0,0-2.12-.14c-1,.44-7.19,3.37-7.19,3.37Z" style="fill:#ffbe9d"></path><path d="M137.48,340.51l-.45.21-1.21.59c-.52.24-1.13.53-1.79.91a4.18,4.18,0,0,1-1.05.48,1.66,1.66,0,0,1-1.16-.07,1,1,0,0,1-.54-.95,1.22,1.22,0,0,1,.7-.79c.66-.34,1.28-.62,1.79-.87l1.22-.6.43-.24a2,2,0,0,0-.47.17l-1.24.54c-.52.24-1.13.5-1.82.84a2,2,0,0,0-.49.35,1.09,1.09,0,0,0-.31.58,1.17,1.17,0,0,0,.63,1.14,1.82,1.82,0,0,0,1.31.09,4.38,4.38,0,0,0,1.09-.51c.65-.39,1.25-.69,1.76-.95s.91-.48,1.19-.64A2.44,2.44,0,0,0,137.48,340.51Z" style="fill:#eb996e"></path><path d="M136.3,347a1.45,1.45,0,0,0-.23.09l-.64.28-2.36,1.07a1.55,1.55,0,0,1-.79.15.69.69,0,0,1-.58-.54,1.8,1.8,0,0,1,.66-1.74,4.08,4.08,0,0,1,.93-.55l.53-.22.53-.24,2.24-1,4.31-1.87a3.74,3.74,0,0,0,.93-.55,1.45,1.45,0,0,0,.51-.9,1.58,1.58,0,0,0-.85-1.55,2.17,2.17,0,0,0-1.48-.15,5.81,5.81,0,0,0-1,.4c-.27.14-.48.26-.62.35l-.2.14s.08,0,.22-.11l.63-.31a6.48,6.48,0,0,1,1-.37,2.1,2.1,0,0,1,1.39.18,1.41,1.41,0,0,1,.76,1.4,1.27,1.27,0,0,1-.46.79,3.51,3.51,0,0,1-.89.51l-4.32,1.86-2.23,1-.53.23-.54.23a3.94,3.94,0,0,0-1,.59,1.93,1.93,0,0,0-.71,1.91.85.85,0,0,0,.71.65,1.74,1.74,0,0,0,.87-.17c1-.47,1.79-.86,2.34-1.13l.63-.32Z" style="fill:#eb996e"></path><path d="M139.93,347.71s.06,0,.17,0l.47-.13c.41-.12,1-.3,1.71-.56a5.91,5.91,0,0,0,2.33-1.32,2.57,2.57,0,0,0,.45-.66,1.18,1.18,0,0,0,.08-.85,1.12,1.12,0,0,0-.64-.62,2.14,2.14,0,0,0-.87-.16,3.86,3.86,0,0,0-1.67.43c-.49.25-.94.51-1.39.75l-2.33,1.29-1.56.88a3.5,3.5,0,0,0-.56.35,6.07,6.07,0,0,0,.59-.28l1.6-.83,2.35-1.25c.44-.24.91-.5,1.39-.74a3.7,3.7,0,0,1,1.58-.41,2.41,2.41,0,0,1,.8.15.82.82,0,0,1,.46,1.21,2.18,2.18,0,0,1-.41.61,4.34,4.34,0,0,1-1.12.83,10.46,10.46,0,0,1-1.13.49c-.7.28-1.28.48-1.68.62S139.92,347.7,139.93,347.71Z" style="fill:#eb996e"></path><path d="M138.21,348.45a3,3,0,0,0-.46.23l-1.21.7c-.26.15-.54.3-.83.5a1.67,1.67,0,0,0-.42.38.89.89,0,0,0-.17.6,1.6,1.6,0,0,0,.18.6,5.33,5.33,0,0,0,.32.56,1,1,0,0,0,.58.4,1.38,1.38,0,0,0,.7-.08,7,7,0,0,0,1.2-.58c.37-.22.72-.44,1-.66.65-.43,1.23-.83,1.72-1.17l1.15-.79a3.48,3.48,0,0,0,.42-.29,1.9,1.9,0,0,0-.46.23c-.29.16-.7.41-1.19.74L139,351c-.32.21-.67.43-1,.64a7,7,0,0,1-1.16.57c-.91.44-1.4-.69-1.54-1.32a1,1,0,0,1,.5-.83c.28-.2.57-.36.81-.52l1.18-.74A2.25,2.25,0,0,0,138.21,348.45Z" style="fill:#eb996e"></path><path d="M139.51,352.35a3.46,3.46,0,0,0,.57,0l1.56-.2,2.3-.32a7.11,7.11,0,0,0,1.36-.27,1.41,1.41,0,0,0,.62-.45,3.29,3.29,0,0,0,.44-.64,1.77,1.77,0,0,0,.22-.75,1.12,1.12,0,0,0-.32-.71,1.32,1.32,0,0,0-.28-.25.6.6,0,0,0-.36-.14,2,2,0,0,0-.7.1c-.85.23-1.59.49-2.22.69l-1.49.49a3.31,3.31,0,0,0-.54.19,2.59,2.59,0,0,0,.56-.12c.36-.09.88-.24,1.51-.43s1.39-.42,2.23-.65a2,2,0,0,1,.63-.09.93.93,0,0,1,.52.34.89.89,0,0,1,.26.58,1.48,1.48,0,0,1-.2.66,2.77,2.77,0,0,1-.41.6,1.2,1.2,0,0,1-.54.4,7.54,7.54,0,0,1-1.32.27l-2.29.36-1.55.26A5,5,0,0,0,139.51,352.35Z" style="fill:#eb996e"></path><path d="M145.2,352.84a11.1,11.1,0,0,0-1.07.5c-.65.31-1.59.73-2.59,1.18a.57.57,0,0,1-.34,0,.69.69,0,0,1-.3-.2.74.74,0,0,1-.19-.61,1.23,1.23,0,0,1,.35-.53l.2-.24.19-.2c.27-.25.5-.44.64-.59s.21-.25.2-.26a3,3,0,0,0-.25.21c-.16.13-.4.3-.68.53-.07.07-.14.13-.21.21l-.21.23a1.36,1.36,0,0,0-.41.6,1,1,0,0,0,.23.79,1,1,0,0,0,.37.24.75.75,0,0,0,.47,0c1-.47,1.94-.89,2.59-1.24A5,5,0,0,0,145.2,352.84Z" style="fill:#eb996e"></path><path d="M133.26,350.79s-.1-.06-.21-.15a1,1,0,0,1-.3-.49c-.1-.45,0-.87-.08-.88s-.07.09-.11.26a1.36,1.36,0,0,0,0,.67.87.87,0,0,0,.41.55C133.14,350.84,133.26,350.82,133.26,350.79Z" style="fill:#eb996e"></path><path d="M130.76,345.67a5,5,0,0,1-.43-1,4.39,4.39,0,0,1,0-1.11s-.1.11-.16.31a1.82,1.82,0,0,0,.34,1.6C130.62,345.62,130.74,345.69,130.76,345.67Z" style="fill:#eb996e"></path><path d="M129.27,344.49c.06,0,0-.68.11-1.5s.28-1.48.23-1.49a3.13,3.13,0,0,0-.43,1.46A3.29,3.29,0,0,0,129.27,344.49Z" style="fill:#eb996e"></path><path d="M142.1,338.4s-.15-.23-.24-.52-.05-.54-.1-.56-.2.26-.08.62S142.08,338.45,142.1,338.4Z" style="fill:#eb996e"></path><path d="M144.56,342.58c0-.06-.4-.18-.67-.59a2.57,2.57,0,0,1-.27-.84s-.08.09-.09.28a1.21,1.21,0,0,0,.19.67,1.14,1.14,0,0,0,.55.44C144.44,342.61,144.55,342.6,144.56,342.58Z" style="fill:#eb996e"></path><path d="M148,346.78c0-.06-.41,0-.81-.26s-.55-.6-.6-.58,0,.12.05.27a1.13,1.13,0,0,0,.45.48,1.17,1.17,0,0,0,.65.17C147.92,346.85,148,346.8,148,346.78Z" style="fill:#eb996e"></path><path d="M172.55,261.78a12.87,12.87,0,0,1,9.57,6.64c3.46,6.19,12.92,35.54,10.76,41s-8.41,10.78-17.87,18.23a127.9,127.9,0,0,1-15.38,10.33l-6.21-7.72s3.68-4.14,8.21-8.86c3-3.1,6-7,8.57-9.91,2.82-3.21,5.05-5.35,4.84-6.35-.4-1.82-4.38-17.5-5.51-26.33S169.78,262.41,172.55,261.78Z" style="fill:#2CB252"></path><path d="M174.77,306.1a9.24,9.24,0,0,0,1.07-.11,13.71,13.71,0,0,1,2.56-.06,14.8,14.8,0,0,1,2.54.41,9.59,9.59,0,0,0,1,.26,4.09,4.09,0,0,0-1-.4,11.46,11.46,0,0,0-5.16-.35A4.7,4.7,0,0,0,174.77,306.1Z" style="fill:#263238"></path><path d="M153.56,330.15l.11-.12.32-.34,1.21-1.33,4.42-4.91,14.52-16.24,1-1.1,0,0V306c-.14-1-.27-2-.41-3s-.37-1.94-.56-2.88c-.4-1.88-.8-3.69-1.2-5.4-.82-3.42-1.55-6.49-2.17-9.07s-1.06-4.66-1.37-6.1c-.15-.72-.27-1.27-.36-1.66,0-.18-.07-.33-.09-.43s0-.15,0-.15,0,.05,0,.15l.08.44c.07.39.18.94.31,1.66.29,1.45.73,3.54,1.32,6.12s1.32,5.65,2.13,9.08c.39,1.71.79,3.52,1.18,5.4.19.94.4,1.89.56,2.87s.27,2,.4,3l0-.08-1,1.09-14.47,16.29c-1.85,2.08-3.34,3.77-4.38,4.95-.5.58-.9,1-1.18,1.35l-.3.36A.56.56,0,0,0,153.56,330.15Z" style="fill:#263238"></path><path d="M159.78,337.87l.09,0,.26-.14,1-.55.72-.4.82-.52c.58-.38,1.27-.78,2-1.29,2.93-1.95,6.82-4.87,11-8.24s7.86-6.53,10.49-8.85c1.33-1.16,2.38-2.11,3.11-2.77l.83-.77.21-.21a.36.36,0,0,0,.07-.07l-.08.06-.23.19-.85.74L186,317.73c-2.66,2.29-6.35,5.45-10.53,8.81s-8,6.3-10.94,8.28c-.71.51-1.39.92-2,1.31l-.81.53-.71.42-1,.58-.25.15Z" style="fill:#263238"></path></g><g id="freepik--photo-album--inject-21"><path d="M133.29,113V417.27a9.56,9.56,0,0,0,9.49,9.82l223.8-4.56s4.43,10.91,16.24,11.69,20.67-11.69,20.67-11.69l210.8,5.8c8.68.24,15.85-7.13,15.85-16.29V119.44c0-9-6.92-16.3-15.45-16.3H142.6A9.57,9.57,0,0,0,133.29,113Z" style="fill:#2CB252"></path><g style="opacity:0.30000000000000004"><path d="M150.31,412h7.87v7.84l216.92-3.8s2.95,9.72,9.93,8.88,8.26-8,8.26-8l224,3-6-279-457,94.75Z"></path></g><g style="opacity:0.30000000000000004"><path d="M133.29,188.57s-9.71,37.2-7.5,57.07,7.5,110.06,7.5,110.06Z"></path></g><g style="opacity:0.2"><path d="M630.14,193.58s8.42,60.67,6.91,107-6.91,52.23-6.91,52.23Z"></path></g><polygon points="385.03 413.9 611.35 413.9 611.35 122.86 381.81 111.3 385.03 413.9" style="fill:#e0e0e0"></polygon><path d="M501.29,373.26a455.14,455.14,0,0,0-81.42.56V279.55c25.75-4.44,57.15-5.69,81.2-3.2Z" style="fill:#f5f5f5"></path><path d="M611.35,413.89s-90.43-47.38-226.32,0L381.81,111.3s73.55-14,115-14c49.64,0,114.52,14,114.52,14Z" style="fill:#fff"></path><path d="M611.35,413.89c0-2.06-.1-123.16-.24-302.61l.19.23c-8.47-1.78-17.14-3.37-26-4.89s-17.8-2.93-26.93-4.16-18.42-2.35-27.85-3.18c-4.71-.47-9.47-.75-14.25-1.1s-9.6-.52-14.44-.53a276.14,276.14,0,0,0-29.36,1.08c-9.87.83-19.82,1.92-29.84,3.21-20,2.62-40.33,5.83-60.81,9.61l.21-.25h0c1.18,112.47,2.28,216.81,3.18,302.59l-.29-.2a372.67,372.67,0,0,1,92.93-20,312.91,312.91,0,0,1,72.88,2.54,251.44,251.44,0,0,1,45.36,11.27c5.08,1.81,8.89,3.41,11.42,4.54s3.8,1.82,3.8,1.82-1.28-.65-3.82-1.76-6.36-2.69-11.44-4.48a252.71,252.71,0,0,0-45.36-11.14,312.92,312.92,0,0,0-72.81-2.44,373,373,0,0,0-92.82,20l-.28.1v-.3c-.93-85.78-2.06-190.12-3.27-302.59v-.24l.21,0q30.75-5.67,60.85-9.61c10-1.29,20-2.38,29.85-3.21a274.54,274.54,0,0,1,29.42-1.08c4.85,0,9.67.33,14.46.54s9.55.63,14.26,1.1c9.44.83,18.73,2,27.87,3.2s18.13,2.65,26.95,4.16,17.49,3.13,26,4.91l.18,0v.19C611.44,290.73,611.35,411.83,611.35,413.89Z" style="fill:#263238"></path><path d="M590.92,261.4c-59.12-4.48-116.3-4.84-171,0V138.88c59.12-5.67,116.31-6.13,171,0Z" style="fill:#e0e0e0"></path><path d="M547.06,129l-35.87-.75a945.22,945.22,0,0,0-95.84,4.83l.12-.13c0,38.28,0,83.89,0,133.35l-.16-.15c15.9-1.44,32.59-2.5,49.61-3.12a1162.39,1162.39,0,0,1,131.75,3.13l-.15.14c0-55.16,0-101.39.06-133.35l.07.09c-15.76-1.81-28.18-2.7-36.64-3.26l-13-.78s4.51.17,13,.69,20.88,1.4,36.65,3.18h.07V133c0,32,0,78.19.06,133.35v.15h-.15A1167.1,1167.1,0,0,0,465,263.38c-17,.62-33.7,1.67-49.6,3.1l-.16,0v-.17c0-49.46,0-95.07,0-133.35v-.11h.12a940.36,940.36,0,0,1,95.86-4.73Z" style="fill:#263238"></path><polygon points="579.44 128.03 601.22 151.1 601.22 128.32 579.44 128.03" style="fill:#263238"></polygon><path d="M438.21,379.28a16.5,16.5,0,0,1-2.53,0c-1.55,0-3.69,0-6.06.15s-4.48.43-6,.65a15.15,15.15,0,0,1-2.51.31,10.14,10.14,0,0,1,2.44-.67,46.59,46.59,0,0,1,12.17-.8A10,10,0,0,1,438.21,379.28Z" style="fill:#263238"></path><path d="M593.37,381.55c0,.15-5-.3-11.23-1S571,379.18,571,379s5,.31,11.22,1S593.38,381.41,593.37,381.55Z" style="fill:#263238"></path><rect x="507.14" y="285.49" width="96.61" height="77.24" transform="translate(217.3 871.12) rotate(-88.54)" style="fill:#fafafa"></rect><path d="M518.07,274.84v.46c0,.32,0,.77,0,1.36,0,1.21-.06,3-.1,5.25-.11,4.59-.25,11.29-.44,19.77-.4,17-1,41.08-1.65,69.74l-.25-.26,77.21,1.94h0l-.29.27c.93-35.75,1.79-69,2.51-96.57l.22.23-56-1.54L523.63,275l-4.13-.13-1.43-.06s.46,0,1.38,0l4.09.07,15.6.34,56.15,1.31h.23v.24c-.69,27.59-1.52,60.82-2.41,96.58v.28h-.28l-77.21-2h-.25v-.25c.78-28.73,1.44-52.89,1.9-69.9.25-8.46.44-15.13.57-19.71.07-2.26.13-4,.16-5.2,0-.57,0-1,0-1.32S518.07,274.84,518.07,274.84Z"></path><rect x="510.53" y="290.42" width="89.82" height="67.51" transform="translate(217.23 871.18) rotate(-88.54)" style="fill:#ebebeb"></rect><polygon points="520.55 368.21 542.78 312.49 558.31 352.5 571.01 333.77 588.04 369.93 520.55 368.21" style="fill:#e0e0e0"></polygon><path d="M568.44,296a7.07,7.07,0,1,1-7.07-7.07A7.06,7.06,0,0,1,568.44,296Z" style="fill:#e0e0e0"></path><rect x="419.19" y="273.86" width="77.24" height="96.61" transform="translate(-4.88 7.04) rotate(-0.88)" style="fill:#fafafa"></rect><path d="M418.45,274.46s0,.16,0,.46,0,.77,0,1.36c0,1.2.06,3,.11,5.25.09,4.59.21,11.29.37,19.77.29,17,.7,41.08,1.19,69.75l-.25-.25,77.22-1.21h0l-.28.29c-.53-35.77-1-69-1.43-96.6l.24.23-56,.73-15.65.18-4.13,0c-.94,0-1.44,0-1.44,0s.47,0,1.39,0l4.08-.09,15.6-.3,56.16-1h.23v.23c.43,27.6,1,60.84,1.52,96.6v.28h-.29l-77.22,1.16h-.25v-.25c-.39-28.74-.71-52.91-.94-69.92-.1-8.46-.18-15.14-.24-19.72,0-2.26,0-4-.05-5.2v-1.76Z"></path><rect x="424.05" y="277.32" width="67.51" height="89.82" transform="translate(-4.88 7.04) rotate(-0.88)" style="fill:#e0e0e0"></rect><polygon points="431.98 268.16 410.2 246.3 410.2 270.02 431.98 268.16" style="fill:#263238"></polygon><rect x="163.15" y="132.22" width="221.89" height="281.69" style="fill:#e0e0e0"></rect><path d="M385.06,413.93H163.12V132.19H385.06Zm-221.89-.05H385V132.24H163.17Z" style="fill:#263238"></path><path d="M155.08,405.72,153.74,102.4c72.39-19.57,144.39-8.81,227.21,8.88L385,413.91C311.91,391,235.42,387.3,155.08,405.72Z" style="fill:#ebebeb"></path><path d="M155.08,405.72l4.15-.91c2.74-.57,6.77-1.51,12.08-2.57,10.65-2,26.35-4.8,46.6-6.63l7.8-.62c1.33-.1,2.68-.24,4-.31l4.16-.2,8.62-.4c2.94-.13,5.94-.1,9-.16s6.2-.15,9.4,0l9.76.21c1.66,0,3.33.11,5,.21l5.1.28,5.2.28c1.74.08,3.49.29,5.27.44a404.17,404.17,0,0,1,44.92,6.14A442.2,442.2,0,0,1,385.1,413.7l-.28.21c-1.17-85.62-2.59-189.46-4.11-301.33l0-1.29.2.25c-40.38-8.62-80-16.05-118.44-18.47a375,375,0,0,0-56.26.42,302.15,302.15,0,0,0-52.39,9.14l.17-.23c.66,179.85,1.1,301.26,1.11,303.32,0-2.06-.64-123.46-1.57-303.32v-.18l.18,0A303,303,0,0,1,206.14,93a376.06,376.06,0,0,1,56.34-.43C301,95,340.61,102.41,381,111l.21,0v.21c0,.43,0,.86,0,1.3,1.49,111.86,2.88,215.71,4,301.32v.3l-.28-.09a443.47,443.47,0,0,0-48.83-12.29,408.27,408.27,0,0,0-44.87-6.18c-1.77-.14-3.52-.35-5.27-.44l-5.19-.29-5.1-.28c-1.68-.1-3.35-.2-5-.22l-9.76-.21c-3.19-.13-6.32,0-9.38,0s-6.08,0-9,.15l-8.61.39-4.16.18c-1.37.08-2.72.21-4.05.31l-7.8.61c-20.24,1.79-35.94,4.56-46.6,6.51Z" style="fill:#263238"></path><path d="M385,413.91s-72-60.3-213.37-39.35V72.77s133.43-20.51,210.09,38.51Z" style="fill:#f5f5f5"></path><path d="M385,413.91c0-2.09-1.44-123.63-3.52-302.62l.09.18-5-3.62c-.85-.61-1.67-1.23-2.54-1.82l-2.64-1.67c-1.77-1.11-3.51-2.28-5.32-3.34l-5.54-3.1a187,187,0,0,0-23.48-10.64L334,86.11l-3.11-1c-2.09-.69-4.16-1.42-6.27-2.08-4.24-1.24-8.49-2.54-12.84-3.58s-8.73-2.05-13.14-3S289.73,74.65,285.2,74a377.44,377.44,0,0,0-55.75-4.38q-14.25-.12-28.72.69c-9.64.55-19.34,1.38-29,2.72l.22-.25v1.38c0,112.07,0,215.9,0,300.41l-.25-.21c33.34-4.92,64.3-5.44,91.33-2.8a292.4,292.4,0,0,1,68.39,14.69A220.87,220.87,0,0,1,372,405c4.42,2.66,7.68,4.89,9.84,6.45s3.18,2.46,3.18,2.46-1.06-.87-3.22-2.41-5.44-3.75-9.87-6.39a222.81,222.81,0,0,0-40.67-18.64,293.08,293.08,0,0,0-68.35-14.58c-27-2.61-57.93-2.06-91.22,2.88l-.25,0v-.25c0-84.51,0-188.34,0-300.41V72.54l.22,0c9.72-1.35,19.43-2.18,29.08-2.73s19.24-.77,28.76-.69a378.49,378.49,0,0,1,55.82,4.4c4.53.66,9,1.55,13.46,2.39s8.84,1.86,13.17,3,8.61,2.35,12.86,3.6c2.11.66,4.19,1.39,6.28,2.08l3.12,1.06,3.06,1.17A186.62,186.62,0,0,1,360.77,97.5l5.55,3.1c1.82,1.07,3.57,2.25,5.34,3.36l2.65,1.68c.86.59,1.7,1.21,2.54,1.82,1.69,1.21,3.37,2.43,5,3.64l.09.06v.12C383.79,290.28,385,411.82,385,413.91Z" style="fill:#263238"></path><polygon points="333.72 224.86 352.9 338.85 201.99 361.51 182.81 247.53 333.72 224.86" style="fill:#ebebeb"></polygon><path d="M333.72,224.86,333,225l-2.11.34-8.2,1.27-30.87,4.74L182.87,247.9l.33-.43c5.73,33.92,12.29,72.81,19.23,114v0l-.51-.35,150.92-22.6-.31.4c-5.69-34.33-10.42-62.8-13.72-82.7-1.63-10-2.91-17.77-3.79-23.12-.43-2.66-.76-4.7-1-6.1s-.31-2.12-.31-2.12.14.68.38,2,.6,3.4,1.06,6c.92,5.32,2.26,13.1,4,23,3.4,19.94,8.26,48.46,14.13,82.86l.06.34-.36.06-150.9,22.73-.44.07-.07-.41h0c-6.91-41.16-13.44-80.06-19.13-114l-.06-.37.39-.05L292,230.94l30.82-4.53,8.13-1.18,2.08-.29Z" style="fill:#263238"></path><polygon points="205.99 353.55 346.29 332.48 329.52 232.85 189.22 253.92 205.99 353.55" style="fill:#2CB252"></polygon><g style="opacity:0.30000000000000004"><polygon points="205.99 353.55 244.57 284.26 281.45 318.45 298.55 294.64 346.29 332.48 205.99 353.55"></polygon></g><g style="opacity:0.30000000000000004"><path d="M286.53,270.18c1,5.76-3.18,11.18-9.29,12.1s-11.83-3-12.8-8.78,3.19-11.18,9.29-12.1S285.57,264.42,286.53,270.18Z"></path></g><polygon points="327.97 103.9 324.42 205.74 190.07 198.69 193.62 96.84 327.97 103.9" style="fill:#ebebeb"></polygon><path d="M328,103.9l-.65,0-1.89-.08-7.3-.34-27.51-1.36-97-4.93.36-.31c-1.05,30.31-2.25,65.06-3.51,101.83v0l-.38-.39,134.35,7.12-.34.29c1.14-30.67,2.09-56.08,2.75-73.86.34-8.89.62-15.86.8-20.64.1-2.37.18-4.19.23-5.44s.1-1.89.1-1.89,0,.61,0,1.82-.08,3-.15,5.39c-.15,4.77-.36,11.72-.63,20.58-.58,17.83-1.42,43.32-2.42,74.07v.31l-.32,0-134.36-7-.39,0,0-.37h0c1.29-36.77,2.52-71.52,3.59-101.83v-.33l.35,0,97.23,5.27,27.42,1.53,7.23.42,1.85.12Z" style="fill:#263238"></path><polygon points="194.92 192.52 319.83 199.08 322.94 110.06 198.03 103.5 194.92 192.52" style="fill:#455a64"></polygon><g style="opacity:0.30000000000000004"><polygon points="194.92 192.52 240.48 139.47 266.3 175.51 285.27 157.97 319.83 199.08 194.92 192.52"></polygon></g><g style="opacity:0.30000000000000004"><path d="M279.21,134.72a9.39,9.39,0,0,1-10.16,8.81,9.81,9.81,0,0,1-9.51-9.85,9.39,9.39,0,0,1,10.17-8.8A9.79,9.79,0,0,1,279.21,134.72Z"></path></g><path d="M222.1,351.34V47.24S298,39.18,381.81,111.3L385,413.91S337.32,349.73,222.1,351.34Z" style="fill:#fafafa"></path><path d="M222.1,351.34h7.17c1.57,0,3.38,0,5.44.07l6.92.26c2.54.09,5.32.36,8.32.56,6,.46,12.91,1.28,20.63,2.48a256.56,256.56,0,0,1,25.35,5.53,217,217,0,0,1,29,10.32A194.07,194.07,0,0,1,355.8,387.6,165.87,165.87,0,0,1,371,399.33a114,114,0,0,1,14.16,14.45l-.37.13c-.88-81.28-2-186.61-3.27-301.3,0-.44,0-.88,0-1.31l.09.2a312.43,312.43,0,0,0-37.07-27.38c-1.58-1.05-3.24-2-4.85-3s-3.23-2-4.88-2.87c-3.3-1.82-6.55-3.68-9.9-5.35s-6.68-3.32-10-4.93c-1.68-.78-3.39-1.5-5.07-2.26l-2.53-1.11-2.56-1c-6.79-2.82-13.67-5.27-20.58-7.37s-13.84-3.9-20.78-5.3a194.2,194.2,0,0,0-20.77-3.08,125.7,125.7,0,0,0-20.5-.37l.21-.24c-.14,178.27-.24,301.91-.24,304.1,0-2.19-.1-125.83-.24-304.1V47h.22a125.58,125.58,0,0,1,20.59.36,195.29,195.29,0,0,1,20.83,3.08q10.44,2.12,20.83,5.3c6.93,2.11,13.82,4.57,20.62,7.39l2.57,1,2.53,1.11c1.69.76,3.4,1.48,5.08,2.27,3.35,1.6,6.74,3.17,10.05,4.93s6.61,3.54,9.92,5.37c1.65.9,3.25,1.91,4.88,2.87s3.28,1.91,4.86,3A313.79,313.79,0,0,1,382,111.1l.09.08v.12c0,.43,0,.87,0,1.31,1.2,114.68,2.31,220,3.16,301.29v.59l-.37-.46a113.15,113.15,0,0,0-14.09-14.41,165.58,165.58,0,0,0-15.19-11.72,194.69,194.69,0,0,0-30.79-17.06,218,218,0,0,0-28.94-10.34,256.62,256.62,0,0,0-25.32-5.58c-7.7-1.21-14.6-2.05-20.6-2.53-3-.2-5.77-.48-8.32-.59l-6.91-.28c-2.06-.12-3.89-.09-5.46-.11l-3.95,0Z" style="fill:#263238"></path><polygon points="363.22 93.85 360.11 195.7 242.71 188.64 245.82 86.79 363.22 93.85" style="fill:#fafafa"></polygon><path d="M363.22,93.85h-.57L361,93.76l-6.38-.35-24-1.35-84.77-4.94.31-.31c-.91,30.32-2,65.07-3.07,101.84h0l-.33-.39,117.4,7.12-.29.29c1-30.66,1.82-56.08,2.4-73.86.3-8.89.54-15.86.7-20.64.09-2.37.15-4.19.2-5.44s.09-1.89.09-1.89,0,.61,0,1.83-.07,3-.13,5.39c-.13,4.76-.32,11.71-.55,20.58l-2.12,74.06V196l-.29,0-117.4-7-.34,0v-.37h0c1.14-36.77,2.21-71.52,3.14-101.83v-.34l.31,0,85,5.28,24,1.53,6.32.41,1.61.12Z" style="fill:#263238"></path><polygon points="246.95 182.47 356.11 189.03 358.82 100.01 249.67 93.45 246.95 182.47" style="fill:#ebebeb"></polygon><polygon points="246.95 182.47 286.76 129.43 309.33 165.47 325.91 147.92 356.11 189.03 246.95 182.47" style="fill:#e0e0e0"></polygon><path d="M320.61,124.67c-.15,5.15-4.13,9.1-8.88,8.81s-8.46-4.69-8.31-9.84,4.14-9.1,8.88-8.81S320.77,119.52,320.61,124.67Z" style="fill:#e0e0e0"></path><polygon points="372.11 241.74 361.91 343.12 245.29 327.89 255.49 226.51 372.11 241.74" style="fill:#fafafa"></polygon><path d="M372.11,241.74s-.2,0-.57-.06l-1.63-.19-6.34-.79-23.89-3-84.22-10.83.33-.29c-3,30.17-6.49,64.77-10.16,101.37h0l-.3-.41,116.61,15.29-.31.27c3.13-30.52,5.73-55.82,7.54-73.51.93-8.84,1.65-15.78,2.14-20.54q.39-3.54.58-5.42c.14-1.22.22-1.87.22-1.87s0,.61-.15,1.82-.29,3-.51,5.37c-.46,4.74-1.13,11.66-2,20.49-1.75,17.74-4.25,43.12-7.27,73.73l0,.31-.28,0L245.25,328.26l-.34-.05,0-.37h0c3.7-36.6,7.19-71.19,10.24-101.36l0-.33.3,0,84.39,11.19,23.8,3.19,6.27.86,1.6.23C371.94,241.7,372.11,241.74,372.11,241.74Z" style="fill:#263238"></path><polygon points="249.95 322.03 358.38 336.19 367.3 247.57 258.87 233.41 249.95 322.03" style="fill:#ebebeb"></polygon><polygon points="249.95 322.03 293.37 271.89 313.36 309.42 331.12 293.07 358.38 336.19 249.95 322.03" style="fill:#e0e0e0"></polygon><path d="M327.46,269.51c-.51,5.13-4.75,8.78-9.47,8.17s-8.12-5.27-7.6-10.4,4.75-8.78,9.47-8.17S328,264.38,327.46,269.51Z" style="fill:#e0e0e0"></path><path d="M385,413.91,381.81,111.3a69.35,69.35,0,0,0-2-9.24,96.29,96.29,0,0,0-53.48-61.9L295.77,26.4V329.06S373.45,338.87,385,413.91Z" style="fill:#fff"></path><path d="M385,413.91l-.43-2.27-.55-2.82-.36-1.83c-.16-.64-.34-1.32-.52-2.05a92.9,92.9,0,0,0-9.49-24.37,89.8,89.8,0,0,0-10.87-15.49A96.74,96.74,0,0,0,346.12,350a110.57,110.57,0,0,0-10.57-6.75,125.89,125.89,0,0,0-25.3-10.66,104.22,104.22,0,0,0-14.5-3.34l-.17,0v-.16c0-77.42,0-183.47-.07-300.34V26l.37.16,30.27,13.63a109.73,109.73,0,0,1,14.32,7.88,107.11,107.11,0,0,1,12.64,10,94.75,94.75,0,0,1,28.95,53.59h0v0c1.73,175.76,2.95,300.28,3,302.61,0-2.33-1.45-126.85-3.47-302.61v0a94.26,94.26,0,0,0-28.8-53.28,107,107,0,0,0-12.58-9.95,109.71,109.71,0,0,0-14.24-7.84L295.66,26.64l.37-.24v2.32c0,116.87,0,222.92-.07,300.34l-.17-.19a106.66,106.66,0,0,1,14.56,3.37A127.33,127.33,0,0,1,335.71,343a112.41,112.41,0,0,1,10.59,6.79A97.11,97.11,0,0,1,363,364.92a89.47,89.47,0,0,1,10.86,15.55,92,92,0,0,1,9.41,24.45l.51,2.05c.12.65.23,1.25.34,1.81.2,1.12.36,2.05.5,2.81C384.88,413.07,385,413.73,385,413.91Z" style="fill:#263238"></path><path d="M318.65,307.06l-.53-94.1s35.83,11.9,54,45.32l.67,83.78S353.43,315.54,318.65,307.06Z" style="fill:#f5f5f5"></path><path d="M318.65,307.06l24.85-28,9.93,20.07,10.11-14.46,9.24,57.36S357.58,317.67,318.65,307.06Z" style="fill:#ebebeb"></path><path d="M354,265.57c0,3-1.46,5.46-3.26,5.46s-3.25-2.44-3.25-5.46,1.45-5.45,3.25-5.45S354,262.56,354,265.57Z" style="fill:#ebebeb"></path><path d="M315.6,308.24l1.29.34,3.72,1a62,62,0,0,1,5.9,2c2.35.76,4.89,2.05,7.8,3.34a114.08,114.08,0,0,1,19.44,12.27l1.34,1,1.31,1.1,2.69,2.26c1.74,1.61,3.59,3.21,5.35,5A106.5,106.5,0,0,1,375,348.45l-.38.13c0-25.75,0-56.82-.05-90.43l0,.11c-.57-1.11-1.16-2.26-1.77-3.43l-2-3.48a94.56,94.56,0,0,0-25.05-27.09,109.82,109.82,0,0,0-14.88-9.21,94.46,94.46,0,0,0-15.33-6.37l.3-.23c0,29.47-.09,54.39-.12,72,0,8.78,0,15.73-.06,20.49,0,2.37,0,4.2,0,5.45,0,.61,0,1.08,0,1.41s0,.48,0,.48,0-.15,0-.46,0-.78,0-1.38c0-1.24,0-3.06,0-5.41,0-4.75,0-11.68-.07-20.45,0-17.6-.06-42.56-.11-72.09v-.32l.3.09a95,95,0,0,1,15.43,6.39,110.22,110.22,0,0,1,15,9.24,95.07,95.07,0,0,1,25.2,27.23l2,3.5c.61,1.18,1.2,2.34,1.78,3.45l0,.05v.07c0,33.61,0,64.68-.05,90.43v.64l-.38-.52a108.49,108.49,0,0,0-10.45-11.8c-1.76-1.78-3.59-3.39-5.33-5l-2.67-2.25-1.3-1.1-1.33-1A115.17,115.17,0,0,0,334.2,315.2c-2.9-1.3-5.42-2.6-7.75-3.39s-4.24-1.66-5.89-2.08l-3.71-1.1C316,308.38,315.6,308.24,315.6,308.24Z" style="fill:#263238"></path><path d="M318.12,175.51l.62-95.18S354,91.94,373.23,127.4l-.32,83.66S352.91,184,318.12,175.51Z" style="fill:#f5f5f5"></path><path d="M318.12,175.51l25.38-28.23,9.93,20.06,10.11-14.45,9.37,58.17S356.2,184.39,318.12,175.51Z" style="fill:#ebebeb"></path><path d="M354,133.76c0,3-1.46,5.46-3.26,5.46s-3.25-2.45-3.25-5.46,1.45-5.46,3.25-5.46S354,130.74,354,133.76Z" style="fill:#ebebeb"></path><path d="M315.6,176.42s.45.11,1.29.35l3.72,1a61.6,61.6,0,0,1,5.9,2c2.35.77,4.89,2.06,7.8,3.34a114.71,114.71,0,0,1,19.44,12.27l1.34,1,1.31,1.1,2.69,2.25c1.74,1.61,3.59,3.21,5.35,5A107.54,107.54,0,0,1,375,216.64l-.38.12c0-25.75,0-56.82-.05-90.43l0,.11L372.79,123c-.65-1.15-1.32-2.31-2-3.48a94.6,94.6,0,0,0-25.05-27.1,110.83,110.83,0,0,0-14.88-9.21,95.36,95.36,0,0,0-15.33-6.37l.3-.22c0,29.46-.09,54.38-.12,72,0,8.79,0,15.73-.06,20.5,0,2.37,0,4.19,0,5.44,0,.61,0,1.08,0,1.41s0,.48,0,.48,0-.15,0-.46,0-.78,0-1.38c0-1.24,0-3.05,0-5.41,0-4.75,0-11.68-.07-20.45,0-17.6-.06-42.56-.11-72.08v-.32l.3.09a94,94,0,0,1,15.43,6.38,111.23,111.23,0,0,1,15,9.24,95.11,95.11,0,0,1,25.2,27.24l2,3.5c.61,1.18,1.2,2.33,1.78,3.44l0,.06v.06c0,33.61,0,64.68-.05,90.43v.64l-.38-.51a107.55,107.55,0,0,0-10.45-11.8c-1.76-1.79-3.59-3.39-5.33-5l-2.67-2.26-1.3-1.1-1.33-1a115.81,115.81,0,0,0-19.34-12.32c-2.9-1.3-5.42-2.6-7.75-3.39s-4.24-1.66-5.89-2.08l-3.71-1.1C316,176.56,315.6,176.42,315.6,176.42Z" style="fill:#263238"></path><path d="M351.54,335.37a8.81,8.81,0,0,1-1.24-.92c-.77-.63-1.91-1.5-3.34-2.55a78.74,78.74,0,0,0-24.71-12.18c-1.7-.5-3.09-.87-4.06-1.1a8,8,0,0,1-1.49-.42,9.69,9.69,0,0,1,1.53.23c1,.17,2.39.48,4.12.93a70.73,70.73,0,0,1,24.84,12.24c1.4,1.09,2.51,2,3.24,2.69A7.85,7.85,0,0,1,351.54,335.37Z" style="fill:#263238"></path><path d="M343.73,195a4.31,4.31,0,0,1-1-.49L340,193c-2.27-1.22-5.46-2.84-9.06-4.44s-6.95-2.85-9.39-3.71l-2.89-1a4.17,4.17,0,0,1-1.05-.42,5.07,5.07,0,0,1,1.11.23c.7.18,1.71.47,2.95.85a93.45,93.45,0,0,1,9.48,3.59,92.37,92.37,0,0,1,9,4.59c1.12.65,2,1.21,2.62,1.61A4.6,4.6,0,0,1,343.73,195Z" style="fill:#263238"></path><g style="opacity:0.2"><path d="M295.77,59.83l-7.58,281.38s73.83,2,96.84,72.7c0,0-5.2-69.06-89.26-84.85Z"></path></g><g style="opacity:0.2"><path d="M222.1,69.34,211.79,356.18s85.7-.11,139.75,28.81c0,0-58.9-39.62-129.44-33.65Z"></path></g><g style="opacity:0.2"><path d="M180.35,384.9s122.44-18.75,191.76,20.23c0,0-80.75-52.3-200.45-30.57Z"></path></g><path d="M473.23,296.91a9.69,9.69,0,0,0-9.39-9.19h-.5c-5.42.15-8.31,4.84-8,10.25l.37,19.71,12.36,1.39.07-3.93s5.21-.65,5.43-5.85C473.68,306.77,473.47,301.59,473.23,296.91Z" style="fill:#ffbe9d"></path><path d="M468.14,315.13a12.08,12.08,0,0,1-6.71-2.12s1.49,3.78,6.68,3.47Z" style="fill:#eb996e"></path><path d="M470.93,300.59a.75.75,0,0,1-.74.73.71.71,0,0,1-.74-.7.73.73,0,0,1,.73-.72A.71.71,0,0,1,470.93,300.59Z" style="fill:#263238"></path><path d="M472.12,299.14c-.09.1-.64-.34-1.44-.36s-1.39.36-1.48.26.06-.21.32-.39a2,2,0,0,1,1.19-.33,1.93,1.93,0,0,1,1.14.41C472.09,298.92,472.17,299.1,472.12,299.14Z" style="fill:#263238"></path><path d="M463.52,300.52a.75.75,0,0,1-.74.73.71.71,0,0,1-.74-.69.75.75,0,0,1,.74-.73A.7.7,0,0,1,463.52,300.52Z" style="fill:#263238"></path><path d="M464.18,298.69c-.09.1-.68-.27-1.48-.2s-1.35.51-1.44.41,0-.22.27-.42a2,2,0,0,1,1.15-.46,2.06,2.06,0,0,1,1.18.28C464.12,298.47,464.22,298.64,464.18,298.69Z" style="fill:#263238"></path><path d="M466.91,305.34a5,5,0,0,1,1.3-.2c.21,0,.4-.05.44-.19a1.06,1.06,0,0,0-.12-.6c-.17-.5-.36-1-.55-1.57a26.3,26.3,0,0,1-1.24-4.1,26.29,26.29,0,0,1,1.56,4c.19.55.37,1.07.53,1.58a1.19,1.19,0,0,1,.09.8.53.53,0,0,1-.35.29,2.38,2.38,0,0,1-.34,0A6.11,6.11,0,0,1,466.91,305.34Z" style="fill:#263238"></path><path d="M464.55,305.82c.13,0,.1.86.83,1.5s1.64.57,1.65.69-.21.16-.6.16a2.14,2.14,0,0,1-1.38-.52,1.81,1.81,0,0,1-.64-1.26C464.38,306,464.49,305.82,464.55,305.82Z" style="fill:#263238"></path><path d="M464.15,296.05c-.06.23-.86.17-1.79.33s-1.68.46-1.81.27.06-.3.35-.52a3,3,0,0,1,1.32-.55,3.08,3.08,0,0,1,1.43.09C464,295.79,464.18,296,464.15,296.05Z" style="fill:#263238"></path><path d="M471.81,297.09c-.14.18-.69,0-1.35,0s-1.22.09-1.35-.11,0-.27.29-.44a1.9,1.9,0,0,1,1.11-.26,1.87,1.87,0,0,1,1.07.4C471.81,296.82,471.88,297,471.81,297.09Z" style="fill:#263238"></path><path d="M455.65,301.82c-.08,0-3.54-1.16-3.53,2.39s3.58,2.81,3.59,2.71S455.65,301.82,455.65,301.82Z" style="fill:#ffbe9d"></path><path d="M454.62,305.58s-.06,0-.17.09a.59.59,0,0,1-.46,0,1.5,1.5,0,0,1-.71-1.37,2,2,0,0,1,.17-.89.71.71,0,0,1,.46-.48.33.33,0,0,1,.37.17c0,.1,0,.17,0,.18s.08-.06.05-.21a.45.45,0,0,0-.14-.22.49.49,0,0,0-.34-.09.86.86,0,0,0-.65.55,2.16,2.16,0,0,0-.21,1,1.6,1.6,0,0,0,.91,1.53.65.65,0,0,0,.56-.1C454.61,305.66,454.63,305.59,454.62,305.58Z" style="fill:#eb996e"></path><path d="M474,290.86a1.8,1.8,0,0,0-1.32-1.49,1.61,1.61,0,0,0-2.47-1.95,1.66,1.66,0,0,0-2.22-1.55,1.4,1.4,0,0,0-2.6-.85,2.42,2.42,0,0,0-3.75-.41,3.08,3.08,0,0,0-3.79,1.54,2.93,2.93,0,0,0-2.64,1.94,2.15,2.15,0,0,0-1.69,3.31,1.58,1.58,0,0,0-.4,2.49,1.61,1.61,0,0,0-.91,1.4,1.58,1.58,0,0,0,.87,1.42c-.53.05-.75.74-.61,1.24a13.34,13.34,0,0,0,.7,1.42c.15.4.19.84.32,1.26a2.86,2.86,0,0,0,1.63,1.72l-.1.1c-.1.46.52.79,1,.62a2.25,2.25,0,0,0,.94-1,4.89,4.89,0,0,0,.79-1.38,1.23,1.23,0,0,0-.45-1.41,1.85,1.85,0,0,0,1.17-1.43,5.45,5.45,0,0,0-.05-1.93l-.42-2.83a3.53,3.53,0,0,0,3.12-1.92,2,2,0,0,0,3-.64,2.65,2.65,0,0,0,3.17,1.73c-.16.73,1.14,1.46,1.86,1.67a2.58,2.58,0,0,0,1.64-.27s1.22.77,1.91.52,1.6-1.07,1.18-1.79A3.27,3.27,0,0,0,474,290.86Z" style="fill:#263238"></path><path d="M452.92,293.88a1.3,1.3,0,0,0,.34.47.7.7,0,0,0,.58.12.73.73,0,0,0,.51-.51l0-.21.16.15a1,1,0,0,0,1,.18,1,1,0,0,0,.58-.93l0-.21.19.09a.92.92,0,0,0,1.17-.36,2,2,0,0,0,.19-.51s.1.23-.06.59a1.06,1.06,0,0,1-.5.48,1.08,1.08,0,0,1-.9,0l.17-.12a1.18,1.18,0,0,1-.73,1.2,1.2,1.2,0,0,1-1.24-.25l.21-.06a.9.9,0,0,1-.71.65.78.78,0,0,1-.72-.21C452.85,294.16,452.9,293.86,452.92,293.88Z" style="fill:#455a64"></path><path d="M452.28,297.26a1.86,1.86,0,0,0,.38.16.84.84,0,0,0,.9-.35l.08-.12.09.11a1,1,0,0,0,.9.28.93.93,0,0,0,.69-.81l0-.23.19.13.16.08a.64.64,0,0,0,.72-.22.66.66,0,0,0,0-.71l-.12-.22.25.05a1.12,1.12,0,0,0,.82-.18,1.09,1.09,0,0,0,.42-.53,2.07,2.07,0,0,0,.1-.62.89.89,0,0,1,0,.67,1.26,1.26,0,0,1-.44.64,1.28,1.28,0,0,1-1,.25l.12-.18a.92.92,0,0,1,0,1,.91.91,0,0,1-1,.32.66.66,0,0,1-.24-.11l.22-.1a1.16,1.16,0,0,1-.91,1,1.15,1.15,0,0,1-1.11-.39h.17a.93.93,0,0,1-.59.39,1.08,1.08,0,0,1-.52,0C452.35,297.43,452.27,297.27,452.28,297.26Z" style="fill:#455a64"></path><path d="M467.51,285.75a1.58,1.58,0,0,0-.4-.24.72.72,0,0,0-.52,0,.77.77,0,0,0-.44.5l-.06.2L466,286a1.3,1.3,0,0,0-1.07-.65,1.26,1.26,0,0,0-1.2.86l-.08.23-.14-.2a1.56,1.56,0,0,0-1.21-.62,1.5,1.5,0,0,0-1.28.66,1.58,1.58,0,0,0-.24.57l0,.14-.14,0a1.51,1.51,0,0,0-1.72.74,1.54,1.54,0,0,0,.2,1.66l.14.15-.2,0a1.64,1.64,0,0,0-1.41,1.58,2.51,2.51,0,0,0,.16.87s-.06-.06-.13-.2a1.51,1.51,0,0,1-.15-.67,1.75,1.75,0,0,1,.3-1,1.83,1.83,0,0,1,1.2-.76l-.07.18a1.72,1.72,0,0,1,1.75-2.81l-.16.1a1.65,1.65,0,0,1,.28-.67,1.77,1.77,0,0,1,1.51-.78,1.84,1.84,0,0,1,1.4.75l-.22,0a1.48,1.48,0,0,1,1.45-1,1.45,1.45,0,0,1,1.21.78l-.15,0a.88.88,0,0,1,.56-.58.86.86,0,0,1,.6,0,.83.83,0,0,1,.29.22A.32.32,0,0,1,467.51,285.75Z" style="fill:#455a64"></path><path d="M488,366.32l-.77-12.6-2-20.64-9.09,9.35s3,23.21,3.65,23.45Z" style="fill:#ffbe9d"></path><polygon points="452.32 318.69 456.12 317.26 468.05 317.26 472.09 318.94 468.46 327.6 462.84 328.79 456.74 326.63 454.47 323.85 452.32 318.69" style="fill:#ffbe9d"></polygon><path d="M453.66,318.13s-8.76,3.62-10,4.16c-1.88.85-4.92,4.29-5.3,4.92a25.37,25.37,0,0,0-1,3.9,15.06,15.06,0,0,0-1.51,2.52c0,.38,8.89,8.32,8.89,8.32l1.07,14.66-1.78,9.69a333.1,333.1,0,0,1,35.8-.28l-1.38-24.7,7.82-7.81L485.17,331h0a12.9,12.9,0,0,0-6.76-8.95l-7.61-3.91s-.88,6.18-8.57,6.18S453.66,318.13,453.66,318.13Z" style="fill:#455a64"></path><path d="M439.69,326s0,0,.09.15l.22.43c.21.39.49.93.83,1.6a35.15,35.15,0,0,1,2.45,5.41,27.77,27.77,0,0,1,1.33,5.79c.08.76.1,1.38.11,1.8,0,.21,0,.38,0,.49s0,.17,0,.17,0-.06,0-.17l0-.49c0-.42-.06-1-.15-1.79a29,29,0,0,0-1.35-5.76,39.15,39.15,0,0,0-2.41-5.41c-.35-.68-.62-1.23-.8-1.62-.09-.19-.16-.34-.2-.44A1.37,1.37,0,0,1,439.69,326Z" style="fill:#263238"></path><path d="M479.24,329.22s0,0,0,.13l-.05.37c-.05.33-.12.79-.2,1.37-.16,1.15-.34,2.75-.45,4.53s-.12,3.38-.1,4.55c0,.58,0,1.05,0,1.38v.51s0-.05,0-.13l0-.38c0-.32-.05-.79-.07-1.38,0-1.16-.05-2.78.06-4.56s.3-3.38.49-4.53c.09-.58.17-1.05.23-1.37l.08-.36Z" style="fill:#263238"></path><path d="M483.79,327.24a.49.49,0,0,1-.05.11c-.05.07-.1.17-.17.28l-.64,1.05c-.53.89-1.24,2.14-2,3.53s-1.39,2.68-1.87,3.6c-.23.45-.43.82-.57,1.09l-.16.29-.06.1s0,0,0-.11l.14-.3.53-1.11c.46-.93,1.1-2.22,1.84-3.61s1.48-2.64,2-3.52c.28-.44.5-.79.67-1l.19-.28Z" style="fill:#263238"></path><path d="M471.25,318.89a3.89,3.89,0,0,1-.12,1,6.06,6.06,0,0,1-1.14,2.38,7.18,7.18,0,0,1-1.29,1.3,8.19,8.19,0,0,1-1.82,1,11.11,11.11,0,0,1-4.73.74,12,12,0,0,1-4.65-1.13,9,9,0,0,1-3.09-2.41,7.51,7.51,0,0,1-1.3-2.3,4.77,4.77,0,0,1-.25-.93.32.32,0,0,1,0,.06l.05.18c0,.08.05.17.09.29a3.54,3.54,0,0,0,.13.39,8.07,8.07,0,0,0,1.33,2.26,9,9,0,0,0,3.06,2.36,12.21,12.21,0,0,0,4.62,1.11,11.06,11.06,0,0,0,4.68-.73,7.81,7.81,0,0,0,1.8-1,7.45,7.45,0,0,0,1.29-1.28,6.4,6.4,0,0,0,1.16-2.33,4.18,4.18,0,0,0,.08-.41,2.32,2.32,0,0,0,.05-.3l0-.18A.42.42,0,0,0,471.25,318.89Z" style="fill:#263238"></path><path d="M473.09,356.18H473l-.22,0c-.2,0-.49,0-.86-.11a19.35,19.35,0,0,1-3.08-.72,23.47,23.47,0,0,1-4.3-1.86,31,31,0,0,1-4.74-3.24,47.31,47.31,0,0,1-4.18-3.94c-1.21-1.29-2.25-2.49-3.1-3.52s-1.54-1.86-2-2.44l-.54-.67-.13-.18-.05-.06.06.05.14.17.55.66,2,2.42c.87,1,1.91,2.21,3.12,3.49a48.71,48.71,0,0,0,4.18,3.93,31.46,31.46,0,0,0,4.71,3.23,24.27,24.27,0,0,0,4.28,1.88,21.17,21.17,0,0,0,3.06.76c.37.07.66.09.85.12l.22,0Z" style="fill:#263238"></path><path d="M435.91,322.18a5.56,5.56,0,0,0,2.89-1.56c.86-1.15,4.15-8.74,4.15-8.74s-.91-.63-2.05.61a34.07,34.07,0,0,0-2.32,3.17s.59-4.78.79-6.42c.18-1.44.36-3.63-.34-3.92s-1.1,2.49-1.51,3.63-.93,2.75-.93,2.75a50.82,50.82,0,0,0,.3-7.28c-.2-1.16-1.62-.73-1.66.62,0,0-.54-1.36-1.17-.38s-1.12,6.59-1.5,6.5-.25-4.69-.85-5.12c-.34-.24-.79.19-.88,1.36s-.69,10-.48,11.16a3,3,0,0,0,.7,1.66Z" style="fill:#ffbe9d"></path><path d="M426.09,338.63a195.41,195.41,0,0,1,5.38-20.5h6.73l-3.06,18.64,1.44-2.35,7,6.51s-5.21,7-7.71,8.25C427.88,353.28,424.85,344.81,426.09,338.63Z" style="fill:#ffbe9d"></path><path d="M437.05,324.89s0,.07,0,.2l-.1.59c-.09.53-.22,1.27-.38,2.17-.31,1.84-.77,4.37-1.13,7.18l-.12,1c0,.35-.07.69-.08,1,0,.16,0,.33,0,.49a3.88,3.88,0,0,0,0,.48,8.63,8.63,0,0,0,.21.91c.15.6.33,1.16.43,1.7a7.35,7.35,0,0,1-.24,3.69,4.07,4.07,0,0,1-.22.56,1.07,1.07,0,0,1-.09.19s0-.07.07-.2.12-.31.2-.56a7.72,7.72,0,0,0,.33-2.16,7.4,7.4,0,0,0-.15-1.5c-.1-.54-.28-1.09-.44-1.69-.08-.29-.16-.6-.22-.92,0-.16,0-.33,0-.5s0-.33,0-.5c0-.33.05-.67.08-1l.12-1c.36-2.82.83-5.35,1.17-7.18.17-.92.31-1.66.42-2.16l.12-.59,0-.15S437.05,324.89,437.05,324.89Z" style="fill:#eb996e"></path><path d="M436,318.36s-.1-.24-.28-.61a4.94,4.94,0,0,0-.93-1.29,5.46,5.46,0,0,0-1.29-.94c-.37-.18-.62-.26-.61-.28l.18,0a2.75,2.75,0,0,1,.46.17,4.44,4.44,0,0,1,1.35.92,4.73,4.73,0,0,1,.92,1.34,3.54,3.54,0,0,1,.17.47Q436,318.35,436,318.36Z" style="fill:#eb996e"></path><path d="M438,316.48s-.52.3-1.06.78a13.27,13.27,0,0,0-.91,1,3.17,3.17,0,0,1,.83-1.06A3,3,0,0,1,438,316.48Z" style="fill:#eb996e"></path><path d="M435.36,304.56s-.06,1.56-.22,3.48-.3,3.47-.34,3.47.07-1.56.22-3.48S435.33,304.56,435.36,304.56Z" style="fill:#eb996e"></path><path d="M535.91,176.54l-5.16,10-7.41,8.15-4.87-6.06-.33-6.32-.27-5.3s-7.09-.63-7.64-7.64c-.26-3.39-.24-10.4-.14-16.75a13.11,13.11,0,0,1,12.24-12.88l.67,0c7.33,0,11.47,6.14,11.32,13.47l1.59,23.41" style="fill:#ffbe9d"></path><path d="M517.86,177a16.32,16.32,0,0,0,9-3.2s-1.83,5.19-8.87,5Z" style="fill:#eb996e"></path><path d="M513.38,157.45a1,1,0,0,0,1,.94,1,1,0,0,0,1-1,1,1,0,0,0-1-.95A1,1,0,0,0,513.38,157.45Z" style="fill:#263238"></path><path d="M511.69,155.55c.13.12.86-.49,1.93-.56s1.91.42,2,.28-.09-.29-.45-.51a2.72,2.72,0,0,0-1.62-.39A2.61,2.61,0,0,0,512,155C511.72,155.25,511.63,155.5,511.69,155.55Z" style="fill:#263238"></path><path d="M523.39,157a1,1,0,0,0,1,.95,1,1,0,0,0,1-1,1,1,0,0,0-1-.95A1,1,0,0,0,523.39,157Z" style="fill:#263238"></path><path d="M522.41,154.54c.12.14.91-.39,2-.34s1.84.62,2,.49-.06-.29-.4-.56a2.77,2.77,0,0,0-1.57-.56,2.68,2.68,0,0,0-1.58.44C522.48,154.25,522.35,154.48,522.41,154.54Z" style="fill:#263238"></path><path d="M519,163.67a7.37,7.37,0,0,0-1.77-.2c-.28,0-.54-.05-.6-.23a1.41,1.41,0,0,1,.13-.83l.68-2.15a37.65,37.65,0,0,0,1.47-5.6,34.26,34.26,0,0,0-1.92,5.47c-.22.75-.44,1.47-.64,2.16a1.55,1.55,0,0,0-.07,1.09.69.69,0,0,0,.48.37,2,2,0,0,0,.47,0A7.08,7.08,0,0,0,519,163.67Z" style="fill:#263238"></path><path d="M522.26,164.21c-.17,0-.1,1.17-1,2.06s-2.2.85-2.19,1,.29.21.82.19a3,3,0,0,0,1.84-.78,2.59,2.59,0,0,0,.8-1.73C522.49,164.48,522.34,164.19,522.26,164.21Z" style="fill:#263238"></path><path d="M522.31,151c.1.3,1.18.18,2.45.36s2.28.54,2.45.28-.09-.41-.5-.7a4.11,4.11,0,0,0-1.81-.67,4,4,0,0,0-1.92.19C522.51,150.62,522.27,150.84,522.31,151Z" style="fill:#263238"></path><path d="M512,152.77c.21.23.93-.07,1.83-.14s1.66.05,1.81-.22-.06-.36-.41-.57a2.62,2.62,0,0,0-2.93.28C512,152.39,511.92,152.65,512,152.77Z" style="fill:#263238"></path><path d="M534.09,158.36c.11-.06,4.72-1.74,4.88,3.06s-4.69,4-4.71,3.84S534.09,158.36,534.09,158.36Z" style="fill:#ffbe9d"></path><path d="M535.67,163.39s.09.06.23.12a.91.91,0,0,0,.63,0,2.08,2.08,0,0,0,.89-1.89,2.82,2.82,0,0,0-.27-1.19,1,1,0,0,0-.65-.63.43.43,0,0,0-.49.25c-.06.14,0,.23,0,.24s-.11-.08-.07-.28a.47.47,0,0,1,.17-.3.65.65,0,0,1,.46-.14,1.16,1.16,0,0,1,.9.72,2.7,2.7,0,0,1,.34,1.32,2.19,2.19,0,0,1-1.15,2.12.89.89,0,0,1-.77-.1C535.68,163.51,535.65,163.4,535.67,163.39Z" style="fill:#eb996e"></path><path d="M508.77,144.45a2.45,2.45,0,0,1,1.71-2.08,2.19,2.19,0,0,1,3.25-2.77,2.25,2.25,0,0,1,2.92-2.2,2,2,0,0,1,1.24-2,2,2,0,0,1,2.24.76,3.27,3.27,0,0,1,5-.75,4.17,4.17,0,0,1,5.2,1.9,4,4,0,0,1,3.66,2.49,2.9,2.9,0,0,1,2.44,4.39,2.14,2.14,0,0,1,.67,3.35,2.11,2.11,0,0,1,.19,3.81c.71,0,1.06.95.89,1.65a20.93,20.93,0,0,1-.87,1.94c-.2.56-.23,1.16-.39,1.72a3.81,3.81,0,0,1-2.11,2.41l.14.14c.16.6-.67,1.08-1.26.88a3.18,3.18,0,0,1-1.33-1.29,7.13,7.13,0,0,1-1.13-1.83,1.67,1.67,0,0,1,.53-1.93,2.53,2.53,0,0,1-1.65-1.88,7.38,7.38,0,0,1,0-2.61c.14-1.28.29-2.56.43-3.84a4.82,4.82,0,0,1-4.32-2.45,2.74,2.74,0,0,1-4-.71A3.59,3.59,0,0,1,518,146c.26,1-1.46,2-2.42,2.35a3.59,3.59,0,0,1-2.23-.28s-1.61,1.1-2.55.79-2.22-1.37-1.69-2.36A4.44,4.44,0,0,1,508.77,144.45Z" style="fill:#263238"></path><path d="M537.39,147.49s0,.34-.43.65a.93.93,0,0,1-.78.19,1,1,0,0,1-.71-.66l-.08-.28-.21.21a1.31,1.31,0,0,1-1.3.29,1.27,1.27,0,0,1-.83-1.22v-.29l-.25.13a1.27,1.27,0,0,1-1,.06,1.33,1.33,0,0,1-.63-.48,3.55,3.55,0,0,1-.29-.69s-.12.31.12.79a1.43,1.43,0,0,0,.7.64,1.54,1.54,0,0,0,1.21,0l-.24-.16a1.61,1.61,0,0,0,1,1.58,1.6,1.6,0,0,0,1.66-.4l-.28-.07a1.23,1.23,0,0,0,1,.85,1.13,1.13,0,0,0,1-.31C537.5,147.86,537.42,147.47,537.39,147.49Z" style="fill:#455a64"></path><path d="M538.42,152s-.16.14-.5.23a1.14,1.14,0,0,1-1.24-.43l-.11-.16-.12.15a1.29,1.29,0,0,1-1.2.42,1.24,1.24,0,0,1-1-1.06l0-.31-.25.19a1,1,0,0,1-.21.11.86.86,0,0,1-1-.26.92.92,0,0,1-.11-.95l.16-.31-.33.08a1.53,1.53,0,0,1-1.13-.2,1.6,1.6,0,0,1-.59-.7,3.41,3.41,0,0,1-.16-.83,1.09,1.09,0,0,0,0,.9,1.67,1.67,0,0,0,.62.85,1.77,1.77,0,0,0,1.34.29l-.17-.23a1.25,1.25,0,0,0,.11,1.32,1.21,1.21,0,0,0,1.39.38,1.17,1.17,0,0,0,.31-.17l-.29-.12a1.56,1.56,0,0,0,1.27,1.35,1.54,1.54,0,0,0,1.48-.58h-.23a1.22,1.22,0,0,0,.82.5,1.33,1.33,0,0,0,.71-.07C538.34,152.27,538.44,152,538.42,152Z" style="fill:#455a64"></path><path d="M517.27,137.22a1.91,1.91,0,0,1,.52-.35,1.07,1.07,0,0,1,.71,0,1,1,0,0,1,.62.65l.09.27.13-.25a1.73,1.73,0,0,1,1.42-.93,1.7,1.7,0,0,1,1.66,1.1l.11.31.19-.28a2.1,2.1,0,0,1,1.6-.9,2,2,0,0,1,1.77.84,1.91,1.91,0,0,1,.35.75l0,.19.18-.06a2.07,2.07,0,0,1,2.36.92,2.1,2.1,0,0,1-.19,2.27l-.17.21.26,0a2.25,2.25,0,0,1,1.5.83,2.18,2.18,0,0,1,.49,1.24,3.25,3.25,0,0,1-.18,1.18s.09-.08.17-.28a2.17,2.17,0,0,0,.17-.9,2.34,2.34,0,0,0-.46-1.39,2.44,2.44,0,0,0-1.65-1l.09.23a2.37,2.37,0,0,0,.27-2.61,2.4,2.4,0,0,0-2.77-1.1l.23.13a2.33,2.33,0,0,0-.41-.89,2.39,2.39,0,0,0-2.08-1,2.45,2.45,0,0,0-1.86,1.08l.29,0a2,2,0,0,0-3.6-.15h.21a1.21,1.21,0,0,0-.79-.75,1.1,1.1,0,0,0-.8.06,1.08,1.08,0,0,0-.4.31A.38.38,0,0,0,517.27,137.22Z" style="fill:#455a64"></path><path d="M508.64,225.94c.11,1.23.24,2.23.33,2.92,0,.32.09.58.13.79a.14.14,0,1,0,.06,0c0-.21-.05-.48-.08-.79-.06-.69-.15-1.69-.24-2.93s-.2-2.68-.3-4.3l-.27,0C508.39,223.22,508.51,224.7,508.64,225.94Z" style="fill:#263238"></path><path d="M507.66,206.57c-.08-1.21-.14-2.2-.18-2.94l-.06-.8a1.14,1.14,0,0,0,0-.27.84.84,0,0,0,0,.28c0,.21,0,.48,0,.8,0,.74.05,1.73.08,2.94.1,2.48.25,5.9.47,9.68.11,1.89.23,3.69.35,5.32l.27,0c-.11-1.65-.22-3.46-.33-5.37C508,212.49,507.8,209.08,507.66,206.57Z" style="fill:#263238"></path><path d="M554.57,211.16l8.92-1.81a3.34,3.34,0,0,1,1.18,0s-4.75-19.69-6-22.61-4.5-5.74-4.5-5.74c-1.32-.77-18.55-5.77-18.55-5.77s-2.09,7.86-10.21,10.08c-5,1.38-6.6-.5-7.06-2.12a10.76,10.76,0,0,1-.35-2.09s-15.33,9.83-16.23,10.52-3.85,17.11-3.85,17.11l-2.35,10.64,12.61,2.08c-.12-1.64-.24-3.43-.35-5.32-.22-3.78-.37-7.21-.47-9.69,0-1.2-.06-2.2-.08-2.94,0-.32,0-.58,0-.8a.8.8,0,0,1,0-.27,1,1,0,0,1,0,.27c0,.22,0,.48.06.8,0,.74.11,1.73.18,2.93.14,2.52.34,5.92.55,9.68.11,1.91.22,3.73.33,5.38h0s1.94,24.88,1.74,26.7.55,10.15.55,10.15l48,1.35-2-18.22-.48-4.48h0l-1.65-5.9,0-3.55L550.18,212l1.35-.27Z" style="fill:#2CB252"></path><path d="M547.67,197.14q-.06-1-.09-1.77a2.84,2.84,0,0,0-.06-.65,2.59,2.59,0,0,0,0,.65c0,.42,0,1,0,1.78,0,1.5.12,3.57.24,5.85l0,.5c.06-.75.12-1.48.17-2.17C547.81,199.74,547.73,198.31,547.67,197.14Z" style="fill:#263238"></path><path d="M548.12,210.62a2.59,2.59,0,0,0,0,.65,2.84,2.84,0,0,0,.06-.65c0-.42,0-1,0-1.78,0-1.5-.11-3.57-.24-5.85,0-.57-.06-1.13-.09-1.66,0,.69-.11,1.42-.17,2.17.12,2.05.22,3.9.3,5.35Q548.07,209.9,548.12,210.62Z" style="fill:#263238"></path><path d="M550.52,183.56a17.61,17.61,0,0,1,3.24-2,3.38,3.38,0,0,0-1.09.33,9.14,9.14,0,0,0-2.34,1.43,9.47,9.47,0,0,0-1.82,2,3.31,3.31,0,0,0-.52,1A17.52,17.52,0,0,1,550.52,183.56Z" style="fill:#263238"></path><path d="M501.84,192.14c-.06.06,1,1.05,2.19,2.41s2,2.58,2.06,2.53a10.11,10.11,0,0,0-1.84-2.71A10.55,10.55,0,0,0,501.84,192.14Z" style="fill:#263238"></path><path d="M538.57,226.62l-.54.7c-.46.61-1.14,1.49-2,2.57-1.7,2.15-4.13,5.06-7,8.1s-5.66,5.62-7.72,7.43c-1,.9-1.87,1.63-2.46,2.12l-.67.58c-.15.13-.23.21-.22.22l.26-.18.7-.53c.61-.47,1.48-1.17,2.52-2.06a100.3,100.3,0,0,0,7.8-7.38,102.42,102.42,0,0,0,7-8.18c.83-1.09,1.48-2,1.92-2.62.2-.3.36-.54.5-.73s.16-.26.15-.27A1.67,1.67,0,0,0,538.57,226.62Z" style="fill:#263238"></path><path d="M567.89,229.22l-4.4-19.87h0c-1.72.36-5.45,1.12-8.92,1.81l-3.05.59-1.35.27,4.57,15.65,1.06,3.64.63,5.83v0l.47,4.39.59,5.44h0l.92,13,11.18.7Z" style="fill:#ffbe9d"></path><path d="M488.31,195.76l-17.78,1-1.45,6.71s4.91,3.94,5.4,4.1,11.66,1.73,11.66,1.73,12-5.62,11.87-5.56S488.31,195.76,488.31,195.76Z" style="fill:#ffc4af"></path><path d="M472.82,164.71c-1-1.06-2.72-.86-4.16-.57a8.5,8.5,0,0,0-2.44.73,2.91,2.91,0,0,0-1.57,1.91c-.25,1.27.65,2.54.49,3.82a3.17,3.17,0,0,1-1.53,2.16,9.17,9.17,0,0,1-2.55,1,5.08,5.08,0,0,0,3.62,1.92c-.08.46-.67.59-1.14.65s-1.05.33-1,.79a.91.91,0,0,0,.42.55,13.12,13.12,0,0,0,8.58,2.59,5.63,5.63,0,0,0,3.91-1.54,5.55,5.55,0,0,0,1.12-3.77,13,13,0,0,0-4.55-9.67" style="fill:#fafafa"></path><path d="M472,165.37a6.17,6.17,0,0,1,6.11-7.61,4.8,4.8,0,0,0,2-.13,5.32,5.32,0,0,0,1.41-1.15,9.15,9.15,0,0,1,4.84-1.85,15.25,15.25,0,0,1,7.39.21c2.36.82,4.42,2.93,4.45,5.42,0,1.09-.35,2.16-.41,3.25a2.85,2.85,0,0,0,1.29,2.81c.64.29,1.47.24,1.93.78a1.43,1.43,0,0,1-.05,1.69,4.12,4.12,0,0,1-1.41,1.13,2.12,2.12,0,0,1,1.58,2.05,3.18,3.18,0,0,1-1.24,2.41,6.36,6.36,0,0,1-2.54,1.14c-4.29,1.08-8.86,0-12.9-1.84a38.56,38.56,0,0,1-11.9-8.32l.34-.39" style="fill:#fafafa"></path><path d="M470.93,167.44c.14-.4,1.3-3.06,1.72-3s-.4,2.49-.24,2.75a14.15,14.15,0,0,1,1.84,8.21,37.21,37.21,0,0,1-1.42,8.16" style="fill:#e0e0e0"></path><path d="M472.83,183.53a48.81,48.81,0,0,1-2.31-7.92" style="fill:#e0e0e0"></path><path d="M480.94,206.27a7.84,7.84,0,0,1-7.91-7.62l-.78-25.7c-.43-6.89,3.23-12.89,10.14-13.13l.64,0a12.36,12.36,0,0,1,12,11.65c.33,6,.63,12.59.51,15.79-.24,6.63-6.89,7.5-6.89,7.5s0,1.54,0,3.48a7.87,7.87,0,0,1-7.79,8Z" style="fill:#ffc4af"></path><path d="M488.69,194.86a16.05,16.05,0,0,1-8.57-2.76s2,4.87,8.61,4.43Z" style="fill:#df947f"></path><path d="M484,184.15a1.43,1.43,0,1,1,1.58,2.29,1.81,1.81,0,0,1-1.15,0,1.36,1.36,0,0,1-.74-.46,1.26,1.26,0,0,1-.11-1.22,1.94,1.94,0,0,1,.62-.83" style="fill:#df947f"></path><path d="M492.44,175.89a.93.93,0,0,1-.93.93.91.91,0,0,1-1-.88,1,1,0,0,1,.94-.93A.9.9,0,0,1,492.44,175.89Z" style="fill:#263238"></path><path d="M493.59,174.72c-.12.12-.82-.43-1.84-.45s-1.78.47-1.89.34.07-.28.41-.51a2.61,2.61,0,0,1,1.51-.42,2.48,2.48,0,0,1,1.46.51C493.55,174.44,493.65,174.66,493.59,174.72Z" style="fill:#263238"></path><path d="M483,175.94a.94.94,0,0,1-.93.93.92.92,0,0,1-1-.88,1,1,0,0,1,.94-.93A.9.9,0,0,1,483,175.94Z" style="fill:#263238"></path><path d="M483.79,174.72c-.12.12-.83-.42-1.85-.44s-1.78.46-1.88.34.07-.28.4-.51a2.66,2.66,0,0,1,1.51-.43,2.48,2.48,0,0,1,1.47.52C483.74,174.44,483.85,174.67,483.79,174.72Z" style="fill:#263238"></path><path d="M487.06,182.37a6.8,6.8,0,0,1,1.66-.26c.26,0,.51-.06.56-.24a1.34,1.34,0,0,0-.16-.77l-.72-2a33.27,33.27,0,0,1-1.6-5.23,34.93,34.93,0,0,1,2,5.08l.69,2a1.51,1.51,0,0,1,.11,1,.67.67,0,0,1-.44.37,1.45,1.45,0,0,1-.44,0A6.48,6.48,0,0,1,487.06,182.37Z" style="fill:#263238"></path><path d="M484.05,183c.16,0,.14,1.1,1.07,1.91s2.1.72,2.11.87-.27.21-.77.21a2.72,2.72,0,0,1-1.76-.66,2.43,2.43,0,0,1-.83-1.6C483.84,183.27,484,183,484.05,183Z" style="fill:#263238"></path><path d="M483.91,170.74c-.11.28-1.13.12-2.32.24s-2.18.41-2.33.16.11-.37.5-.63a3.88,3.88,0,0,1,1.74-.56,3.72,3.72,0,0,1,1.8.25C483.74,170.39,484,170.61,483.91,170.74Z" style="fill:#fafafa"></path><path d="M493.26,171.82c-.18.23-.88,0-1.72-.06s-1.57.12-1.72-.13,0-.35.36-.56a2.39,2.39,0,0,1,1.41-.34,2.35,2.35,0,0,1,1.37.5C493.25,171.47,493.34,171.71,493.26,171.82Z" style="fill:#fafafa"></path><path d="M472.68,178c-.12,0-4.53-1.45-4.49,3.08s4.58,3.57,4.59,3.44S472.68,178,472.68,178Z" style="fill:#ffc4af"></path><path d="M471.38,182.76s-.08.05-.21.12a.78.78,0,0,1-.59,0,2,2,0,0,1-.92-1.74,2.61,2.61,0,0,1,.21-1.14.94.94,0,0,1,.59-.61.42.42,0,0,1,.47.22c.06.12,0,.21.06.22s.09-.08.05-.26a.47.47,0,0,0-.18-.29.62.62,0,0,0-.43-.11,1.1,1.1,0,0,0-.82.71,2.73,2.73,0,0,0-.27,1.27,2.06,2.06,0,0,0,1.17,2,.83.83,0,0,0,.72-.13C471.37,182.87,471.39,182.77,471.38,182.76Z" style="fill:#df947f"></path><path d="M492.15,164.2c.73-.42-1.66-2.85-3.47-3.64-2.75-1.19-6.93-1.88-9.43-1.13-3,.91-5.5,2.46-7,5.24a17.74,17.74,0,0,0-1.85,9.14c0,.95-1.78,1.5-1.25,2.31a18.47,18.47,0,0,0,1.58,1.87c.31.38.79.82,1.11,1.19.85,1,3,1.18,3.46.32a11.13,11.13,0,0,0,1.52-5.32,20.05,20.05,0,0,0-.3-4.84,4.88,4.88,0,0,1-.19-1.53,4.41,4.41,0,0,1,.72-2.38,2.47,2.47,0,0,1,.4-.42,4,4,0,0,1,4-.75c2.59.86,4.68,2.27,7.63,1a3.7,3.7,0,0,0,1.27-1.14,1.32,1.32,0,0,1,1.79,0Z" style="fill:#fafafa"></path><path d="M477.08,165.21a6.27,6.27,0,0,1,4.85-.52c1.35.42,2.52,1.29,3.82,1.84a9,9,0,0,0,8.94-1.16,3.1,3.1,0,0,0,1.39-2.13,2.44,2.44,0,0,0-.9-1.9,5.57,5.57,0,0,0-1.91-1,21.18,21.18,0,0,0-9.88-.75,12.87,12.87,0,0,0-7.3,3.08,2.46,2.46,0,0,0-.63.87,1,1,0,0,0,.11,1,.69.69,0,0,0,1,.12" style="fill:#fafafa"></path><path d="M494.8,175.66c0,.08-.25.17-.55.28s-.57.18-.61.11.18-.27.52-.39S494.79,175.58,494.8,175.66Z" style="fill:#df947f"></path><path d="M495.19,176.38c0,.08-.34.1-.73.1s-.72,0-.73-.1.31-.19.73-.19S495.2,176.3,495.19,176.38Z" style="fill:#df947f"></path><path d="M479.39,176c0,.08-.45.1-1,.1s-1,0-1-.1.44-.19,1-.19S479.4,175.89,479.39,176Z" style="fill:#df947f"></path><path d="M479.33,176.88c0,.08-.4.07-.86.07s-.85,0-.86-.06.36-.23.86-.23S479.35,176.81,479.33,176.88Z" style="fill:#df947f"></path><path d="M483.52,178.36s-.12.21-.45.39a2.55,2.55,0,0,1-1.42.29,2.52,2.52,0,0,1-1.33-.55c-.29-.24-.4-.44-.37-.47a4.18,4.18,0,0,0,1.73.73A4.24,4.24,0,0,0,483.52,178.36Z" style="fill:#df947f"></path><path d="M484,178.14c0,.07-.45.33-1.11.33s-1.13-.25-1.1-.32.51,0,1.1,0A7.09,7.09,0,0,1,484,178.14Z" style="fill:#df947f"></path><path d="M493.83,177.51a3.68,3.68,0,0,1-3.31.31c0-.08.76,0,1.67,0S493.8,177.43,493.83,177.51Z" style="fill:#df947f"></path><path d="M493.34,177.86a2.53,2.53,0,0,1-3,.54,11.79,11.79,0,0,0,1.57,0A12.79,12.79,0,0,0,493.34,177.86Z" style="fill:#df947f"></path><path d="M491.22,169.78a3.76,3.76,0,0,1-1.14.28,15.76,15.76,0,0,1-2.85.15,15.54,15.54,0,0,1-2.82-.38,4.11,4.11,0,0,1-1.12-.37c0-.09,1.76.38,4,.46S491.21,169.69,491.22,169.78Z" style="fill:#df947f"></path><path d="M491.91,169a14,14,0,0,1-3.67.34,13.77,13.77,0,0,1-3.68-.37c0-.08,1.65.07,3.68.08S491.9,168.9,491.91,169Z" style="fill:#df947f"></path><path d="M486.74,172.27c-.08,0-.1-.21-.11-.44s0-.43.08-.45.2.17.21.44S486.82,172.29,486.74,172.27Z" style="fill:#df947f"></path><path d="M488.14,172.45c0,.08-.35,0-.49-.37s0-.65.1-.61.07.26.17.5S488.18,172.38,488.14,172.45Z" style="fill:#df947f"></path><path d="M483.9,182.71c0,.08-.32.14-.61.37s-.41.53-.49.52-.07-.43.31-.74S483.91,182.63,483.9,182.71Z" style="fill:#df947f"></path><path d="M482.71,182.63c0,.08-.19.12-.32.28s-.16.32-.24.35-.09,0-.11-.15a.49.49,0,0,1,.13-.39.47.47,0,0,1,.37-.18C482.66,182.54,482.71,182.59,482.71,182.63Z" style="fill:#df947f"></path><path d="M478.4,200.38s-.13,0-.31-.16a1.35,1.35,0,0,1-.43-.83,3.58,3.58,0,0,1,0-1.37,3,3,0,0,0,0-1.55c-.1-.25-.28-.48-.39-.76a1.4,1.4,0,0,1,0-.86,1.18,1.18,0,0,0,0-.64,3.39,3.39,0,0,0-.29-.53,1.08,1.08,0,0,1-.18-.92c.1-.23.26-.26.25-.24s-.1.08-.14.27a1,1,0,0,0,.24.78,2.24,2.24,0,0,1,.34.56,1.27,1.27,0,0,1,0,.77,1.14,1.14,0,0,0,0,.71c.08.23.26.45.39.75a3.06,3.06,0,0,1,0,1.7,3.62,3.62,0,0,0-.12,1.3,1.38,1.38,0,0,0,.31.78C478.31,200.3,478.41,200.35,478.4,200.38Z" style="fill:#df947f"></path><path d="M481.28,200.93s-.14,0-.34-.12a1.68,1.68,0,0,1-.54-.81,14.39,14.39,0,0,1-.74-3.07,4.54,4.54,0,0,1,0-.9,5.67,5.67,0,0,0,0-.81c0-.5-.5-.68-.82-1a.88.88,0,0,1-.3-.51.5.5,0,0,1,.16-.43c.21-.18.38-.08.36-.07s-.15,0-.28.15a.45.45,0,0,0-.08.32.74.74,0,0,0,.28.38c.14.12.33.22.53.37a1,1,0,0,1,.41.71,6,6,0,0,1,0,.85,6.53,6.53,0,0,0,0,.88,21.15,21.15,0,0,0,.65,3,1.79,1.79,0,0,0,.42.79C481.16,200.87,481.29,200.9,481.28,200.93Z" style="fill:#df947f"></path><path d="M482.56,156.92s.08-.06.25-.14.43-.19.77-.31a12.41,12.41,0,0,1,3-.68,13.18,13.18,0,0,1,4.5.28,9.29,9.29,0,0,1,2.51,1,4.72,4.72,0,0,1,2.51,4.89,5.79,5.79,0,0,1-.92,2.53,5.61,5.61,0,0,1-1.75,1.69,6.54,6.54,0,0,1-1.95.84,8,8,0,0,1-3,.22,5.87,5.87,0,0,1-.82-.14c-.18,0-.28-.07-.27-.08s.39.06,1.1.11a9,9,0,0,0,3-.3,7,7,0,0,0,1.87-.85,5.56,5.56,0,0,0,1.65-1.63,5.62,5.62,0,0,0,.87-2.42,4.51,4.51,0,0,0-2.37-4.62,9.28,9.28,0,0,0-2.43-.93,13.37,13.37,0,0,0-4.42-.33,14.22,14.22,0,0,0-2.95.57C482.93,156.79,482.57,156.94,482.56,156.92Z" style="fill:#fff"></path><path d="M498,159.85a2,2,0,0,1,0,1.11,5.1,5.1,0,0,1-1.18,2.42,9.38,9.38,0,0,1-2,1.75,3.42,3.42,0,0,1-.95.55,4.62,4.62,0,0,1,.83-.71,13.35,13.35,0,0,0,1.93-1.77,5.68,5.68,0,0,0,1.2-2.28C498,160.28,498,159.85,498,159.85Z" style="fill:#fff"></path><path d="M481.18,160.65a15.43,15.43,0,0,0-3.57,1.7,5.54,5.54,0,0,0-1.92,1.93,2,2,0,0,0-.1,1.11s-.09-.09-.15-.29a1.66,1.66,0,0,1,.06-.89,5.12,5.12,0,0,1,1.94-2.1,9.47,9.47,0,0,1,2.57-1.25A3.33,3.33,0,0,1,481.18,160.65Z" style="fill:#fff"></path><path d="M476.79,159.73s-.24.25-.65.59a6.23,6.23,0,0,0-1.4,1.5,3.11,3.11,0,0,0-.48,1.92c.06.52.24.81.2.84a1.21,1.21,0,0,1-.4-.8,3,3,0,0,1,.43-2.12,5.38,5.38,0,0,1,1.52-1.51A2.54,2.54,0,0,1,476.79,159.73Z" style="fill:#fff"></path><path d="M467.75,167.91a2.28,2.28,0,0,1,.51-.91,5,5,0,0,1,4.5-1.84,2.12,2.12,0,0,1,1,.29s-.39-.06-1-.09a5.46,5.46,0,0,0-4.34,1.78C468,167.59,467.79,167.93,467.75,167.91Z" style="fill:#fff"></path><path d="M471.06,170.26a1.35,1.35,0,0,1-.21-.79,3,3,0,0,1,2.19-3.06c.5-.14.82-.1.82-.06s-.31.07-.76.25a3.36,3.36,0,0,0-1.45,1.12,3.28,3.28,0,0,0-.59,1.75C471,170,471.1,170.25,471.06,170.26Z" style="fill:#fff"></path><path d="M499.8,170a1.86,1.86,0,0,1-1,0,3.78,3.78,0,0,1-3.16-3.28,2,2,0,0,1,.07-1s0,.38.14,1a3.94,3.94,0,0,0,3,3.11C499.42,170,499.8,170,499.8,170Z" style="fill:#fff"></path><path d="M499.73,172a4.4,4.4,0,0,1-2.54-.1,4.48,4.48,0,0,1-2.21-1.25,21.29,21.29,0,0,0,2.29,1A20,20,0,0,0,499.73,172Z" style="fill:#fff"></path><path d="M492.44,195.7c.71,0,8.21-1,12.8,2s16.9,26.37,16.9,26.37,3.75,12.44-1.53,14.9-19.25,10-19.25,10L498,236.65l9.63-4.46V220.34Z" style="fill:#455a64"></path><path d="M504.27,207.89s0-.63,0-1.62a12.07,12.07,0,0,0-.76-3.77,11.86,11.86,0,0,0-1.92-3.34c-.63-.77-1.09-1.18-1.06-1.22a1.78,1.78,0,0,1,.36.25,8,8,0,0,1,.86.84,10.81,10.81,0,0,1,2.72,7.24,6.76,6.76,0,0,1-.1,1.19A1.48,1.48,0,0,1,504.27,207.89Z" style="fill:#263238"></path><path d="M471.72,203.83s6.78,3.92,11.92,2.78a20.08,20.08,0,0,0,8.79-4.74l9.1,20.82-3.08,35.86-24.77.07L474.5,227Z" style="fill:#fafafa"></path><path d="M511,243.84,509,212.36l-13.23-16.82h-7.42c.41.59,6.92,25.33,6.22,30.54S490,242.21,490,242.21v0c0-4.65-.71-11.5-4.56-16.42-6.36-8.12-14.25-29.34-14.25-29.34l-3.53,1.24-9.92,43.55s-.43,10.64,0,18.3c21.84-.81,42.18-1.64,56.35-1C512,249.59,511,243.84,511,243.84Z" style="fill:#455a64"></path><path d="M482.19,240.29c.15,0,4.68-2.53,5.83-2.68s10.05-.57,10.05-.57l2.38,8.62s-7.42,3.6-8.57,3.88-6,2.05-6.82,2.05-3.1-.76-3.1-1.28a.81.81,0,0,1,.33-.72,15.93,15.93,0,0,0,3.1-.19,14.56,14.56,0,0,0,1.58-.67s-8.16,1.24-8.74,1.05-1-1.39-1-1.39-1-.66-1.05-1.28.24-.91.77-1.15,4.05-1.81,5.1-2.1,3.82-.76,3.82-.76-8.4.91-8.92.67-1.1-1.15-.24-1.67a11.61,11.61,0,0,1,3.38-1.48C481.05,240.48,482.19,240.29,482.19,240.29Z" style="fill:#ffc4af"></path><path d="M488.17,245.42a8.23,8.23,0,0,1-1.58.65c-1,.35-2.37.78-3.93,1.17s-3,.67-4,.83a9.44,9.44,0,0,1-1.69.18,11.92,11.92,0,0,1,1.66-.38c1-.22,2.43-.52,4-.91s2.94-.79,3.94-1.09A11.15,11.15,0,0,1,488.17,245.42Z" style="fill:#df947f"></path><path d="M487.38,239a11.43,11.43,0,0,1-2.53.71,12,12,0,0,1-2.6.44,12,12,0,0,1,2.54-.72A11.49,11.49,0,0,1,487.38,239Z" style="fill:#df947f"></path><path d="M498.25,240.48s-.13,0-.34.05a2.84,2.84,0,0,0-.85.34,3,3,0,0,1-1.38.44c-.56,0-1.12-.35-1.56,0a4.35,4.35,0,0,1-.73.55,1.46,1.46,0,0,1-.89.08c-.55-.11-1-.32-1.35-.34a1.12,1.12,0,0,0-.82.23c-.15.14-.19.27-.21.26s0-.15.13-.33a1.12,1.12,0,0,1,.92-.36,10.12,10.12,0,0,1,1.37.28,1.29,1.29,0,0,0,.73-.08,4.57,4.57,0,0,0,.68-.52,1.09,1.09,0,0,1,.46-.22,1.34,1.34,0,0,1,.49,0c.3,0,.56.13.8.15a2.89,2.89,0,0,0,1.27-.36,2.54,2.54,0,0,1,.93-.26A.58.58,0,0,1,498.25,240.48Z" style="fill:#df947f"></path><path d="M498.33,242.25a1.72,1.72,0,0,1-.94.64,2.8,2.8,0,0,1-1.26.12,3.15,3.15,0,0,0-.67-.06.76.76,0,0,0-.52.38,1.17,1.17,0,0,1-.67.52,2,2,0,0,1-.77,0,5.39,5.39,0,0,0-1.18-.18,1,1,0,0,0-.68.28c-.13.13-.16.24-.18.23s0-.12.09-.3a1.09,1.09,0,0,1,.75-.42,5,5,0,0,1,1.24.12,1.09,1.09,0,0,0,1.17-.45,1.71,1.71,0,0,1,.29-.32.85.85,0,0,1,.42-.17,2.47,2.47,0,0,1,.75.08,2.92,2.92,0,0,0,1.16-.06A6.58,6.58,0,0,0,498.33,242.25Z" style="fill:#df947f"></path><path d="M473.41,246a2.47,2.47,0,0,1-.61,0,6.46,6.46,0,0,1-.72,0c-.29,0-.61,0-1-.11a16.79,16.79,0,0,1-2.43-.54,24.22,24.22,0,0,1-2.85-1.07,34.86,34.86,0,0,1-4.81-2.72c-.59-.4-1.06-.73-1.37-1a2.8,2.8,0,0,1-.47-.39,2.24,2.24,0,0,1,.53.3l1.42.89A43,43,0,0,0,466,244a28.21,28.21,0,0,0,2.81,1.09,22.87,22.87,0,0,0,2.39.59C472.54,245.89,473.41,245.9,473.41,246Z" style="fill:#263238"></path><path d="M479.15,253.34a5.74,5.74,0,0,1-.93-.19c-.3-.06-.66-.16-1.08-.29s-.89-.27-1.4-.47a31.12,31.12,0,0,1-3.52-1.54,42.76,42.76,0,0,1-4-2.41,51.36,51.36,0,0,1-6.6-5.42c-.78-.75-1.4-1.39-1.81-1.84a4.38,4.38,0,0,1-.62-.72,8.49,8.49,0,0,1,.7.64c.43.43,1.07,1,1.87,1.78a60.39,60.39,0,0,0,6.62,5.32,42.47,42.47,0,0,0,4,2.41,33,33,0,0,0,3.46,1.59c.51.21,1,.36,1.38.5s.76.26,1.06.34A5.68,5.68,0,0,1,479.15,253.34Z" style="fill:#263238"></path><path d="M510.18,230.93a11.7,11.7,0,0,1-1.74.87c-1.09.51-2.6,1.19-4.29,1.9s-3.22,1.35-4.34,1.77c-.57.22-1,.38-1.34.49a1.82,1.82,0,0,1-.51.13,16.14,16.14,0,0,1,1.77-.81l4.31-1.84,4.32-1.82A12.28,12.28,0,0,1,510.18,230.93Z" style="fill:#263238"></path><path d="M499,207.6a2,2,0,0,1,.19.2l.53.59c.45.5,1.13,1.23,2,2.09s1.92,1.87,3,3a23.55,23.55,0,0,1,3.28,4.15,13.68,13.68,0,0,1,1.74,5c.22,1.62.28,3.08.34,4.3s.07,2.22.07,2.9c0,.32,0,.58,0,.79a.9.9,0,0,1,0,.28.94.94,0,0,1,0-.27c0-.22,0-.48,0-.79,0-.73-.1-1.71-.17-2.9s-.17-2.67-.39-4.27a13.72,13.72,0,0,0-1.73-4.88,24.23,24.23,0,0,0-3.22-4.12c-1.11-1.17-2.16-2.19-3-3.08s-1.51-1.63-1.94-2.16l-.48-.63C499.06,207.69,499,207.61,499,207.6Z" style="fill:#263238"></path><path d="M520.08,239.25a8,8,0,0,1-.83.49L516.94,241c-2,1-4.67,2.48-7.68,4s-5.87,3-7.85,4l-.11.06,0-.12-.63-2.44a5.85,5.85,0,0,1-.19-.9,5.69,5.69,0,0,1,.3.87l.71,2.41-.14-.06c1.95-1,4.73-2.51,7.81-4.11s5.73-3,7.71-4l2.36-1.17A5.61,5.61,0,0,1,520.08,239.25Z" style="fill:#263238"></path><path d="M467.7,197.72s-9.82,4.19-12.86,10.84-9.24,27.73-9.39,31.63,2,20,2,20l13.44-.8-2-16.28,6.35-22.42Z" style="fill:#455a64"></path><path d="M462.14,197.23a2.35,2.35,0,0,1,2.23.9l2.46,3.28s1.78,2.32,1.26,3.32c-.43.84-1.27.77-2.09,0a51.92,51.92,0,0,1-3.42-4.57s4.8,6.15,3.7,7.28-2.32-.35-2.32-.35.74,2.36-.73,2.12S460,206.8,460,206.8s.21,1.39-1.09,1.23-2.94-2.82-3.26-2.82c0,0-.55-1.17.29-1.81s1.32-.3,1.32-.3-.32-1.84.74-2.46,1.05.15,1.05.15-.89-1.24,0-2a1.86,1.86,0,0,1,2-.16s0-1.26,1.09-1.42Z" style="fill:#ffbe9d"></path><path d="M460.58,198.26a15.71,15.71,0,0,1,2,2.14,15.47,15.47,0,0,1,1.75,2.32,14,14,0,0,1-2-2.13A15,15,0,0,1,460.58,198.26Z" style="fill:#eb996e"></path><path d="M459.05,200.79a5.67,5.67,0,0,1,.8,1c.46.62,1.1,1.47,1.82,2.39s1.39,1.74,1.87,2.34a6,6,0,0,1,.75,1,4.66,4.66,0,0,1-.9-.86c-.53-.57-1.22-1.38-1.95-2.3s-1.34-1.8-1.76-2.45A5.42,5.42,0,0,1,459.05,200.79Z" style="fill:#eb996e"></path><path d="M457.3,203.41a5.55,5.55,0,0,1,1.6,1.62,5.72,5.72,0,0,1,1.1,2c-.07,0-.58-.83-1.33-1.82A20.18,20.18,0,0,1,457.3,203.41Z" style="fill:#eb996e"></path><path d="M466.3,219.86a9.87,9.87,0,0,1-.4,1.54c-.32,1.07-.75,2.46-1.26,4.15-1.09,3.49-2.64,8.31-4.37,13.62-.42,1.3-.84,2.57-1.24,3.79v-.12c.66,4.59,1.42,8.58,1.86,11.45.22,1.44.38,2.59.47,3.38a7.09,7.09,0,0,1,.1,1.24,6.48,6.48,0,0,1-.28-1.21l-.62-3.35c-.53-2.86-1.35-6.84-2-11.43v-.06l0-.06c.39-1.22.81-2.49,1.23-3.79,1.73-5.31,3.33-10.11,4.51-13.58.57-1.66,1-3,1.42-4.09A9.31,9.31,0,0,1,466.3,219.86Z" style="fill:#263238"></path></g></svg>