<svg width="170" height="33" viewBox="0 0 170 33" fill="none" xmlns="http://www.w3.org/2000/svg">
<path d="M0.5 2.15625H7.60938C10.651 2.15625 12.9531 2.58333 14.5156 3.4375C16.0781 4.29167 16.8594 5.79167 16.8594 7.9375C16.8594 8.80208 16.7188 9.58333 16.4375 10.2812C16.1667 10.9792 15.7708 11.5521 15.25 12C14.7292 12.4479 14.0938 12.7396 13.3438 12.875V13.0312C14.1042 13.1875 14.7917 13.4583 15.4062 13.8438C16.0208 14.2188 16.5104 14.7708 16.875 15.5C17.25 16.2188 17.4375 17.1771 17.4375 18.375C17.4375 19.7604 17.099 20.9479 16.4219 21.9375C15.7448 22.9271 14.776 23.6875 13.5156 24.2188C12.2656 24.7396 10.776 25 9.04688 25H0.5V2.15625ZM5.34375 11.2031H8.15625C9.5625 11.2031 10.5365 10.9844 11.0781 10.5469C11.6198 10.099 11.8906 9.44271 11.8906 8.57812C11.8906 7.70312 11.5677 7.07812 10.9219 6.70312C10.2865 6.31771 9.27604 6.125 7.89062 6.125H5.34375V11.2031ZM5.34375 15.0469V21H8.5C9.95833 21 10.974 20.7188 11.5469 20.1562C12.1198 19.5938 12.4062 18.8385 12.4062 17.8906C12.4062 17.3281 12.2812 16.8333 12.0312 16.4062C11.7812 15.9792 11.3594 15.6458 10.7656 15.4062C10.1823 15.1667 9.375 15.0469 8.34375 15.0469H5.34375ZM26.3906 7.53125V25H21.625V7.53125H26.3906ZM24.0156 0.6875C24.724 0.6875 25.3333 0.854167 25.8438 1.1875C26.3542 1.51042 26.6094 2.11979 26.6094 3.01562C26.6094 3.90104 26.3542 4.51562 25.8438 4.85938C25.3333 5.19271 24.724 5.35938 24.0156 5.35938C23.2969 5.35938 22.6823 5.19271 22.1719 4.85938C21.6719 4.51562 21.4219 3.90104 21.4219 3.01562C21.4219 2.11979 21.6719 1.51042 22.1719 1.1875C22.6823 0.854167 23.2969 0.6875 24.0156 0.6875ZM41.3281 7.20312C43.1927 7.20312 44.6927 7.71354 45.8281 8.73438C46.9635 9.74479 47.5312 11.3698 47.5312 13.6094V25H42.7656V14.7969C42.7656 13.5469 42.5365 12.6042 42.0781 11.9688C41.6302 11.3333 40.9219 11.0156 39.9531 11.0156C38.4948 11.0156 37.5 11.5104 36.9688 12.5C36.4375 13.4896 36.1719 14.9167 36.1719 16.7812V25H31.4062V7.53125H35.0469L35.6875 9.76562H35.9531C36.3281 9.16146 36.7917 8.67188 37.3438 8.29688C37.9062 7.92188 38.526 7.64583 39.2031 7.46875C39.8906 7.29167 40.599 7.20312 41.3281 7.20312ZM57.5469 32.6875C55.1094 32.6875 53.2448 32.2604 51.9531 31.4062C50.6719 30.5625 50.0312 29.375 50.0312 27.8438C50.0312 26.7917 50.3594 25.9115 51.0156 25.2031C51.6719 24.4948 52.6354 23.9896 53.9062 23.6875C53.4167 23.4792 52.9896 23.1406 52.625 22.6719C52.2604 22.1927 52.0781 21.6875 52.0781 21.1562C52.0781 20.4896 52.2708 19.9375 52.6562 19.5C53.0417 19.0521 53.599 18.6146 54.3281 18.1875C53.4115 17.7917 52.6823 17.1562 52.1406 16.2812C51.6094 15.4062 51.3438 14.375 51.3438 13.1875C51.3438 11.9167 51.6198 10.8385 52.1719 9.95312C52.7344 9.05729 53.5469 8.375 54.6094 7.90625C55.6823 7.4375 56.9844 7.20312 58.5156 7.20312C58.8385 7.20312 59.2135 7.22396 59.6406 7.26562C60.0677 7.30729 60.4583 7.35417 60.8125 7.40625C61.1771 7.45833 61.4219 7.5 61.5469 7.53125H67.6406V9.95312L64.9062 10.6562C65.1562 11.0417 65.3438 11.4531 65.4688 11.8906C65.5938 12.3281 65.6562 12.7917 65.6562 13.2812C65.6562 15.1562 65 16.6198 63.6875 17.6719C62.3854 18.7135 60.5729 19.2344 58.25 19.2344C57.6979 19.2031 57.1771 19.1615 56.6875 19.1094C56.4479 19.2969 56.2656 19.4948 56.1406 19.7031C56.0156 19.9115 55.9531 20.1302 55.9531 20.3594C55.9531 20.5885 56.0469 20.7812 56.2344 20.9375C56.4323 21.0833 56.724 21.1979 57.1094 21.2812C57.5052 21.3542 57.9948 21.3906 58.5781 21.3906H61.5469C63.4635 21.3906 64.9219 21.8021 65.9219 22.625C66.9323 23.4479 67.4375 24.6562 67.4375 26.25C67.4375 28.2917 66.5833 29.875 64.875 31C63.1771 32.125 60.7344 32.6875 57.5469 32.6875ZM57.75 29.5781C58.8854 29.5781 59.8594 29.4688 60.6719 29.25C61.4948 29.0417 62.125 28.7396 62.5625 28.3438C63 27.9583 63.2188 27.4948 63.2188 26.9531C63.2188 26.5156 63.0885 26.1667 62.8281 25.9062C62.5781 25.6562 62.1927 25.4792 61.6719 25.375C61.1615 25.2708 60.5052 25.2188 59.7031 25.2188H57.2344C56.651 25.2188 56.125 25.3125 55.6562 25.5C55.1979 25.6875 54.8333 25.9479 54.5625 26.2812C54.2917 26.625 54.1562 27.0208 54.1562 27.4688C54.1562 28.125 54.4688 28.6406 55.0938 29.0156C55.7292 29.3906 56.6146 29.5781 57.75 29.5781ZM58.5156 16.3281C59.4115 16.3281 60.0677 16.0521 60.4844 15.5C60.901 14.9479 61.1094 14.1979 61.1094 13.25C61.1094 12.1979 60.8906 11.4115 60.4531 10.8906C60.026 10.3594 59.3802 10.0938 58.5156 10.0938C57.6406 10.0938 56.9844 10.3594 56.5469 10.8906C56.1094 11.4115 55.8906 12.1979 55.8906 13.25C55.8906 14.1979 56.1042 14.9479 56.5312 15.5C56.9688 16.0521 57.6302 16.3281 58.5156 16.3281ZM86.5156 2.15625C89.4635 2.15625 91.6146 2.79167 92.9688 4.0625C94.3229 5.32292 95 7.0625 95 9.28125C95 10.2812 94.849 11.2396 94.5469 12.1562C94.2448 13.0625 93.75 13.8698 93.0625 14.5781C92.3854 15.2865 91.4792 15.849 90.3438 16.2656C89.2083 16.6719 87.8073 16.875 86.1406 16.875H84.0625V25H79.2188V2.15625H86.5156ZM86.2656 6.125H84.0625V12.9062H85.6562C86.5625 12.9062 87.349 12.7865 88.0156 12.5469C88.6823 12.3073 89.1979 11.9323 89.5625 11.4219C89.9271 10.9115 90.1094 10.2552 90.1094 9.45312C90.1094 8.32812 89.7969 7.49479 89.1719 6.95312C88.5469 6.40104 87.5781 6.125 86.2656 6.125ZM103.703 0.6875V5.64062C103.703 6.50521 103.672 7.32812 103.609 8.10938C103.557 8.89062 103.516 9.44271 103.484 9.76562H103.734C104.109 9.16146 104.552 8.67188 105.062 8.29688C105.583 7.92188 106.156 7.64583 106.781 7.46875C107.406 7.29167 108.078 7.20312 108.797 7.20312C110.057 7.20312 111.156 7.42708 112.094 7.875C113.031 8.3125 113.76 9.00521 114.281 9.95312C114.802 10.8906 115.062 12.1094 115.062 13.6094V25H110.297V14.7969C110.297 13.5469 110.068 12.6042 109.609 11.9688C109.151 11.3333 108.443 11.0156 107.484 11.0156C106.526 11.0156 105.771 11.2396 105.219 11.6875C104.667 12.125 104.276 12.776 104.047 13.6406C103.818 14.4948 103.703 15.5417 103.703 16.7812V25H98.9375V0.6875H103.703ZM135.844 16.2344C135.844 17.6927 135.646 18.9844 135.25 20.1094C134.865 21.2344 134.297 22.1875 133.547 22.9688C132.807 23.7396 131.911 24.3229 130.859 24.7188C129.818 25.1146 128.641 25.3125 127.328 25.3125C126.099 25.3125 124.969 25.1146 123.938 24.7188C122.917 24.3229 122.026 23.7396 121.266 22.9688C120.516 22.1875 119.932 21.2344 119.516 20.1094C119.109 18.9844 118.906 17.6927 118.906 16.2344C118.906 14.2969 119.25 12.6562 119.938 11.3125C120.625 9.96875 121.604 8.94792 122.875 8.25C124.146 7.55208 125.661 7.20312 127.422 7.20312C129.057 7.20312 130.505 7.55208 131.766 8.25C133.036 8.94792 134.031 9.96875 134.75 11.3125C135.479 12.6562 135.844 14.2969 135.844 16.2344ZM123.766 16.2344C123.766 17.3802 123.891 18.3438 124.141 19.125C124.391 19.9062 124.781 20.4948 125.312 20.8906C125.844 21.2865 126.536 21.4844 127.391 21.4844C128.234 21.4844 128.917 21.2865 129.438 20.8906C129.969 20.4948 130.354 19.9062 130.594 19.125C130.844 18.3438 130.969 17.3802 130.969 16.2344C130.969 15.0781 130.844 14.1198 130.594 13.3594C130.354 12.5885 129.969 12.0104 129.438 11.625C128.906 11.2396 128.214 11.0469 127.359 11.0469C126.099 11.0469 125.182 11.4792 124.609 12.3438C124.047 13.2083 123.766 14.5052 123.766 16.2344ZM147.141 21.5156C147.661 21.5156 148.167 21.4635 148.656 21.3594C149.156 21.2552 149.651 21.125 150.141 20.9688V24.5156C149.63 24.7448 148.995 24.9323 148.234 25.0781C147.484 25.2344 146.661 25.3125 145.766 25.3125C144.724 25.3125 143.786 25.1458 142.953 24.8125C142.13 24.4688 141.479 23.8802 141 23.0469C140.531 22.2031 140.297 21.0312 140.297 19.5312V11.1094H138.016V9.09375L140.641 7.5L142.016 3.8125H145.062V7.53125H149.953V11.1094H145.062V19.5312C145.062 20.1979 145.25 20.6979 145.625 21.0312C146.01 21.3542 146.516 21.5156 147.141 21.5156ZM169.562 16.2344C169.562 17.6927 169.365 18.9844 168.969 20.1094C168.583 21.2344 168.016 22.1875 167.266 22.9688C166.526 23.7396 165.63 24.3229 164.578 24.7188C163.536 25.1146 162.359 25.3125 161.047 25.3125C159.818 25.3125 158.688 25.1146 157.656 24.7188C156.635 24.3229 155.745 23.7396 154.984 22.9688C154.234 22.1875 153.651 21.2344 153.234 20.1094C152.828 18.9844 152.625 17.6927 152.625 16.2344C152.625 14.2969 152.969 12.6562 153.656 11.3125C154.344 9.96875 155.323 8.94792 156.594 8.25C157.865 7.55208 159.38 7.20312 161.141 7.20312C162.776 7.20312 164.224 7.55208 165.484 8.25C166.755 8.94792 167.75 9.96875 168.469 11.3125C169.198 12.6562 169.562 14.2969 169.562 16.2344ZM157.484 16.2344C157.484 17.3802 157.609 18.3438 157.859 19.125C158.109 19.9062 158.5 20.4948 159.031 20.8906C159.562 21.2865 160.255 21.4844 161.109 21.4844C161.953 21.4844 162.635 21.2865 163.156 20.8906C163.688 20.4948 164.073 19.9062 164.312 19.125C164.562 18.3438 164.688 17.3802 164.688 16.2344C164.688 15.0781 164.562 14.1198 164.312 13.3594C164.073 12.5885 163.688 12.0104 163.156 11.625C162.625 11.2396 161.932 11.0469 161.078 11.0469C159.818 11.0469 158.901 11.4792 158.328 12.3438C157.766 13.2083 157.484 14.5052 157.484 16.2344Z" fill="#059669"/>
</svg>
