<svg width="249" height="50" viewBox="0 0 249 50" fill="none" xmlns="http://www.w3.org/2000/svg">
<path d="M6.73837 18.4736L11.0629 15.5937L8.64902 10.7684H31.351L20.0037 33.4715L17.5898 28.6378L13.2653 31.5262L20.0037 45L40 5H0L6.73837 18.4736Z" fill="url(#paint0_linear_217_278)"/>
<path d="M64.8785 14.04H70.7025L70.6705 15.736C71.5878 15.1813 72.5265 14.7653 73.4865 14.488C74.4465 14.1893 75.3958 14.04 76.3345 14.04C78.7452 14.04 80.5052 14.5093 81.6145 15.448C82.7452 16.3653 83.3105 17.5173 83.3105 18.904C83.3105 19.032 83.2998 19.16 83.2785 19.288C83.2785 19.416 83.2678 19.544 83.2465 19.672C83.1185 20.696 82.5745 21.72 81.6145 22.744C80.6545 23.768 79.1398 24.7173 77.0705 25.592C78.6918 25.6773 80.0572 26.008 81.1665 26.584C82.2758 27.16 83.1185 27.832 83.6945 28.6C84.2705 29.368 84.5585 30.104 84.5585 30.808C84.5585 32.5787 83.8225 34.1147 82.3505 35.416C80.8998 36.696 78.7985 37.688 76.0465 38.392C73.2945 39.0747 69.9665 39.416 66.0625 39.416L64.8785 14.04ZM70.4465 26.712C72.3025 25.8373 73.7852 24.952 74.8945 24.056C76.0252 23.16 76.8465 22.3387 77.3585 21.592C77.8918 20.824 78.1905 20.2373 78.2545 19.832C78.2758 19.7467 78.2865 19.672 78.2865 19.608C78.2865 19.5227 78.2865 19.4373 78.2865 19.352C78.2865 18.6267 78.0518 17.9653 77.5825 17.368C77.1132 16.7493 76.4732 16.44 75.6625 16.44C74.7452 16.44 73.8918 16.4933 73.1025 16.6C72.3132 16.6853 71.4918 16.856 70.6385 17.112L70.4465 26.712ZM70.1905 37.912C71.9825 37.5067 73.4438 37.0373 74.5745 36.504C75.7265 35.9493 76.6118 35.3627 77.2305 34.744C77.8705 34.1253 78.3185 33.496 78.5745 32.856C78.8305 32.1947 78.9585 31.544 78.9585 30.904C78.9585 30.5413 78.8412 30.1893 78.6065 29.848C78.3718 29.4853 77.9452 29.1547 77.3265 28.856C76.7078 28.536 75.8332 28.28 74.7025 28.088C73.5932 27.8747 72.1638 27.7573 70.4145 27.736L70.1905 37.912ZM87.353 13.592L95.129 14.936L89.913 20.184L87.353 13.592ZM88.729 39L87.897 21.176H93.529L92.697 39H88.729ZM110.437 39L109.925 28.024C109.861 26.616 109.669 25.688 109.349 25.24C109.051 24.7707 108.571 24.536 107.909 24.536C107.397 24.536 106.683 24.6747 105.765 24.952C104.848 25.208 103.952 25.6133 103.077 26.168L102.469 39H98.5333L97.7013 21.176H103.301L103.141 24.568C103.803 23.8213 104.56 23.16 105.413 22.584C106.288 22.008 107.195 21.56 108.133 21.24C109.072 20.92 109.968 20.76 110.821 20.76C112.421 20.76 113.509 21.1973 114.085 22.072C114.661 22.9253 114.949 24.1733 114.949 25.816C114.949 25.9653 114.939 26.1147 114.917 26.264C114.917 26.392 114.917 26.5413 114.917 26.712L114.405 39H110.437ZM128.769 41.976C129.899 41.976 130.657 41.7947 131.041 41.432C131.425 41.0907 131.617 40.3653 131.617 39.256C131.617 39.128 131.606 39.0107 131.585 38.904C131.585 38.776 131.585 38.6373 131.585 38.488L131.457 35.576C130.625 36.3013 129.611 36.8987 128.417 37.368C127.243 37.816 125.974 38.04 124.609 38.04C122.795 38.04 121.355 37.5707 120.289 36.632C119.243 35.672 118.721 34.136 118.721 32.024C118.721 30.36 119.19 28.8453 120.129 27.48C121.067 26.0933 122.347 24.8987 123.969 23.896C125.611 22.8933 127.478 22.1253 129.569 21.592C131.681 21.0373 133.899 20.76 136.225 20.76L135.617 38.104C135.553 40.024 135.339 41.528 134.977 42.616C134.635 43.7253 134.123 44.504 133.441 44.952C132.758 45.4213 131.883 45.656 130.817 45.656C130.539 45.656 130.251 45.6347 129.953 45.592C129.654 45.5707 129.345 45.5387 129.025 45.496C127.659 45.304 126.134 44.8453 124.449 44.12C122.763 43.416 120.993 42.232 119.137 40.568L119.297 40.312C119.873 40.5253 120.566 40.728 121.377 40.92C122.209 41.1333 123.062 41.3147 123.937 41.464C124.811 41.6133 125.622 41.7307 126.369 41.816C127.115 41.9013 127.702 41.9547 128.129 41.976H128.769ZM130.945 23.096C128.385 23.928 126.507 25.0587 125.312 26.488C124.118 27.896 123.521 29.528 123.521 31.384C123.521 32.6213 123.766 33.4853 124.257 33.976C124.747 34.4667 125.462 34.712 126.401 34.712C127.275 34.712 128.107 34.616 128.897 34.424C129.686 34.2107 130.507 33.9013 131.361 33.496L130.945 23.096ZM153.438 39L152.254 14.04H158.078L158.046 15C159.198 14.6587 160.275 14.4133 161.278 14.264C162.302 14.1147 163.24 14.04 164.094 14.04C165.8 14.04 167.23 14.296 168.382 14.808C169.555 15.2987 170.44 15.9493 171.038 16.76C171.635 17.5493 171.934 18.4133 171.934 19.352C171.934 20.2693 171.731 21.2293 171.326 22.232C170.92 23.2347 170.195 24.1947 169.15 25.112C168.126 26.0293 166.686 26.8187 164.83 27.48C162.995 28.1413 160.638 28.5893 157.758 28.824L157.534 39H153.438ZM157.758 28.184C159.507 27.8427 160.936 27.32 162.046 26.616C163.176 25.912 164.051 25.1227 164.67 24.248C165.288 23.3733 165.715 22.5093 165.95 21.656C166.206 20.8027 166.333 20.0667 166.333 19.448C166.333 18.5733 165.928 17.8267 165.118 17.208C164.328 16.568 162.984 16.248 161.086 16.248C160.638 16.248 160.158 16.2693 159.646 16.312C159.134 16.3333 158.59 16.3973 158.014 16.504L157.758 28.184ZM186.875 39L186.363 28.024C186.299 26.616 186.107 25.688 185.787 25.24C185.488 24.7707 185.008 24.536 184.347 24.536C183.813 24.536 183.067 24.6853 182.107 24.984C181.147 25.2613 180.219 25.688 179.323 26.264L178.907 39H174.971L174.139 14.04H179.739L179.387 24.792C180.048 24.0027 180.816 23.3093 181.691 22.712C182.565 22.0933 183.483 21.6133 184.443 21.272C185.424 20.9307 186.363 20.76 187.259 20.76C188.859 20.76 189.947 21.1973 190.523 22.072C191.099 22.9253 191.387 24.1733 191.387 25.816C191.387 25.9653 191.376 26.1147 191.355 26.264C191.355 26.392 191.355 26.5413 191.355 26.712L190.843 39H186.875ZM213.718 30.104C213.718 31.512 213.43 32.792 212.854 33.944C212.278 35.0747 211.521 36.0453 210.582 36.856C209.643 37.6667 208.63 38.296 207.542 38.744C206.454 39.1707 205.398 39.384 204.374 39.384C203.35 39.384 202.294 39.1707 201.206 38.744C200.118 38.296 199.094 37.6667 198.134 36.856C197.195 36.0453 196.427 35.0747 195.83 33.944C195.254 32.792 194.966 31.512 194.966 30.104C194.966 28.696 195.254 27.416 195.83 26.264C196.427 25.112 197.195 24.1307 198.134 23.32C199.094 22.488 200.118 21.8587 201.206 21.432C202.294 20.984 203.35 20.76 204.374 20.76C205.398 20.76 206.454 20.984 207.542 21.432C208.63 21.8587 209.643 22.488 210.582 23.32C211.521 24.1307 212.278 25.112 212.854 26.264C213.43 27.416 213.718 28.696 213.718 30.104ZM205.334 37.08C206.465 37.08 207.329 36.6747 207.926 35.864C208.523 35.032 208.822 33.5387 208.822 31.384C208.822 29.464 208.523 27.896 207.926 26.68C207.35 25.464 206.646 24.5787 205.814 24.024C204.982 23.448 204.182 23.16 203.414 23.16C202.667 23.16 202.027 23.3307 201.494 23.672C200.961 24.0133 200.555 24.6 200.278 25.432C200.001 26.2427 199.862 27.3733 199.862 28.824C199.862 30.1253 200.033 31.288 200.374 32.312C200.737 33.336 201.195 34.2107 201.75 34.936C202.305 35.64 202.891 36.1733 203.51 36.536C204.15 36.8987 204.758 37.08 205.334 37.08ZM227.546 35.64C226.458 36.9413 225.444 37.9013 224.506 38.52C223.588 39.1173 222.756 39.416 222.01 39.416C221.071 39.416 220.324 38.9253 219.77 37.944C219.215 36.9413 218.906 35.5013 218.842 33.624L218.554 24.856H215.13V24.504L223.194 15.608H223.61L223.322 21.752L226.938 20.536V24.856H223.161L222.778 32.92C222.778 33.0693 222.767 33.2187 222.746 33.368C222.746 33.496 222.746 33.6347 222.746 33.784C222.746 34.68 222.852 35.3413 223.066 35.768C223.279 36.1733 223.652 36.376 224.186 36.376C224.89 36.376 225.956 36.024 227.386 35.32L227.546 35.64ZM248.374 30.104C248.374 31.512 248.086 32.792 247.51 33.944C246.934 35.0747 246.177 36.0453 245.238 36.856C244.3 37.6667 243.286 38.296 242.198 38.744C241.11 39.1707 240.054 39.384 239.03 39.384C238.006 39.384 236.95 39.1707 235.862 38.744C234.774 38.296 233.75 37.6667 232.79 36.856C231.852 36.0453 231.084 35.0747 230.486 33.944C229.91 32.792 229.622 31.512 229.622 30.104C229.622 28.696 229.91 27.416 230.486 26.264C231.084 25.112 231.852 24.1307 232.79 23.32C233.75 22.488 234.774 21.8587 235.862 21.432C236.95 20.984 238.006 20.76 239.03 20.76C240.054 20.76 241.11 20.984 242.198 21.432C243.286 21.8587 244.3 22.488 245.238 23.32C246.177 24.1307 246.934 25.112 247.51 26.264C248.086 27.416 248.374 28.696 248.374 30.104ZM239.99 37.08C241.121 37.08 241.985 36.6747 242.582 35.864C243.18 35.032 243.478 33.5387 243.478 31.384C243.478 29.464 243.18 27.896 242.582 26.68C242.006 25.464 241.302 24.5787 240.47 24.024C239.638 23.448 238.838 23.16 238.07 23.16C237.324 23.16 236.684 23.3307 236.15 23.672C235.617 24.0133 235.212 24.6 234.934 25.432C234.657 26.2427 234.518 27.3733 234.518 28.824C234.518 30.1253 234.689 31.288 235.03 32.312C235.393 33.336 235.852 34.2107 236.406 34.936C236.961 35.64 237.548 36.1733 238.166 36.536C238.806 36.8987 239.414 37.08 239.99 37.08Z" fill="#059669"/>
<defs>
<linearGradient id="paint0_linear_217_278" x1="49.7608" y1="11.63" x2="-18.1548" y2="16.3732" gradientUnits="userSpaceOnUse">
<stop offset="0.100157" stop-color="#059669"/>
<stop offset="0.707994" stop-color="#00D090"/>
</linearGradient>
</defs>
</svg>
