<svg class="animated" id="freepik_stories-image-folder" xmlns="http://www.w3.org/2000/svg" viewBox="0 0 500 500" version="1.1" xmlns:xlink="http://www.w3.org/1999/xlink" xmlns:svgjs="http://svgjs.com/svgjs"><style>svg#freepik_stories-image-folder:not(.animated) .animable {opacity: 0;}svg#freepik_stories-image-folder.animated #freepik--background-complete--inject-92 {animation: 1s 1 forwards cubic-bezier(.36,-0.01,.5,1.38) slideLeft;animation-delay: 0s;}svg#freepik_stories-image-folder.animated #freepik--Shadow--inject-92 {animation: 1s 1 forwards cubic-bezier(.36,-0.01,.5,1.38) lightSpeedLeft;animation-delay: 0s;}svg#freepik_stories-image-folder.animated #freepik--Character--inject-92 {animation: 1s 1 forwards cubic-bezier(.36,-0.01,.5,1.38) zoomIn;animation-delay: 0s;}            @keyframes slideLeft {                0% {                    opacity: 0;                    transform: translateX(-30px);                }                100% {                    opacity: 1;                    transform: translateX(0);                }            }                    @keyframes lightSpeedLeft {              from {                transform: translate3d(-50%, 0, 0) skewX(20deg);                opacity: 0;              }              60% {                transform: skewX(-10deg);                opacity: 1;              }              80% {                transform: skewX(2deg);              }              to {                opacity: 1;                transform: translate3d(0, 0, 0);              }            }                    @keyframes zoomIn {                0% {                    opacity: 0;                    transform: scale(0.5);                }                100% {                    opacity: 1;                    transform: scale(1);                }            }        </style><g id="freepik--background-complete--inject-92" class="animable" style="transform-origin: 250px 226.88px;"><rect y="382.4" width="500" height="0.25" style="fill: rgb(224, 224, 224); transform-origin: 250px 382.525px;" id="el5yg5y75mde9" class="animable"></rect><rect x="413.5" y="396.43" width="10.61" height="0.25" style="fill: rgb(224, 224, 224); transform-origin: 418.805px 396.555px;" id="eljznwknbaaxr" class="animable"></rect><rect x="363.01" y="396.55" width="43.15" height="0.25" style="fill: rgb(224, 224, 224); transform-origin: 384.585px 396.675px;" id="elkf93dq36hl" class="animable"></rect><rect x="236.85" y="394.17" width="72.82" height="0.25" style="fill: rgb(224, 224, 224); transform-origin: 273.26px 394.295px;" id="elvhy3h1jlxr" class="animable"></rect><rect x="171.85" y="398.51" width="23.11" height="0.25" style="fill: rgb(224, 224, 224); transform-origin: 183.405px 398.635px;" id="elus7fm1zbire" class="animable"></rect><rect x="86.13" y="394.29" width="31.82" height="0.25" style="fill: rgb(224, 224, 224); transform-origin: 102.04px 394.415px;" id="ele6mgo49b7k" class="animable"></rect><rect x="123.5" y="394.29" width="29.74" height="0.25" style="fill: rgb(224, 224, 224); transform-origin: 138.37px 394.415px;" id="elgddth6f7y1" class="animable"></rect><rect x="65.29" y="389.92" width="30.37" height="0.25" style="fill: rgb(224, 224, 224); transform-origin: 80.475px 390.045px;" id="el4c7t5os82ka" class="animable"></rect><path d="M237,337.8H43.91a5.71,5.71,0,0,1-5.7-5.71V60.66A5.71,5.71,0,0,1,43.91,55H237a5.71,5.71,0,0,1,5.71,5.71V332.09A5.71,5.71,0,0,1,237,337.8ZM43.91,55.2a5.46,5.46,0,0,0-5.45,5.46V332.09a5.46,5.46,0,0,0,5.45,5.46H237a5.47,5.47,0,0,0,5.46-5.46V60.66A5.47,5.47,0,0,0,237,55.2Z" style="fill: rgb(224, 224, 224); transform-origin: 140.46px 196.4px;" id="elrvjmufx1esb" class="animable"></path><path d="M453.31,337.8H260.21a5.72,5.72,0,0,1-5.71-5.71V60.66A5.72,5.72,0,0,1,260.21,55h193.1A5.71,5.71,0,0,1,459,60.66V332.09A5.71,5.71,0,0,1,453.31,337.8ZM260.21,55.2a5.47,5.47,0,0,0-5.46,5.46V332.09a5.47,5.47,0,0,0,5.46,5.46h193.1a5.47,5.47,0,0,0,5.46-5.46V60.66a5.47,5.47,0,0,0-5.46-5.46Z" style="fill: rgb(224, 224, 224); transform-origin: 356.75px 196.4px;" id="elf5by9misfv" class="animable"></path><path d="M178.33,284.61h0c.55,0,1.1,0,1.66.05a23.68,23.68,0,0,1,21.2,29.77,118.6,118.6,0,0,0-3.71,30.84v30.28a4,4,0,0,1-4,4H97.39V284.61Z" style="fill: rgb(230, 230, 230); transform-origin: 149.696px 332.08px;" id="el0shudu16jrvn" class="animable"></path><path d="M73.72,308.28a23.67,23.67,0,1,1,46.53,6.16,118.6,118.6,0,0,0-3.71,30.84v30.28a4,4,0,0,1-4,4H82.22a4,4,0,0,1-4-4V343.5a108.19,108.19,0,0,0-3.66-28.89A23.65,23.65,0,0,1,73.72,308.28Z" style="fill: rgb(240, 240, 240); transform-origin: 97.3899px 332.095px;" id="el36b8l5g8ips" class="animable"></path><g id="elinx0h8a0vij"><rect x="130.01" y="321.9" width="121.53" height="57.63" style="fill: rgb(230, 230, 230); transform-origin: 190.775px 350.715px; transform: rotate(180deg);" class="animable" id="elmd1aq31ltl"></rect></g><g id="el9vaqbc5duh"><path d="M172.11,252.86H322.84a0,0,0,0,1,0,0V317a17.92,17.92,0,0,1-17.92,17.92H190A17.92,17.92,0,0,1,172.11,317V252.86A0,0,0,0,1,172.11,252.86Z" style="fill: rgb(224, 224, 224); transform-origin: 247.475px 293.89px; transform: rotate(180deg);" class="animable" id="ellx6a4btbyp"></path></g><g id="elgngoldylcv5"><path d="M149.56,252.86H300.28a0,0,0,0,1,0,0v65a17.05,17.05,0,0,1-17.05,17.05H166.61a17.05,17.05,0,0,1-17.05-17.05v-65A0,0,0,0,1,149.56,252.86Z" style="fill: rgb(240, 240, 240); transform-origin: 224.92px 293.885px; transform: rotate(180deg);" class="animable" id="el525xkxw320v"></path></g><g id="elzmywww72068"><path d="M127.47,316.64H242.24a5.2,5.2,0,0,1,5.2,5.2v13.07a5.2,5.2,0,0,1-5.2,5.2H127.47a1.55,1.55,0,0,1-1.55-1.55V318.19A1.55,1.55,0,0,1,127.47,316.64Z" style="fill: rgb(224, 224, 224); transform-origin: 186.68px 328.375px; transform: rotate(180deg);" class="animable" id="eltj3q5jbabi"></path></g><path d="M331.34,284.61h0c.55,0,1.11,0,1.67.05a23.68,23.68,0,0,1,21.2,29.77,118.18,118.18,0,0,0-3.72,30.84v30.28a4,4,0,0,1-4,4H250.41V284.61Z" style="fill: rgb(230, 230, 230); transform-origin: 302.716px 332.08px;" id="elfp02uwgc5e8" class="animable"></path><path d="M226.73,308.28a23.68,23.68,0,0,1,47.3-1.54,23.92,23.92,0,0,1-.76,7.7,118.6,118.6,0,0,0-3.71,30.84v30.28a4,4,0,0,1-4,4H235.23a4,4,0,0,1-4-4V343.5a107.8,107.8,0,0,0-3.67-28.89A23.65,23.65,0,0,1,226.73,308.28Z" style="fill: rgb(240, 240, 240); transform-origin: 250.404px 332.149px;" id="el1vvgjd2xmks" class="animable"></path><path d="M99.08,382.41H329.65a2.88,2.88,0,0,0,2.89-2.88H96.2A2.88,2.88,0,0,0,99.08,382.41Z" style="fill: rgb(224, 224, 224); transform-origin: 214.37px 380.97px;" id="elpo24otm2p7s" class="animable"></path><g id="el03vnm7bklxlw"><rect x="412.6" y="269.91" width="20.74" height="108.41" style="fill: rgb(230, 230, 230); transform-origin: 422.97px 324.115px; transform: rotate(180deg);" class="animable" id="ellzh7t8wbjtp"></rect></g><g id="el3yecvqggb2g"><rect x="338.95" y="378.32" width="90.4" height="4.07" style="fill: rgb(230, 230, 230); transform-origin: 384.15px 380.355px; transform: rotate(180deg);" class="animable" id="elpzsg29eumc"></rect></g><rect x="334.97" y="269.91" width="77.62" height="108.41" style="fill: rgb(240, 240, 240); transform-origin: 373.78px 324.115px;" id="elgv6ntmz64ds" class="animable"></rect><rect x="337.91" y="273.48" width="71.74" height="68.98" style="fill: rgb(230, 230, 230); transform-origin: 373.78px 307.97px;" id="elioa9hgl6pen" class="animable"></rect><rect x="337.91" y="345.39" width="71.74" height="24.86" style="fill: rgb(230, 230, 230); transform-origin: 373.78px 357.82px;" id="eldzitiy1xvnn" class="animable"></rect><rect x="337.91" y="273.48" width="15.13" height="68.98" style="fill: rgb(224, 224, 224); transform-origin: 345.475px 307.97px;" id="elhxzps7w69ls" class="animable"></rect><rect x="337.91" y="345.39" width="15.13" height="24.86" style="fill: rgb(224, 224, 224); transform-origin: 345.475px 357.82px;" id="elqng5s2ms56" class="animable"></rect><g id="elodspdzeo86p"><rect x="171.34" y="88.78" width="179.84" height="130.46" style="fill: rgb(224, 224, 224); transform-origin: 261.26px 154.01px; transform: rotate(180deg);" class="animable" id="ely94vh6aj2gj"></rect></g><g id="elq8rlbpehd6c"><rect x="158.48" y="88.78" width="189.43" height="130.46" style="fill: rgb(240, 240, 240); transform-origin: 253.195px 154.01px; transform: rotate(180deg);" class="animable" id="el2s8y7e6o9g"></rect></g><g id="el8j8bblcyaqd"><rect x="191.98" y="63.31" width="122.42" height="181.39" style="fill: rgb(250, 250, 250); transform-origin: 253.19px 154.005px; transform: rotate(90deg);" class="animable" id="elinu3bjb4suj"></rect></g><g id="elvoi96xc0r4d"><circle cx="229.22" cy="149.8" r="32.22" style="fill: rgb(224, 224, 224); transform-origin: 229.22px 149.8px; transform: rotate(-80.87deg);" class="animable" id="eluszviev2nce"></circle></g><path d="M176.21,187c2.93-3.7,8.81-6.55,13.16-6.37a4.84,4.84,0,0,1,3.5,1.32c7.94-4.6,17.08-7.42,24.63-7.11,3.84.15,6.82,1.1,8.88,2.65,8.53-6.94,19.4-11.87,27.29-11.87,4.48,0,7.26,1.6,8.25,4.25,8.75-4.66,17.74-7.52,25-7.52,11.56,0,15.31,7.27,10.58,17.49,1.9,1.93,11,4.62,10.64,7.84H175.71C175.87,187.43,176,187.2,176.21,187Z" style="fill: rgb(240, 240, 240); transform-origin: 241.93px 175.015px;" id="el7njxf9fxqbc" class="animable"></path><path d="M221.8,140.06a3.28,3.28,0,0,1,2.78,1.34c6.74-4.67,14.34-7.54,20.46-7.22a10.58,10.58,0,0,1,7.09,2.69h0c7.32-7,16.46-12,22.88-12,3.66,0,5.84,1.62,6.49,4.31,7.39-4.73,14.87-7.64,20.79-7.64,7.32,0,10.56,4.47,9.55,11.33,3.53-2,7-3.17,9.82-3.17,3.91,0,5.75,2.25,5.43,5.79.34,0,.68,0,1,.05,6,.59,8.26,5.16,5.39,10.39H211.16C213.84,142.46,218.45,139.89,221.8,140.06Z" style="fill: rgb(240, 240, 240); transform-origin: 272.938px 133.735px;" id="eluva7abm04g" class="animable"></path><g id="elgkwz1pv492m"><circle cx="91.03" cy="136.35" r="32.22" style="fill: rgb(224, 224, 224); transform-origin: 91.03px 136.35px; transform: rotate(-81.3deg);" class="animable" id="elll3l2a5ua4n"></circle></g><g id="elil4tiwgc9ib"><circle cx="89.17" cy="136.35" r="32.22" style="fill: rgb(240, 240, 240); transform-origin: 89.17px 136.35px; transform: rotate(-80.87deg);" class="animable" id="elrylsoqltj99"></circle></g><path d="M117.35,136.34a28.21,28.21,0,1,1-6.11-17.49l.08.09A28,28,0,0,1,117.35,136.34Z" style="fill: rgb(224, 224, 224); transform-origin: 89.14px 136.383px;" id="el3ns7m6hz6e" class="animable"></path><path d="M117.35,136.34a28.18,28.18,0,0,1-49,18.95,28.17,28.17,0,0,1,42.92-36.44l.08.09A28,28,0,0,1,117.35,136.34Z" style="fill: rgb(250, 250, 250); transform-origin: 89.8265px 137.08px;" id="el46fhshcr6nv" class="animable"></path><path d="M89.79,139.07A2,2,0,0,1,88,137.92L80.82,122.6a2,2,0,1,1,3.62-1.7l6.36,13.6,9.19-3.72a2,2,0,0,1,1.5,3.71l-10.95,4.43A2,2,0,0,1,89.79,139.07Z" style="fill: rgb(224, 224, 224); transform-origin: 91.6775px 129.393px;" id="elc68ng9gaifl" class="animable"></path><path d="M372.46,316.45c7.46,1,12.08-15.2-4.4-28.94C369,303.42,359.44,314.65,372.46,316.45Z" style="fill: rgb(240, 240, 240); transform-origin: 372.395px 302.002px;" id="elgi71sv1jpe9" class="animable"></path><path d="M377.16,326.7c10.83-7.59,3.42-34.1-30.08-32.18C361.57,314,358.29,339.93,377.16,326.7Z" style="fill: rgb(240, 240, 240); transform-origin: 364.437px 312.367px;" id="el258w5d2ylqj" class="animable"></path><path d="M373.34,326.52c-7.19-7.75,3.05-27.25,28.93-20.13C387.66,319.23,385.89,340,373.34,326.52Z" style="fill: rgb(240, 240, 240); transform-origin: 386.685px 317.876px;" id="elxjadudikzaf" class="animable"></path><polygon points="362.2 342.46 384.45 342.46 386.13 327.67 360.52 327.67 362.2 342.46" style="fill: rgb(224, 224, 224); transform-origin: 373.325px 335.065px;" id="elslspptv82zs" class="animable"></polygon><g id="elmahc5n2g3go"><rect x="358.86" y="327.05" width="28.92" height="3.26" style="fill: rgb(224, 224, 224); transform-origin: 373.32px 328.68px; transform: rotate(180deg);" class="animable" id="elbrt1i0her8m"></rect></g></g><g id="freepik--Shadow--inject-92" class="animable" style="transform-origin: 250px 416.24px;"><ellipse cx="250" cy="416.24" rx="193.89" ry="11.32" style="fill: rgb(245, 245, 245); transform-origin: 250px 416.24px;" id="eltkcaa810lv" class="animable"></ellipse></g><g id="freepik--Character--inject-92" class="animable" style="transform-origin: 242.027px 260.247px;"><g id="el2u68f2if3e1"><rect x="384.32" y="390.06" width="7.68" height="17.09" style="fill: rgb(228, 137, 123); transform-origin: 388.16px 398.605px; transform: rotate(-21.1613deg);" class="animable" id="elo10wvqzuzr8"></rect></g><polygon points="419.55 408.55 412.02 408.55 409.25 391.12 416.78 391.12 419.55 408.55" style="fill: rgb(228, 137, 123); transform-origin: 414.4px 399.835px;" id="el48wfv9xpcb4" class="animable"></polygon><path d="M411.53,407.68H420a.61.61,0,0,1,.61.51l1.1,6.7a1.17,1.17,0,0,1-1.18,1.33c-2.95-.05-4.38-.22-8.1-.22-2.29,0-9.2.24-12.36.24s-3.39-3.13-2.08-3.41c5.87-1.27,10.35-3,12.3-4.69A2,2,0,0,1,411.53,407.68Z" style="fill: rgb(38, 50, 56); transform-origin: 409.48px 411.96px;" id="elx6r36ln6z5" class="animable"></path><path d="M386.47,405l8-2.33a.61.61,0,0,1,.74.31l3,6a1.14,1.14,0,0,1-.75,1.59c-2.9.79-4.86,1.29-8.49,2.35-2.52.73-5.07,1.92-7.56,2.71-1.71.55-5.75.57-7.84.57-3.09,0-3.78-3.26-2.46-3.41,3.35-.38,3.81-.2,5.66-1.13a25.82,25.82,0,0,0,8.07-5.58A3.83,3.83,0,0,1,386.47,405Z" style="fill: rgb(38, 50, 56); transform-origin: 384.396px 409.419px;" id="el313e1p1k588" class="animable"></path><path d="M375.3,164.77c-.62,1.57-1.21,2.94-1.88,4.38s-1.34,2.82-2.05,4.21a85.08,85.08,0,0,1-4.77,8.2,48.22,48.22,0,0,1-6.28,7.81,24,24,0,0,1-4.46,3.55A13.86,13.86,0,0,1,349.1,195a10.44,10.44,0,0,1-2-.14,14,14,0,0,1-1.71-.39,19.19,19.19,0,0,1-2.78-1.09,36.48,36.48,0,0,1-4.43-2.63,72.26,72.26,0,0,1-7.4-5.9,126.6,126.6,0,0,1-12.66-13.25L322,167.7c4.59,3.62,9.3,7.24,14,10.54a83.93,83.93,0,0,0,7.1,4.52,25.61,25.61,0,0,0,3.43,1.63,4.44,4.44,0,0,0,2.09.47,4.81,4.81,0,0,0,1.58-.81,15.77,15.77,0,0,0,2.38-2.17,43.48,43.48,0,0,0,4.6-6.34c1.44-2.34,2.79-4.81,4.07-7.33.64-1.26,1.26-2.54,1.86-3.82s1.21-2.63,1.72-3.81Z" style="fill: rgb(228, 137, 123); transform-origin: 346.71px 177.792px;" id="elnlovah0dl5e" class="animable"></path><path d="M323.07,170.11,322,164.18l-7.63,4.68s2.41,3.74,4.95,3.8Z" style="fill: rgb(228, 137, 123); transform-origin: 318.72px 168.42px;" id="elaupxq5wqj17" class="animable"></path><polygon points="318.44 160.61 312.48 164.66 314.36 168.86 321.99 164.18 318.44 160.61" style="fill: rgb(228, 137, 123); transform-origin: 317.235px 164.735px;" id="el2ppima06n7z" class="animable"></polygon><path d="M378.8,157.11c1.84,6.84-8.18,20.58-8.18,20.58l-13.16-7.38s2.45-5.65,5.46-11.4C367.77,149.62,376.69,149.31,378.8,157.11Z" style="fill: #11BE42; transform-origin: 368.243px 164.633px;" id="el2189i5k3oo4" class="animable"></path><g id="elgmzouh967dq"><path d="M378.8,157.11c1.84,6.84-8.18,20.58-8.18,20.58l-13.16-7.38s2.45-5.65,5.46-11.4C367.77,149.62,376.69,149.31,378.8,157.11Z" style="fill: rgb(250, 250, 250); opacity: 0.6; transform-origin: 368.243px 164.633px;" class="animable" id="elq8kwrusby9"></path></g><path d="M362.71,173.24l5.17,2.9.9-15.86C365.78,162.59,363.65,169.55,362.71,173.24Z" style="fill: #11BE42; transform-origin: 365.745px 168.21px;" id="elssme78syhq" class="animable"></path><g id="elo9ia8y5m2hk"><path d="M362.71,173.24l5.17,2.9.9-15.86C365.78,162.59,363.65,169.55,362.71,173.24Z" style="fill: rgb(250, 250, 250); opacity: 0.3; transform-origin: 365.745px 168.21px;" class="animable" id="el91hemprnd6w"></path></g><g id="el169bga3sewd"><rect x="382.83" y="390.34" width="7.68" height="8.81" style="fill: rgb(206, 111, 100); transform-origin: 386.67px 394.745px; transform: rotate(-21.11deg);" class="animable" id="el3bc8feg9pmn"></rect></g><polygon points="416.79 391.12 409.25 391.12 410.68 400.11 418.21 400.11 416.79 391.12" style="fill: rgb(206, 111, 100); transform-origin: 413.73px 395.615px;" id="elndj6p0k0w" class="animable"></polygon><path d="M412.36,151.57c-7.67,29.13-5.55,59.29-6.19,65.47H365.9c-6-42.34,4.26-65.08,4.26-65.08s3.2-.86,7.32-1.53l1.15-.17c1.05-.15,2.13-.29,3.23-.39a148.06,148.06,0,0,1,17.12,0c.89,0,1.79.11,2.67.18l1.05.1C407.89,150.66,412.36,151.57,412.36,151.57Z" style="fill: #11BE42; transform-origin: 388.189px 183.331px;" id="eli92cos1les" class="animable"></path><g id="elkk25b3ju3u"><path d="M412.36,151.57c-7.67,29.13-5.55,59.29-6.19,65.47H365.9c-6-42.34,4.26-65.08,4.26-65.08s3.2-.86,7.32-1.53l1.15-.17c1.05-.15,2.13-.29,3.23-.39a148.06,148.06,0,0,1,17.12,0c.89,0,1.79.11,2.67.18l1.05.1C407.89,150.66,412.36,151.57,412.36,151.57Z" style="fill: rgb(250, 250, 250); opacity: 0.6; transform-origin: 388.189px 183.331px;" class="animable" id="el86lawd2ymka"></path></g><path d="M364.62,205.58q.21,2.71.53,5.56l30-9.72a21.49,21.49,0,0,0,11.52-8.35c.11-2.67.26-5.48.49-8.41.1-1.43.23-2.89.36-4.37s.31-3.11.49-4.69Z" style="fill: #11BE42; transform-origin: 386.315px 193.37px;" id="elprak6gzhqy" class="animable"></path><g id="el1epqrnvg5mo"><path d="M364.62,205.58q.21,2.71.53,5.56l30-9.72a21.49,21.49,0,0,0,11.52-8.35c.11-2.67.26-5.48.49-8.41.1-1.43.23-2.89.36-4.37s.31-3.11.49-4.69Z" style="fill: rgb(250, 250, 250); opacity: 0.3; transform-origin: 386.315px 193.37px;" class="animable" id="elbir0qzrbrn9"></path></g><path d="M401.65,150.05l-.4.86c-.13.29-3.32,7.05-15.05,7.05-1.56,0-6.31,0-7.8-3.32a5.17,5.17,0,0,1,.23-4.38l-1.15.17a5.91,5.91,0,0,0,0,4.62c1.75,3.91,7,3.91,8.71,3.91,12.36,0,15.82-7.33,16-7.64l.53-1.17Z" style="fill: rgb(250, 250, 250); transform-origin: 389.865px 154.505px;" id="elhuzf7wmpmyo" class="animable"></path><path d="M398.41,130.59c-1.4,5.51-3.07,15.6.57,19.28,0,0-2.54,5.59-12.78,5.59-9.35,0-4.34-5.59-4.34-5.59,6.23-1.47,6.34-6,5.52-10.3Z" style="fill: rgb(228, 137, 123); transform-origin: 389.75px 143.025px;" id="elz0wz858rkym" class="animable"></path><path d="M393.91,134.25l-6.53,5.31a16.67,16.67,0,0,1,.35,3c1.91,1.9,5.74-2.91,6.14-5.37A8.27,8.27,0,0,0,393.91,134.25Z" style="fill: rgb(206, 111, 100); transform-origin: 390.701px 138.622px;" id="el3cnioceqtzg" class="animable"></path><path d="M375.61,127.92a6.56,6.56,0,0,0,2.93,4.38c2.08,1.32,4-.35,4.09-2.67.12-2.08-.82-5.28-3.25-5.66A3.34,3.34,0,0,0,375.61,127.92Z" style="fill: rgb(206, 111, 100); transform-origin: 379.093px 128.35px;" id="elciaijp0wolu" class="animable"></path><path d="M381.14,113.38c-3.85,1.45-6.19,16.19-1.65,18.7S388.43,110.64,381.14,113.38Z" style="fill: rgb(38, 50, 56); transform-origin: 381.01px 122.713px;" id="elk3j8k8k5zii" class="animable"></path><path d="M374.64,118.49c2.84,3,17.32-.6,17.87-5.76S369.27,112.85,374.64,118.49Z" style="fill: rgb(38, 50, 56); transform-origin: 383.185px 115.105px;" id="elr5qnt4wl1ei" class="animable"></path><path d="M398.2,121.65c-.27,7.51-.05,11.9-3.71,16A9.61,9.61,0,0,1,377.77,134c-1.76-6.58-1-17.75,6.18-21.33A9.63,9.63,0,0,1,398.2,121.65Z" style="fill: rgb(228, 137, 123); transform-origin: 387.592px 126.321px;" id="el5vzky65uzi6" class="animable"></path><path d="M393.67,106.06c5.31-1.31,6.47.19,6.71,3.82s5.08,2.62,3.45,8.1c-.76,2.59-2.71,2.37-1.52,5.42,1.36,3.51-6.71,7.76-8.61,7.75-3.13,0-2.44-6.52.11-12.45,1.91-4.44-2.85-3.21-8.31-1.55-12.3,3.73-20.45-7-12.82-12.14C376.72,102.28,387.83,107.94,393.67,106.06Z" style="fill: rgb(38, 50, 56); transform-origin: 386.943px 117.701px;" id="el7w17qrgdffo" class="animable"></path><path d="M401.76,129.61a7.68,7.68,0,0,1-4.33,3.5c-2.41.74-3.54-1.38-2.81-3.67.66-2.07,2.72-4.94,5.1-4.67S402.92,127.54,401.76,129.61Z" style="fill: rgb(228, 137, 123); transform-origin: 398.341px 129.006px;" id="elw9kkajhbd4p" class="animable"></path><path d="M365.9,217s-6.76,60.49-7.29,83.45c-.55,23.89,22.91,98.4,22.91,98.4l12-5.05s-14-68.07-12-91.52C383.6,276.75,392.37,217,392.37,217Z" style="fill: rgb(38, 50, 56); transform-origin: 376.06px 307.925px;" id="eluuxyi2qvqtg" class="animable"></path><path d="M382.69,233.65c-5.38,11.18-1.75,33.28,1.17,46.38,1.11-9.24,2.42-19.28,3.67-28.57C387.41,237.17,386.3,226.15,382.69,233.65Z" style="fill: rgb(24, 33, 55); transform-origin: 383.728px 255.628px;" id="elbwbodkte4ul" class="animable"></path><path d="M393,389.92c.05,0,1.42,3.83,1.42,3.83l-13.84,5.81-2.19-4.05Z" style="fill: #11BE42; transform-origin: 386.405px 394.74px;" id="el28mt5x4x22d" class="animable"></path><g id="elce1xm17loii"><path d="M393,389.92c.05,0,1.42,3.83,1.42,3.83l-13.84,5.81-2.19-4.05Z" style="fill: rgb(250, 250, 250); opacity: 0.6; transform-origin: 386.405px 394.74px;" class="animable" id="el0q6wz09eggd"></path></g><path d="M380.18,217s5.17,57.53,8.6,79.09c3.75,23.61,18.49,102.24,18.49,102.24h13.8s-8.27-76.73-9.83-100.1c-1.69-25.37-5.07-81.23-5.07-81.23Z" style="fill: rgb(38, 50, 56); transform-origin: 400.625px 307.665px;" id="el0l46xjx8ongf" class="animable"></path><path d="M421.28,394.2c.05,0,.46,4.43.46,4.43H406.58l-1.08-5Z" style="fill: #11BE42; transform-origin: 413.62px 396.13px;" id="elf427ih13byl" class="animable"></path><g id="elh3jrdsi3h5n"><path d="M421.28,394.2c.05,0,.46,4.43.46,4.43H406.58l-1.08-5Z" style="fill: rgb(250, 250, 250); opacity: 0.6; transform-origin: 413.62px 396.13px;" class="animable" id="elcgyya7213r"></path></g><path d="M416,390.22a.12.12,0,0,1-.12-.12c-.08-.69-7.53-70-8.93-91-1.52-22.79-4.58-73.31-4.61-73.82a.13.13,0,0,1,.12-.14h0a.13.13,0,0,1,.13.12c0,.51,3.09,51,4.61,73.82,1.4,21,8.85,90.26,8.93,91a.12.12,0,0,1-.11.14Z" style="fill: #11BE42; transform-origin: 409.236px 307.68px;" id="elcno24bvcked" class="animable"></path><g id="elw67ucszg42s"><path d="M416,390.22a.12.12,0,0,1-.12-.12c-.08-.69-7.53-70-8.93-91-1.52-22.79-4.58-73.31-4.61-73.82a.13.13,0,0,1,.12-.14h0a.13.13,0,0,1,.13.12c0,.51,3.09,51,4.61,73.82,1.4,21,8.85,90.26,8.93,91a.12.12,0,0,1-.11.14Z" style="opacity: 0.5; transform-origin: 409.236px 307.68px;" class="animable" id="elwh2u7zzs2mf"></path></g><path d="M387,124.68c0,.61-.29,1.13-.69,1.16s-.73-.43-.74-1,.29-1.13.69-1.16S387,124.07,387,124.68Z" style="fill: rgb(38, 50, 56); transform-origin: 386.285px 124.76px;" id="el1mtxc4rpffa" class="animable"></path><path d="M380.14,125.25c0,.61-.29,1.13-.69,1.16s-.73-.43-.74-1,.29-1.13.69-1.16S380.12,124.64,380.14,125.25Z" style="fill: rgb(38, 50, 56); transform-origin: 379.425px 125.33px;" id="eli2vn3ftq9k9" class="animable"></path><path d="M382.32,125.37a23.53,23.53,0,0,1-2.76,5.45c1.09.91,2.9.3,2.9.3Z" style="fill: rgb(222, 87, 83); transform-origin: 381.01px 128.345px;" id="elr3dlzw1b6c" class="animable"></path><path d="M383.18,133.62a.18.18,0,0,1-.18-.17.19.19,0,0,1,.18-.19,5.14,5.14,0,0,0,3.86-2.21.17.17,0,1,1,.3.17A5.45,5.45,0,0,1,383.18,133.62Z" style="fill: rgb(38, 50, 56); transform-origin: 385.181px 132.291px;" id="elhdq4acfc4lp" class="animable"></path><path d="M389.14,120.8a.36.36,0,0,1-.29-.13,2.83,2.83,0,0,0-2.32-1.09.34.34,0,0,1-.38-.31.38.38,0,0,1,.34-.39,3.53,3.53,0,0,1,2.94,1.35.34.34,0,0,1-.07.49A.37.37,0,0,1,389.14,120.8Z" style="fill: rgb(38, 50, 56); transform-origin: 387.827px 119.838px;" id="elo6ew4djho4i" class="animable"></path><path d="M377.17,121.83a.37.37,0,0,1-.14-.07.35.35,0,0,1,0-.5,3.68,3.68,0,0,1,3-1.49.33.33,0,0,1,.31.38.39.39,0,0,1-.4.33h0a3,3,0,0,0-2.34,1.21A.39.39,0,0,1,377.17,121.83Z" style="fill: rgb(38, 50, 56); transform-origin: 378.634px 120.809px;" id="ela51vxctjm0t" class="animable"></path><path d="M416.23,161.41l-10.41-2.77s-10.2,25.11-13.8,26.75c-4.9,2.23-17.32,10-22.59,13.67-.3,1.24-.07,4.56.6,5.46,9-1.63,26.23-8.26,29.83-11.64C408.06,185.2,416.23,161.41,416.23,161.41Z" style="fill: rgb(228, 137, 123); transform-origin: 392.765px 181.58px;" id="elb06ffvs3tof" class="animable"></path><path d="M418.94,158.54c2.75,8.86-8,21-8,21l-14.85-6.06a151.72,151.72,0,0,1,6.07-15.08C406.73,148.57,416.16,149.59,418.94,158.54Z" style="fill: #11BE42; transform-origin: 407.74px 165.48px;" id="elud5w2liq5zj" class="animable"></path><g id="elogxyccp9vln"><path d="M418.94,158.54c2.75,8.86-8,21-8,21l-14.85-6.06a151.72,151.72,0,0,1,6.07-15.08C406.73,148.57,416.16,149.59,418.94,158.54Z" style="fill: rgb(250, 250, 250); opacity: 0.6; transform-origin: 407.74px 165.48px;" class="animable" id="el3l1pk9q7ao8"></path></g><path d="M409,409a2.15,2.15,0,0,1-1.43-.38,1,1,0,0,1-.31-.94.61.61,0,0,1,.33-.51c.85-.42,3.2,1.07,3.46,1.24a.18.18,0,0,1,.08.18.19.19,0,0,1-.15.14A8.85,8.85,0,0,1,409,409Zm-1-1.55a.53.53,0,0,0-.23,0,.25.25,0,0,0-.13.21.71.71,0,0,0,.2.65,3.63,3.63,0,0,0,2.67.13A6.76,6.76,0,0,0,407.94,407.44Z" style="fill: #11BE42; transform-origin: 409.186px 408.052px;" id="elqb067s44rpi" class="animable"></path><path d="M410.91,408.73l-.08,0c-.76-.43-2.17-2.08-2-2.92a.63.63,0,0,1,.6-.46.88.88,0,0,1,.74.23c.84.71.89,2.88.89,3a.19.19,0,0,1-.19.19Zm-1.34-3.05h-.08c-.23,0-.26.14-.27.18-.13.5.76,1.74,1.5,2.33a4.11,4.11,0,0,0-.75-2.36A.6.6,0,0,0,409.57,405.68Z" style="fill: #11BE42; transform-origin: 409.938px 407.055px;" id="elr3r822j3ne9" class="animable"></path><path d="M382.41,407.75a2.84,2.84,0,0,1-1.88,0A.93.93,0,0,1,380,407a.62.62,0,0,1,.2-.53c.81-.71,4.07.06,4.44.15a.18.18,0,0,1,.13.15.19.19,0,0,1-.11.18A13.47,13.47,0,0,1,382.41,407.75Zm-1.62-1.19a.73.73,0,0,0-.32.14.24.24,0,0,0-.07.22.58.58,0,0,0,.31.5c.53.29,1.77.06,3.35-.6A9.51,9.51,0,0,0,380.79,406.56Z" style="fill: #11BE42; transform-origin: 382.383px 407.041px;" id="eloygcnk7yqya" class="animable"></path><path d="M384.66,406.93h-.07c-1-.18-3-1.33-3.06-2.19,0-.2.09-.48.56-.65a1.32,1.32,0,0,1,1,.06c1.09.54,1.66,2.46,1.68,2.54a.2.2,0,0,1,0,.18A.14.14,0,0,1,384.66,406.93Zm-2.36-2.52-.11,0c-.31.11-.3.24-.3.28,0,.51,1.45,1.46,2.46,1.78a3.85,3.85,0,0,0-1.4-2A.88.88,0,0,0,382.3,404.41Z" style="fill: #11BE42; transform-origin: 383.161px 405.475px;" id="elam8ps2gdm46" class="animable"></path><path d="M290,211.44h0a12.76,12.76,0,0,1,11.72-8.53H403a9.58,9.58,0,0,1,9.7,11L390.19,405.24a12.72,12.72,0,0,1-12.29,11h-254a9.57,9.57,0,0,1-9.7-11l19.18-162.87a12.72,12.72,0,0,1,12.29-11h117C274.59,231.37,285.94,223.11,290,211.44Z" style="fill: #11BE42; transform-origin: 263.449px 309.575px;" id="eltxzoysxp2st" class="animable"></path><g id="elhocvrce5g28"><path d="M290,211.44h0a12.76,12.76,0,0,1,11.72-8.53H403a9.58,9.58,0,0,1,9.7,11L390.19,405.24a12.72,12.72,0,0,1-12.29,11h-254a9.57,9.57,0,0,1-9.7-11l19.18-162.87a12.72,12.72,0,0,1,12.29-11h117C274.59,231.37,285.94,223.11,290,211.44Z" style="fill: rgb(250, 250, 250); opacity: 0.1; transform-origin: 263.449px 309.575px;" class="animable" id="eldodi8qrfuk7"></path></g><g id="el1vr5kefor8r"><rect x="92.83" y="160.23" width="166.76" height="157.84" style="fill: #11BE42; transform-origin: 176.21px 239.15px; transform: rotate(-34.89deg);" class="animable" id="el5dfutwtbomx"></rect></g><g id="elzl1wz2xrgcd"><rect x="92.83" y="160.23" width="166.76" height="157.84" style="fill: rgb(250, 250, 250); opacity: 0.8; transform-origin: 176.21px 239.15px; transform: rotate(-34.89deg);" class="animable" id="el5t4m6ai1dz"></rect></g><g id="el6z88rnlmlnx"><rect x="92.47" y="162.25" width="166.76" height="157.84" style="fill: rgb(250, 250, 250); transform-origin: 175.85px 241.17px; transform: rotate(-34.89deg);" class="animable" id="eltbqls15ekwj"></rect></g><g id="el7af1dsf9fug"><rect x="97.54" y="176.83" width="142.7" height="108.72" style="fill: #11BE42; transform-origin: 168.89px 231.19px; transform: rotate(-34.89deg);" class="animable" id="eltbipbcusjw"></rect></g><g id="elkygtqt68g8d"><rect x="97.54" y="176.83" width="142.7" height="108.72" style="fill: rgb(250, 250, 250); opacity: 0.8; transform-origin: 168.89px 231.19px; transform: rotate(-34.89deg);" class="animable" id="eluzxxks6et9"></rect></g><path d="M151.5,222.56a20,20,0,1,1-27.8-5A20,20,0,0,1,151.5,222.56Z" style="fill: #11BE42; transform-origin: 135.093px 233.998px;" id="eljmgpw7c9jfi" class="animable"></path><g id="el3yyv6lhd89"><path d="M151.5,222.56a20,20,0,1,1-27.8-5A20,20,0,0,1,151.5,222.56Z" style="fill: rgb(250, 250, 250); opacity: 0.1; transform-origin: 135.093px 233.998px;" class="animable" id="elbt4f3790ij8"></path></g><path d="M226.16,213.75A29,29,0,0,0,203,205.42h0c-.13-.18-.23-.38-.36-.57a29,29,0,0,0-51.92,23.86,18,18,0,0,0-2.51,1.44,17.36,17.36,0,0,0-7,18.18,19.62,19.62,0,0,0-9.3,7.59,21.12,21.12,0,0,0-.23,23.17,20.76,20.76,0,0,0,29.16,5.52h0l33.65-23.47,30.83-21.5a15.79,15.79,0,0,0,4.25-21.77l-.09-.14A28.63,28.63,0,0,0,226.16,213.75Z" style="fill: #11BE42; transform-origin: 180.268px 240.323px;" id="eldhom3dzlkq8" class="animable"></path><g id="ely36c4xcxewe"><path d="M226.16,213.75A29,29,0,0,0,203,205.42h0c-.13-.18-.23-.38-.36-.57a29,29,0,0,0-51.92,23.86,18,18,0,0,0-2.51,1.44,17.36,17.36,0,0,0-7,18.18,19.62,19.62,0,0,0-9.3,7.59,21.12,21.12,0,0,0-.23,23.17,20.76,20.76,0,0,0,29.16,5.52h0l33.65-23.47,30.83-21.5a15.79,15.79,0,0,0,4.25-21.77l-.09-.14A28.63,28.63,0,0,0,226.16,213.75Z" style="opacity: 0.3; transform-origin: 180.268px 240.323px;" class="animable" id="ele0lmrv53oo"></path></g><g id="elrsh9ie00rho"><rect x="93.08" y="182.16" width="166.76" height="157.84" style="fill: #11BE42; mix-blend-mode: multiply; transform-origin: 176.46px 261.08px; transform: rotate(-32.81deg);" class="animable" id="elny7k8jhdc08"></rect></g><g id="eloyhcn3vrsi8"><rect x="93.08" y="182.16" width="166.76" height="157.84" style="fill: rgb(250, 250, 250); opacity: 0.8; transform-origin: 176.46px 261.08px; transform: rotate(-32.81deg);" class="animable" id="el0vsq8q3xkrtj"></rect></g><g id="elhbigma1lxjv"><rect x="92.65" y="184.17" width="166.76" height="157.84" style="fill: rgb(250, 250, 250); transform-origin: 176.03px 263.09px; transform: rotate(-32.81deg);" class="animable" id="ele08rtv0301r"></rect></g><g id="eluy485k52j0q"><rect x="98.09" y="198.51" width="142.7" height="108.72" style="fill: #11BE42; transform-origin: 169.44px 252.87px; transform: rotate(-32.81deg);" class="animable" id="el6icd7ei61dj"></rect></g><g id="elucd5tvtc4jl"><rect x="98.09" y="198.51" width="142.7" height="108.72" style="fill: rgb(250, 250, 250); opacity: 0.8; transform-origin: 169.44px 252.87px; transform: rotate(-32.81deg);" class="animable" id="el9p9q58b3yg"></rect></g><g id="el9va0s4ppl4e"><circle cx="135.59" cy="254.42" r="19.96" style="fill: #11BE42; transform-origin: 135.59px 254.42px; transform: rotate(-77.94deg);" class="animable" id="elga2widqgwjt"></circle></g><g id="eljnvjqrhwfj8"><circle cx="135.59" cy="254.42" r="19.96" style="fill: rgb(250, 250, 250); opacity: 0.1; transform-origin: 135.59px 254.42px; transform: rotate(-77.94deg);" class="animable" id="el48kjg5otmel"></circle></g><path d="M227.3,237.52a29,29,0,0,0-22.86-9.17h0c-.12-.2-.21-.4-.34-.59a29,29,0,0,0-52.74,22,17,17,0,0,0-2.57,1.34A17.37,17.37,0,0,0,141.15,269a19.52,19.52,0,0,0-9.57,7.24,21.1,21.1,0,0,0-1.07,23.14A20.76,20.76,0,0,0,159.45,306h0L194,283.72l31.6-20.37a15.8,15.8,0,0,0,5-21.6l-.1-.14A28,28,0,0,0,227.3,237.52Z" style="fill: #11BE42; transform-origin: 180.247px 261.821px;" id="el1bldithjay9" class="animable"></path><g id="elkem50trd1or"><path d="M227.3,237.52a29,29,0,0,0-22.86-9.17h0c-.12-.2-.21-.4-.34-.59a29,29,0,0,0-52.74,22,17,17,0,0,0-2.57,1.34A17.37,17.37,0,0,0,141.15,269a19.52,19.52,0,0,0-9.57,7.24,21.1,21.1,0,0,0-1.07,23.14A20.76,20.76,0,0,0,159.45,306h0L194,283.72l31.6-20.37a15.8,15.8,0,0,0,5-21.6l-.1-.14A28,28,0,0,0,227.3,237.52Z" style="opacity: 0.3; transform-origin: 180.247px 261.821px;" class="animable" id="elg2zfjj0ocl"></path></g><g id="elabp1vqt4xi"><rect x="171.45" y="174.7" width="166.76" height="157.84" style="fill: #11BE42; mix-blend-mode: multiply; transform-origin: 254.83px 253.62px; transform: rotate(-6.26deg);" class="animable" id="elb5l68neqfa9"></rect></g><g id="elm579qvp6b0r"><rect x="171.45" y="174.7" width="166.76" height="157.84" style="fill: rgb(250, 250, 250); opacity: 0.8; transform-origin: 254.83px 253.62px; transform: rotate(-6.26deg);" class="animable" id="el3ar9mh2gqwy"></rect></g><g id="eldgfyfluebln"><rect x="170.17" y="176.3" width="166.76" height="157.84" style="fill: rgb(250, 250, 250); transform-origin: 253.55px 255.22px; transform: rotate(-6.26deg);" class="animable" id="eljedrlxpck7b"></rect></g><g id="ell7jrd7dqa1g"><rect x="180.87" y="188.77" width="142.7" height="108.72" style="fill: #11BE42; transform-origin: 252.22px 243.13px; transform: rotate(-6.26deg);" class="animable" id="el6jesfzpqp24"></rect></g><g id="el0we13uci4i8g"><rect x="180.87" y="188.77" width="142.7" height="108.72" style="fill: rgb(250, 250, 250); opacity: 0.8; transform-origin: 252.22px 243.13px; transform: rotate(-6.26deg);" class="animable" id="elqj44xupk5c"></rect></g><polygon points="328.64 285.44 329.07 289.39 255.39 297.48 272.98 276.62 290.99 255.24 328.64 285.44" style="fill: #11BE42; transform-origin: 292.23px 276.36px;" id="eluiv23gzzttf" class="animable"></polygon><g id="el3lttbu7lgpv"><polygon points="328.64 285.44 329.07 289.39 255.39 297.48 272.98 276.62 290.99 255.24 328.64 285.44" style="opacity: 0.3; transform-origin: 292.23px 276.36px;" class="animable" id="els803l9sebx"></polygon></g><polygon points="297.17 292.89 187.23 304.95 186.27 296.26 229.42 247.33 272.98 276.62 297.17 292.89" style="fill: #11BE42; transform-origin: 241.72px 276.14px;" id="ell82341y5f8e" class="animable"></polygon><g id="elalil85kajfa"><polygon points="297.17 292.89 187.23 304.95 186.27 296.26 229.42 247.33 272.98 276.62 297.17 292.89" style="opacity: 0.3; transform-origin: 241.72px 276.14px;" class="animable" id="ela87a9bxndvo"></polygon></g><g id="el7ghx1w4ijd"><circle cx="266.76" cy="220.75" r="16.89" style="fill: #11BE42; transform-origin: 266.76px 220.75px; transform: rotate(-87.61deg);" class="animable" id="el1itemw0utza"></circle></g><g id="el9r5z5lgxrk9"><circle cx="266.76" cy="220.75" r="16.89" style="fill: rgb(250, 250, 250); opacity: 0.1; transform-origin: 266.76px 220.75px; transform: rotate(-87.61deg);" class="animable" id="el8nelw2890wh"></circle></g><g id="el1d2wu69i3gk"><path d="M246.85,251.38h0c.68-4.3,4.79-7.36,9.92-7.36H358.08c6.07,0,11.45,4.25,12,9.49l13.58,153.24c.57,5.24-3.9,9.49-10,9.49h-254c-6.08,0-11.46-4.25-12-9.49L96.75,278.06c-.57-5.24,3.89-9.48,10-9.48h117C235.65,268.58,245.26,261.45,246.85,251.38Z" style="fill: #11BE42; opacity: 0.7; mix-blend-mode: multiply; transform-origin: 240.205px 330.13px;" class="animable" id="el5hm7ob29ya3"></path></g><path d="M370.27,198.47l-8,2.74-5.08,3.58,9.12,3.54s8.52-.9,10.57-5.52Z" style="fill: rgb(228, 137, 123); transform-origin: 367.035px 203.4px;" id="ellj1yopjy7h" class="animable"></path></g><defs>     <filter id="active" height="200%">         <feMorphology in="SourceAlpha" result="DILATED" operator="dilate" radius="2"></feMorphology>                <feFlood flood-color="#32DFEC" flood-opacity="1" result="PINK"></feFlood>        <feComposite in="PINK" in2="DILATED" operator="in" result="OUTLINE"></feComposite>        <feMerge>            <feMergeNode in="OUTLINE"></feMergeNode>            <feMergeNode in="SourceGraphic"></feMergeNode>        </feMerge>    </filter>    <filter id="hover" height="200%">        <feMorphology in="SourceAlpha" result="DILATED" operator="dilate" radius="2"></feMorphology>                <feFlood flood-color="#ff0000" flood-opacity="0.5" result="PINK"></feFlood>        <feComposite in="PINK" in2="DILATED" operator="in" result="OUTLINE"></feComposite>        <feMerge>            <feMergeNode in="OUTLINE"></feMergeNode>            <feMergeNode in="SourceGraphic"></feMergeNode>        </feMerge>            <feColorMatrix type="matrix" values="0   0   0   0   0                0   1   0   0   0                0   0   0   0   0                0   0   0   1   0 "></feColorMatrix>    </filter></defs></svg>